<?xml version="1.0" encoding="utf-8"?>
<!-- Generator: Adobe Illustrator 22.0.0, SVG Export Plug-In . SVG Version: 6.00 Build 0)  -->
<svg version="1.1" id="Livello_1" xmlns="http://www.w3.org/2000/svg" xmlns:xlink="http://www.w3.org/1999/xlink" x="0px" y="0px"
	 viewBox="0 0 6000 2000" style="enable-background:new 0 0 6000 2000;" xml:space="preserve">
<style type="text/css">
	.st0{fill:#EE921D;}
	.st1{fill:#FFDAB9;}
	.st2{fill:#FFCFA0;}
	.st3{fill:#FFBF79;}
	.st4{fill:#F3A235;}
	.st5{fill:#BC8655;}
	.st6{fill:#9E7042;}
	.st7{fill:#56B2BF;}
	.st8{fill:#FBCAA8;}
	.st9{fill:#FFD9C3;}
	.st10{fill:#9ADBDE;}
	.st11{fill:#566288;}
	.st12{fill:#F2BD9D;}
	.st13{fill:#E8D3B8;}
	.st14{fill:#E1AE94;}
	.st15{fill:#E7B692;}
	.st16{fill:#6777A0;}
	.st17{fill:#EFC1A0;}
	.st18{fill:#E9B691;}
	.st19{fill:#D0E9F2;}
	.st20{fill:#3F4C73;}
</style>
<g id="Layer_1">
	<path class="st0" d="M5019.9,501h328.7l59.3-79.1h-328.7L5019.9,501z"/>
	<path class="st1" d="M5019.9,1250.2h328.7V501h-328.7V1250.2z"/>
	<path class="st2" d="M5019.9,1250.2L5348.6,501h-328.7V1250.2z"/>
	<path class="st3" d="M5348.6,501v749.2h117.1V501l-57.9-79.1L5348.6,501z"/>
	<path class="st4" d="M5397.2,565.3h26.1v-65.7h-26.1V565.3z"/>
	<path class="st4" d="M5397.2,698.9h26.1v-65.7h-26.1V698.9z"/>
	<path class="st4" d="M5397.2,832.4h26.1v-65.7h-26.1V832.4z"/>
	<path class="st4" d="M5397.2,966h26.1v-65.7h-26.1V966z"/>
	<path class="st4" d="M5397.2,1099.6h26.1v-65.7h-26.1V1099.6z"/>
	<path class="st4" d="M5397.2,1233.2h26.1v-65.7h-26.1V1233.2z"/>
	<path class="st3" d="M5686.8,625.6v624.6H5804V625.6l-57.9-79.1L5686.8,625.6z"/>
	<path class="st1" d="M5441.9,1250.2h244.9V625.6h-244.9V1250.2z"/>
	<path class="st2" d="M5441.9,1250.2l244.9-624.6h-244.9V1250.2z"/>
	<path class="st0" d="M5441.9,625.6h244.9l59.3-79.1h-244.9L5441.9,625.6z"/>
	<path class="st4" d="M5725.2,692.2h44.3v-65.7h-44.3V692.2z"/>
	<path class="st4" d="M5725.2,795.8h44.3v-65.7h-44.3V795.8z"/>
	<path class="st4" d="M5725.2,899.5h44.3v-65.7h-44.3V899.5z"/>
	<path class="st4" d="M5725.2,1003.1h44.3v-65.7h-44.3V1003.1z"/>
	<path class="st4" d="M5725.2,1106.8h44.3v-65.7h-44.3V1106.8z"/>
	<path class="st4" d="M5725.2,1210.4h44.3v-65.7h-44.3V1210.4z"/>
	<path class="st0" d="M4469.6,501h200.1l59.3-79.1h-200.1L4469.6,501z"/>
	<path class="st1" d="M4469.6,1250.2h200.1V501h-200.1V1250.2z"/>
	<path class="st2" d="M4469.6,1250.2L4669.7,501h-200.1V1250.2z"/>
	<path class="st3" d="M4669.7,501v749.2h117.1V501l-57.9-79.1L4669.7,501z"/>
	<path class="st4" d="M4718.2,565.3h26.1v-65.7h-26.1V565.3z"/>
	<path class="st4" d="M4718.2,698.9h26.1v-65.7h-26.1V698.9z"/>
	<path class="st4" d="M4718.2,832.4h26.1v-65.7h-26.1V832.4z"/>
	<path class="st4" d="M4718.2,966h26.1v-65.7h-26.1V966z"/>
	<path class="st4" d="M4718.2,1099.6h26.1v-65.7h-26.1V1099.6z"/>
	<path class="st4" d="M4718.2,1233.2h26.1v-65.7h-26.1V1233.2z"/>
	<path class="st1" d="M4365.4,655.7v594.5h144.2V655.7l-35.5-12.9L4365.4,655.7z"/>
	<path class="st2" d="M4365.4,655.7v594.5l144.2-594.5l-35.5-12.9L4365.4,655.7z"/>
	<path class="st3" d="M4509.6,655.6v594.6h91.5V655.6l-45.2-61.8L4509.6,655.6z"/>
	<path class="st0" d="M4365.4,655.6l14.1,0h130.1l46.3-61.8h-143.7L4365.4,655.6z"/>
	<path class="st3" d="M4963.1,625.6v624.6h117.1V625.6l-57.9-79.1L4963.1,625.6z"/>
	<path class="st1" d="M4763,1250.2h200.1V625.6H4763V1250.2z"/>
	<path class="st2" d="M4763,1250.2l200.1-624.6H4763V1250.2z"/>
	<path class="st0" d="M4763,625.6h200.1l59.3-79.1h-200.1L4763,625.6z"/>
	<path class="st4" d="M5001.5,692.2h44.3v-65.7h-44.3V692.2z"/>
	<path class="st4" d="M5001.5,795.8h44.3v-65.7h-44.3V795.8z"/>
	<path class="st4" d="M5001.5,899.5h44.3v-65.7h-44.3V899.5z"/>
	<path class="st4" d="M5001.5,1003.1h44.3v-65.7h-44.3V1003.1z"/>
	<path class="st4" d="M5001.5,1106.8h44.3v-65.7h-44.3V1106.8z"/>
	<path class="st4" d="M5001.5,1210.4h44.3v-65.7h-44.3V1210.4z"/>
	<path class="st4" d="M4539.1,755.5h36.6v-65.7h-36.6V755.5z"/>
	<path class="st4" d="M4539.1,864.8h36.6v-65.7h-36.6V864.8z"/>
	<path class="st4" d="M4539.1,974.2h36.6v-65.7h-36.6V974.2z"/>
	<path class="st4" d="M4539.1,1083.5h36.6v-65.7h-36.6V1083.5z"/>
	<path class="st4" d="M4539.1,1192.8h36.6v-65.7h-36.6V1192.8z"/>
	<path class="st4" d="M4450.5,755.5h36.6v-65.7h-36.6V755.5z"/>
	<path class="st4" d="M4450.5,864.8h36.6v-65.7h-36.6V864.8z"/>
	<path class="st4" d="M4450.5,974.2h36.6v-65.7h-36.6V974.2z"/>
	<path class="st4" d="M4450.5,1083.5h36.6v-65.7h-36.6V1083.5z"/>
	<path class="st4" d="M4450.5,1192.8h36.6v-65.7h-36.6V1192.8z"/>
	<path class="st4" d="M4386.7,755.5h36.6v-65.7h-36.6V755.5z"/>
	<path class="st4" d="M4386.7,864.8h36.6v-65.7h-36.6V864.8z"/>
	<path class="st4" d="M4386.7,974.2h36.6v-65.7h-36.6V974.2z"/>
	<path class="st4" d="M4386.7,1083.5h36.6v-65.7h-36.6V1083.5z"/>
	<path class="st4" d="M4386.7,1192.8h36.6v-65.7h-36.6V1192.8z"/>
	<path class="st1" d="M5764.3,655.7v594.5h144.2V655.7l-35.5-12.9L5764.3,655.7z"/>
	<path class="st2" d="M5764.3,655.7v594.5l144.2-594.5l-35.5-12.9L5764.3,655.7z"/>
	<path class="st3" d="M5908.5,655.6v594.6h91.5V655.6l-45.2-61.8L5908.5,655.6z"/>
	<path class="st0" d="M5764.3,655.6l14.1,0h130.1l46.3-61.8h-143.7L5764.3,655.6z"/>
	<path class="st4" d="M5938,755.5h36.6v-65.7H5938V755.5z"/>
	<path class="st4" d="M5938,864.8h36.6v-65.7H5938V864.8z"/>
	<path class="st4" d="M5938,974.2h36.6v-65.7H5938V974.2z"/>
	<path class="st4" d="M5938,1083.5h36.6v-65.7H5938V1083.5z"/>
	<path class="st4" d="M5938,1192.8h36.6v-65.7H5938V1192.8z"/>
	<path class="st4" d="M5849.5,755.5h36.6v-65.7h-36.6V755.5z"/>
	<path class="st4" d="M5849.5,864.8h36.6v-65.7h-36.6V864.8z"/>
	<path class="st4" d="M5849.5,974.2h36.6v-65.7h-36.6V974.2z"/>
	<path class="st4" d="M5849.5,1083.5h36.6v-65.7h-36.6V1083.5z"/>
	<path class="st4" d="M5849.5,1192.8h36.6v-65.7h-36.6V1192.8z"/>
	<path class="st4" d="M5785.6,755.5h36.6v-65.7h-36.6V755.5z"/>
	<path class="st4" d="M5785.6,864.8h36.6v-65.7h-36.6V864.8z"/>
	<path class="st4" d="M5785.6,974.2h36.6v-65.7h-36.6V974.2z"/>
	<path class="st4" d="M5785.6,1083.5h36.6v-65.7h-36.6V1083.5z"/>
	<path class="st4" d="M5785.6,1192.8h36.6v-65.7h-36.6V1192.8z"/>
	<path class="st5" d="M2891,1625.7c4.5-3.9-52.8-56.4-52.8-56.4l-71,67.4l157.4,181.7c0,0,29.9,4.2,11.3-26.3
		C2914.4,1756.9,2861.6,1651.2,2891,1625.7"/>
	<path class="st6" d="M2890.9,1766.4l-74.3-85.7l-41-47.3c-2.4-2.7-6.5-3-9.3-0.7c-2.8,2.4-3,6.5-0.7,9.3l41,47.3l74.3,85.7l41,47.3
		c2.4,2.7,6.5,3,9.3,0.7c2.7-2.4,3-6.5,0.7-9.3L2890.9,1766.4z"/>
	<path class="st5" d="M3590.8,1502c-40.1-9.8-152.1-47.3-149.2-86.2c0.4-5.9-77.2-2.8-77.2-2.8l-2.8,97.8l239.8,17.7
		C3601.4,1528.5,3625.6,1510.4,3590.8,1502"/>
	<path class="st6" d="M3603.2,1520.1l-62.4-4.6l-113.1-8.4l-62.4-4.6c-3.6-0.3-6.8,2.5-7,6.1c-0.3,3.6,2.5,6.8,6.1,7l62.4,4.6
		l113.1,8.3l62.4,4.6c3.6,0.3,6.8-2.5,7-6.1C3609.5,1523.5,3606.8,1520.4,3603.2,1520.1"/>
	<g>
		<path class="st7" d="M3113.9,902.4c-7.9-35.2-42.9-57.3-78.1-49.4c-35.2,7.9-57.3,42.9-49.4,78.1c0.2,0.8,18.5,83.1,25.8,180.9
			c4.1,56.1,3.8,105.6-1,147.1c-6.7,57.5-20.7,87.5-31.3,102.6c-59.8,85.4-138.5,176-186.5,229.2l114.9,67.7
			c50.4-56.7,121.6-140.4,178.7-222c15.2-21.7,27.6-47.9,36.8-77.8c7.8-25.1,13.5-53.6,17.2-84.6c5.8-49.7,6.3-107.5,1.6-171.9
			C3134.6,995,3114.7,906.1,3113.9,902.4"/>
		<path class="st7" d="M2969.7,912.5c0,0-21.2,43.3-2,103.8c14.3,44.9,89.6,101.7,89.6,101.7l258.3-121.7l-129.5-223L2969.7,912.5z"
			/>
		<path class="st7" d="M3520.2,1037.7l-307.4-134.1c-33.1-14.4-71.6,0.7-86,33.7c-14.4,33.1,0.7,71.6,33.7,86l257.6,112.4
			l-70.4,303.3c-0.2,0.9-0.4,1.9-0.6,2.8l133.3,3.1l77.2-332.6C3564.8,1081.6,3549,1050.2,3520.2,1037.7"/>
	</g>
	<path class="st8" d="M3620.8,848.4l-1.4-0.4l21.4,38.1l67.1,7.6l-35.6-34.9L3620.8,848.4z"/>
	<path class="st8" d="M3709.5,894.9c-2.9-4.8-9.2-6.3-14-3.4c-4.8,2.9-6.3,9.2-3.4,14l22.7,37.2c2.9,4.8,9.2,6.3,14,3.4
		c4.8-2.9,6.3-9.2,3.4-14L3709.5,894.9z"/>
	<path class="st8" d="M3704,890l-39.8-17.7c-5.1-2.3-11.2,0-13.4,5.2c-2.3,5.1,0,11.1,5.1,13.4l39.7,17.7c5.1,2.3,11.1,0,13.4-5.1
		C3711.4,898.3,3709.1,892.3,3704,890"/>
	<path class="st8" d="M3627.4,862.4l-18.9,6l-12.7,11.5l-35.8-4.1c0,0,28.8,42.6,41.7,48.5c12.9,5.9,12,6.3,22,6.6
		c22.9,0.8,5.6-25.3,5.6-25.3L3650,891l22.6,36.7l18.9-6.7l-17.1-43L3627.4,862.4z"/>
	<path class="st8" d="M3682.5,915.1c-5.6,0-10.2,4.5-10.2,10.1l-0.4,43.5c0,5.6,4.5,10.2,10.1,10.3c5.6,0,10.2-4.5,10.2-10.1
		l0.4-43.5C3692.7,919.8,3688.2,915.2,3682.5,915.1"/>
	<path class="st8" d="M3658.4,919.1c-5.6,0-10.2,4.5-10.3,10.1l-0.4,43.5c0,5.6,4.5,10.2,10.1,10.3c5.6,0,10.2-4.5,10.3-10.1
		l0.4-43.5C3668.5,923.7,3664,919.1,3658.4,919.1"/>
	<path class="st8" d="M3634.2,917.1c-5.6,0-10.2,4.5-10.3,10.1l-0.3,35.3c0,5.6,4.5,10.2,10.1,10.3c5.6,0,10.2-4.5,10.2-10.1
		l0.3-35.3C3644.3,921.7,3639.8,917.1,3634.2,917.1"/>
	<path class="st8" d="M3630.8,886.5l20.4,49.2l17.2-7.5l-11.2-55.4L3630.8,886.5z"/>
	<path class="st8" d="M3603.4,905.2l24.5,29l16.4-8l-11.3-53.5L3603.4,905.2z"/>
	<path class="st9" d="M3677.9,964l0.2,5.8c0.1,3,2.9,5.3,6.2,5.2c3.3-0.1,5.9-2.6,5.8-5.6l-0.2-5.8
		C3689.9,960.5,3677.8,961,3677.9,964"/>
	<path class="st9" d="M3727.3,928.7c-1.6-2.5-11.8,3.9-10.2,6.4l3.1,4.9c1.6,2.5,5.2,3.2,8,1.4c2.8-1.8,3.8-5.3,2.2-7.8
		L3727.3,928.7z"/>
	<path class="st9" d="M3653.7,966.6l0.2,5.8c0.1,3,2.9,5.3,6.2,5.2c3.3-0.1,5.9-2.6,5.8-5.6l-0.2-5.8
		C3665.7,963.2,3653.6,963.6,3653.7,966.6"/>
	<path class="st9" d="M3629.1,958l0.2,5.8c0.1,3,2.9,5.3,6.2,5.2c3.3-0.1,5.9-2.6,5.8-5.6l-0.2-5.8C3641,954.6,3629,955,3629.1,958"
		/>
	<path class="st8" d="M3704.1,892.6l-10.8,7.6c-0.4,0.3-0.5,0.8-0.2,1.3c0.3,0.4,0.8,0.5,1.2,0.2l10.8-7.6c0.4-0.3,0.5-0.8,0.2-1.3
		C3705.1,892.4,3704.5,892.3,3704.1,892.6"/>
	<path class="st8" d="M3706.5,896.2l-6.7,4.7c-0.4,0.3-0.5,0.9-0.2,1.2c0.3,0.4,0.8,0.5,1.2,0.2l6.7-4.7c0.4-0.3,0.5-0.8,0.2-1.2
		C3707.4,896,3706.9,895.9,3706.5,896.2"/>
	<path class="st9" d="M3688.3,923.8l-8.1,0.5c-0.5,0-0.9,0.5-0.8,1c0,0.5,0.5,0.9,0.9,0.8l8.1-0.5c0.5,0,0.9-0.5,0.8-1
		C3689.2,924.1,3688.8,923.7,3688.3,923.8"/>
	<path class="st9" d="M3663.9,925l-8.1,0.5c-0.5,0-0.9,0.5-0.8,0.9c0,0.5,0.5,0.9,0.9,0.8l8.1-0.5c0.5,0,0.9-0.5,0.8-1
		C3664.8,925.4,3664.4,925,3663.9,925"/>
	<path class="st8" d="M3649.7,854.9l-79.9-18.4l-40.9,19.4l7.6,40.1l69.1,29.8c11,5.6,40-6.9,48.7-23.9
		C3662.9,885,3660.7,860.6,3649.7,854.9"/>
	<path class="st10" d="M3491.1,788.2c-72.8-29.8-128-65.4-159.6-103c-30.2-35.9-44.9-78.4-51.6-108.4c-7.6-34.4-7.4-60.2-7.4-60.5
		l0,0.2c0,0-6.4-47-61.2-44.4c-45.6,2.2-47.2,42.1-47.2,42.1c-0.1,3.7,0,36.2,9.6,81.4c5.7,27,13.9,52.9,24.3,76.9
		c13.3,30.7,30.3,58.4,50.4,82.4c24.6,29.3,57.6,56.8,97.9,81.7c11.3,7,23.2,13.8,35.7,20.3c21.6,11.4,44.9,22.2,69.7,32.3
		c65.7,26.7,119.4,39.2,121.7,39.8l39.4-101l-15-4.6C3597.5,823.3,3549.1,811.9,3491.1,788.2"/>
	<path class="st11" d="M3573.6,928.9l10.2-26.2l-11.4,26C3573,928.8,3573.4,928.9,3573.6,928.9"/>
	<path class="st11" d="M3211.5,472c-45.6,2.2-47.2,42.1-47.2,42.1c-0.1,3.7,0,36.2,9.6,81.4c0.1,0.6,0.3,1.2,0.4,1.7
		c-6.4-41.6-5.2-70.7-5-74.2c0,0,3.3-39.8,48.9-40.1c31.8-0.2,46.6,15.5,53.5,28.8C3268.3,500.1,3255.7,469.9,3211.5,472"/>
	<path class="st12" d="M3215.3,266.6l-35.4-3.1c-22.6-2-41.9,6.7-43,19.5l-14.5,166.7c-1.1,12.7,16.3,24.6,39,26.6l35.4,3.1
		c22.6,2,41.9-6.7,43-19.5l14.5-166.7C3255.4,280.5,3237.9,268.6,3215.3,266.6"/>
	<path class="st13" d="M3313.1,300.1c-3.6-0.3-11.4,3.9-13.4,7.7c4.1,1.8,6.8,6,6.4,10.6c-0.4,4.7-3.9,8.5-8.3,9.4
		c1,4,8.3,9.1,12.1,9.4c4.1,0.4,7.8-2.7,8.1-6.8l4.1-17.9C3323.5,304.7,3317.3,300.5,3313.1,300.1"/>
	<path class="st8" d="M3167.9,378.5c-1.8,20.4,22.6,53,63.2,56.5c44.2,3.9,83.1-23.3,84.9-43.6l15.5-177.9l-148.1-12.9L3167.9,378.5
		z"/>
	<path class="st14" d="M3145.7,201.1c-1.7,9.7,0.1,21,7.9,25.6c16.8,10,34.3-3.7,73.1,10.6c27.7,10.2,54,19.2,78.1,18.1
		c9.7-0.4,17.6-4.3,23.8-9.9l2.8-32l-185.1-16.1L3145.7,201.1z"/>
	<path class="st12" d="M3218.3,282.3c-7.7-0.7-20.3,5-20.3,19.9l1.7,34.1c-0.7,7.7,5,14.4,12.7,15.1c7.7,0.7,25-7.8,25.7-15.4
		l2.7-32.3C3241.3,296,3226,283,3218.3,282.3"/>
	<path class="st12" d="M3300.7,347.9c-0.4,4.6,6,8.9,14.2,9.6c1.4,0.1,2.7,0.1,3.9,0l1.4-16.1c-1.2-0.3-2.5-0.5-3.9-0.6
		C3308.2,340.2,3301.1,343.4,3300.7,347.9"/>
	<path class="st8" d="M3321,264.6l-27.6,83.4c0,0,10.8,2.1,14,2.4c8.8,0.8,25.6,1.5,28.8-3.6c5.1-8-2.8-24.4-7.4-41.8
		C3323.5,285.1,3321,264.6,3321,264.6"/>
	<path class="st9" d="M3321.8,270.8c0,10.7,0.6,24.6,3.4,35.1c4.6,17.3,10.4,33.3,5.3,41.3c-1.2,1.9-4.3,3-8.2,3.6
		c6.3-0.3,12-1.3,13.8-4.1c5.1-8-2.8-24.4-7.4-41.8C3325.3,291.8,3323,278.4,3321.8,270.8"/>
	<path class="st5" d="M3293.3,278.1c-4.8-0.4-8.9,3.1-9.4,7.9c-0.4,4.8,3.1,9,7.9,9.4s8.9-3.1,9.4-7.9
		C3301.5,282.7,3298,278.5,3293.3,278.1"/>
	<path class="st14" d="M3283.7,368.2c5.8,8.5,17.9,15.2,32.8,17.5l0.9-10.7c-12.3-1.3-23.7-3.7-33.6-6.9L3283.7,368.2z"/>
	<path class="st14" d="M3304.8,262.6l-22.6-2c-2.2-0.2-4.2,1.5-4.4,3.7c-0.2,2.2,1.5,4.2,3.7,4.4l22.6,2c2.2,0.2,4.2-1.5,4.4-3.7
		C3308.7,264.8,3307.1,262.8,3304.8,262.6"/>
	<path class="st5" d="M3201.8,189.9c1-11-31-1.8-42-2.7c-11-1-37.4,2.1-36.8,29.7l3.9,118.5c-0.5,6.2,7.2,15.4,15,13.6
		c6-1.4,76.2-30.4,76.6-35.2c0,0,15.8-82.2,27.4-110.8C3257.3,174.3,3201.8,189.9,3201.8,189.9"/>
	<path class="st8" d="M3220.6,276c-7.7-0.7-20.3,5-20.3,19.9l1.7,34.1c-0.7,7.7,5,14.4,12.7,15.1c7.7,0.7,25-7.8,25.7-15.4l2.7-32.3
		C3243.6,289.7,3228.2,276.7,3220.6,276"/>
	<path class="st14" d="M3233.9,302.1c-1.3-4.1-8.2-9.6-11.8-9.9c-4.1-0.4-11,2.7-11,10.7l0.9,18.4c-0.4,4.1,2.7,7.8,6.8,8.1
		c3.8,0.3,11.8-3.4,13.5-7.2c-4.2-1.7-7-6-6.6-10.7C3226.2,306.8,3229.6,303.2,3233.9,302.1"/>
	<path class="st6" d="M3354.4,167.7c-14.4-2-2.7,14.9-49.9,10.8c-13.7-1.2-34.7-9.2-55.7-17c-70.3-25.9-91,2.1-94.6,10
		c-2.1,4.8-3.5,9.9-3.7,14.5c-0.3,6.7-1.6,25.7,13.8,36.4c16.1,11.2,30.3-6.7,70.2,4c28.5,7.6,55.5,14.2,79.4,11
		C3357,231.5,3368.7,169.7,3354.4,167.7"/>
	<path class="st15" d="M2738,906.8c-2.8-1.9-9.1-6.8-16.4,0.7c-4.3,4.4-2.2,11.8-0.1,16.2c1.1,2.3,2.4,3.6,2.4,3.6l18.3,21.6
		c0,0-3,9.5-6.1,25.2c-3.1,15.7,8.8,22.6,8.8,22.6l19-44.7l-14.7-36.1C2749.2,915.8,2742.8,909.9,2738,906.8"/>
	<path class="st5" d="M2476.6,1185.5c-2,8.1,3,16.3,11.1,18.2l284.1,69.1c8.1,2,16.3-3,18.2-11.1l35.9-147.4l-313.4-76.3
		L2476.6,1185.5z"/>
	<path class="st11" d="M2733.1,976.8l-71.7-17.4c-24.5-6-49.3,9.1-55.3,33.7l-1.5,6.1l24.5,6l1.5-6.1c2.7-11,13.8-17.8,24.8-15.1
		l71.7,17.4c11,2.7,17.8,13.8,15.1,24.8l-1.5,6.1l24.5,6l1.5-6.1C2772.7,1007.6,2757.6,982.8,2733.1,976.8"/>
	<path class="st16" d="M2733.1,976.8l-71.7-17.4c-24.5-6-49.3,9.1-55.3,33.7l-1.5,6.1l0.1,0c7.4-22.4,31-35.8,54.3-30.2l71.7,17.4
		c23.3,5.7,38.1,28.4,34.4,51.7l0.1,0l1.5-6.1C2772.7,1007.6,2757.6,982.8,2733.1,976.8"/>
	<path class="st6" d="M2503.6,1074.6c21.9,8.3,105.8,38,162,52.5c55.3,14.3,130,22.4,151.4,24.1l9-36.8l-313.4-76.3L2503.6,1074.6z"
		/>
	<path class="st5" d="M2833.1,1048l-296.5-72.2c-8.5-2.1-17,3.1-19.1,11.6l-17.3,71.2c0,0,101.5,37.8,168.6,55.1
		c67.1,17.3,158.6,24.6,158.6,24.6l17.3-71.2C2846.8,1058.6,2841.6,1050.1,2833.1,1048"/>
	<path class="st6" d="M2677.8,1098.7l-23.4-5.7c-4.6-1.1-9.3,1.7-10.4,6.3l-8.5,34.9c-1.1,4.6,1.7,9.3,6.3,10.4l23.4,5.7
		c4.6,1.1,9.3-1.7,10.4-6.3l8.5-34.9C2685.3,1104.5,2682.5,1099.9,2677.8,1098.7"/>
	<path class="st16" d="M2679.3,1092.6l-23.4-5.7c-4.6-1.1-9.3,1.7-10.4,6.3l-8.5,34.9c-1.1,4.6,1.7,9.3,6.3,10.4l23.4,5.7
		c4.6,1.1,9.3-1.7,10.4-6.3l8.5-34.9C2686.8,1098.4,2684,1093.7,2679.3,1092.6"/>
	<path class="st11" d="M2647.1,1129.1l20.6,5l7.8-32.2l-20.6-5L2647.1,1129.1z"/>
	<path class="st17" d="M2670.6,914.3c-6.9-1.6-13.5,1.3-14.6,6.5l-12.4,56.9c-1.1,5.2,3.6,10.7,10.5,12.3c6.9,1.6,13.5-1.3,14.6-6.5
		l12.5-56.9C2682.2,921.4,2677.5,915.9,2670.6,914.3"/>
	<path class="st15" d="M2672.4,955.7l-10,34c3.2-1.1,5.7-3.3,6.3-6.2l8.2-32.2C2676,952.1,2672.7,954.5,2672.4,955.7"/>
	<path class="st17" d="M2711.9,893.2c-26.2-6-50.8,5-55.1,24.5l-6,27.5l94.7,21.8l6-27.6C2755.8,919.9,2738,899.2,2711.9,893.2"/>
	<path class="st17" d="M2691.9,925.1c-6.9-1.6-13.5,1.3-14.6,6.5l-12.5,56.9c-1.1,5.2,3.6,10.7,10.5,12.3c6.9,1.6,13.5-1.3,14.6-6.5
		l12.4-56.9C2703.5,932.2,2698.8,926.7,2691.9,925.1"/>
	<path class="st15" d="M2683.6,1000.6c3.2-1.1,5.7-3.3,6.3-6.3l8.2-32.2c-0.8,0.9-1.4,1.9-1.8,3.1L2683.6,1000.6z"/>
	<path class="st17" d="M2713.9,934.2c-6.9-1.6-13.5,1.3-14.6,6.5l-12.5,56.9c-1.1,5.2,3.6,10.7,10.5,12.3c6.9,1.6,13.5-1.3,14.6-6.5
		l12.5-56.9C2725.6,941.3,2720.9,935.8,2713.9,934.2"/>
	<path class="st15" d="M2705.7,1009.6c3.2-1.1,5.7-3.3,6.3-6.3l8.2-32.2c-0.8,0.9-1.4,1.9-1.8,3.1L2705.7,1009.6z"/>
	<path class="st17" d="M2740,931.6c-6.9-1.6-13.5,1.3-14.6,6.5L2712,1003c-1.1,5.2,3.6,10.7,10.5,12.3c6.9,1.6,13.5-1.3,14.6-6.5
		l13.4-64.9C2751.7,938.7,2747,933.2,2740,931.6"/>
	<path class="st18" d="M2736.2,985.6l-15.8-3.6c-0.5-0.1-1,0.1-1.1,0.5c-0.1,0.4,0.3,0.8,0.8,0.9l15.8,3.6c0.5,0.1,1-0.1,1.1-0.5
		C2737.1,986.1,2736.7,985.7,2736.2,985.6"/>
	<path class="st18" d="M2733,981.4l-7.8-1.8c-0.4-0.1-0.9,0.1-0.9,0.4c-0.1,0.3,0.2,0.7,0.7,0.8l7.8,1.8c0.4,0.1,0.9-0.1,0.9-0.4
		C2733.7,981.9,2733.4,981.5,2733,981.4"/>
	<path class="st18" d="M2706.7,978.2l-7.8-1.8c-0.4-0.1-0.9,0.1-0.9,0.4c-0.1,0.3,0.2,0.7,0.7,0.8l7.8,1.8c0.4,0.1,0.9-0.1,0.9-0.4
		C2707.4,978.7,2707.1,978.3,2706.7,978.2"/>
	<path class="st18" d="M2683.8,972.6l-7.7-2.3c-0.4-0.1-0.9,0-1,0.3c-0.1,0.3,0.2,0.7,0.6,0.8l7.7,2.3c0.4,0.1,0.9,0,1-0.4
		C2684.5,973.1,2684.3,972.8,2683.8,972.6"/>
	<path class="st17" d="M2673.3,898l72.1,17.6l10.9-44.8l-72.1-17.6L2673.3,898z"/>
	<g>
		<path class="st19" d="M3491.1,788.2c-72.8-29.8-128-65.4-159.6-103c-29.6-35.3-44.4-76.8-51.2-106.8c0.5,3.9,1.2,7.9,1.9,12.1
			c5.4,30.3,18.4,73.3,47.1,110.5c30,38.9,83.7,76.8,155.2,109.5c56.9,26.1,104.8,39.4,105.3,39.6l12.8,4.5L3613,828l-15-4.6
			C3597.5,823.3,3549.1,811.9,3491.1,788.2"/>
		<path class="st19" d="M3160.9,438c-50.3-4.4-95.3,2.7-121.1,16.9c-13.6,7.5-21.8,16.9-22.8,27.7l-55.4,465.9l304.1-35.1
			l-17.9-74.7l39.8-248c0,0,6-46.8-8.6-78.2C3258.1,467.7,3237.6,444.7,3160.9,438"/>
		<path class="st19" d="M3029.7,450.5c-4.3,0.8-43.3,8.6-95.2,34.4c-30.5,15.2-59.4,33.6-86,54.7c-33.3,26.5-63.1,57.4-88.5,91.8
			c-21.6,29.3-44.1,79.6-68.9,153.8c-17.3,51.9-29,95.9-29.5,97.8c-0.5,1.8-0.9,3.7-1.2,5.5l109.7,30.4c0.8-2.1,1.6-4.3,2.2-6.5
			c0.1-0.4,11.3-42.4,27.5-91c28-84,45.9-113.3,52.4-122c34.4-46.7,78.1-83.8,129.8-110.2c39.4-20.1,69-26.2,69.3-26.3l-0.3,0.1
			c0,0,48.8-21.2,36.7-70.7C3074.4,438.7,3029.7,450.5,3029.7,450.5"/>
	</g>
	<path class="st2" d="M3980.8,1356.3h-327.7v156.1h-327.7v156.1h-327.7v0v156.1h-327.7v156.1h-287.5v19.3h418.1v-19.3v-25.5h197.1
		h130.6v-130.6v-25.5h197.1H3456v-130.6V1643h197.1h130.6v-130.6v-25.5h197.1h130.6v-130.6v-25.5H6000v-130.6H3980.8V1356.3z"/>
	<path class="st19" d="M1069,1319.5c-99.8,0-180.7-80.9-180.7-180.7c0-99.8,80.9-180.7,180.7-180.7c99.8,0,180.7,80.9,180.7,180.7
		C1249.7,1238.6,1168.8,1319.5,1069,1319.5 M1512.3,1004.4c-10-33-23.5-64.4-40.2-93.8l93.6-92.2
		c-45.7-70.7-106.1-131.1-176.9-176.7l-101.4,88.6c-29.8-16-61.5-28.7-94.7-37.9l1-131.4c-40.2-8.6-81.9-13.2-124.7-13.2
		c-43,0-84.9,4.6-125.3,13.4l-9,134.4c-33,10-64.4,23.5-93.8,40.2L748.6,642c-70.7,45.7-131.1,106.1-176.7,176.9l88.6,101.4
		c-16,29.8-28.8,61.5-37.9,94.7l-131.4-1c-8.6,40.2-13.2,81.9-13.2,124.7c0,43,4.6,84.9,13.4,125.3l134.4,9
		c10,33,23.5,64.4,40.2,93.8l-93.6,92.2c45.7,70.7,106.1,131.1,176.9,176.7l101.4-88.6c29.8,16,61.5,28.8,94.7,37.9l-1,131.4
		c40.2,8.6,81.9,13.3,124.7,13.3c43,0,84.9-4.6,125.3-13.4l9-134.4c33-10,64.4-23.5,93.8-40.2l92.2,93.6
		c70.7-45.7,131.1-106.1,176.7-176.9l-88.6-101.4c16-29.8,28.8-61.5,37.9-94.7l131.4,1c8.6-40.2,13.3-81.9,13.3-124.7
		c0-43-4.6-85-13.4-125.3L1512.3,1004.4z"/>
	<path class="st10" d="M1069,1312.3c-95.8,0-173.5-77.7-173.5-173.5c0-95.8,77.7-173.5,173.5-173.5c95.8,0,173.5,77.7,173.5,173.5
		C1242.5,1234.6,1164.8,1312.3,1069,1312.3 M1069,847.1c-161,0-291.6,130.6-291.6,291.6S908,1430.4,1069,1430.4
		c161,0,291.6-130.6,291.6-291.6S1230,847.1,1069,847.1"/>
	<path class="st20" d="M1565.8,524.5c-27.7,24.8-70.3,22.5-95.1-5.3c-24.8-27.7-22.4-70.3,5.3-95.1c27.7-24.8,70.3-22.4,95.1,5.3
		C1595.9,457.1,1593.5,499.7,1565.8,524.5 M1635.1,445.6c-1.7-6.7-4-13.4-6.9-19.8l34-38.1c-5.1-8.4-11.1-16.4-17.8-23.9
		c-6.8-7.5-14-14.3-21.7-20.3l-41.3,29.8c-6.1-3.6-12.4-6.6-18.9-9.1l-2.9-51c-19.4-4.6-39.5-5.8-59.3-3.3l-8.1,50.3
		c-6.7,1.7-13.4,4-19.8,6.9l-38.1-34c-8.4,5.1-16.4,11.1-23.9,17.8c-7.5,6.8-14.3,14-20.3,21.7l29.8,41.3
		c-3.6,6.1-6.6,12.4-9.1,18.9l-51,2.9c-4.6,19.4-5.8,39.5-3.3,59.3l50.3,8.1c1.7,6.7,4,13.4,6.9,19.8l-34,38.1
		c5.1,8.3,11.1,16.4,17.8,23.9c6.7,7.5,14,14.3,21.7,20.3l41.3-29.8c6.1,3.6,12.4,6.6,18.9,9.1l2.9,51c19.4,4.6,39.5,5.7,59.3,3.3
		l8.1-50.2c6.7-1.7,13.4-4,19.8-6.9l38.1,34c8.4-5.1,16.4-11.1,23.9-17.8c7.5-6.7,14.3-14,20.3-21.7l-29.8-41.3
		c3.6-6.1,6.6-12.4,9.1-18.9l51-2.9c4.6-19.4,5.8-39.5,3.3-59.3L1635.1,445.6z"/>
	<path class="st7" d="M1898.9,920.9c-63.5,28.9-138.5,0.7-167.3-62.8c-28.9-63.5-0.7-138.5,62.8-167.3
		c63.6-28.9,138.5-0.7,167.3,62.8C1990.6,817.1,1962.4,892,1898.9,920.9 M2067.8,778.2l80.6-48.2c-4.5-17.8-10.6-35.5-18.5-52.9
		c-7.8-17.3-17.1-33.5-27.5-48.6l-88.8,29.5c-9.2-10.4-19.3-19.8-30.1-28.2l22.9-91c-32.1-19.2-67.5-32.5-104.3-39.2l-41.9,83.6
		c-13.7-0.9-27.5-0.5-41.2,1.3l-48.2-80.6c-17.8,4.5-35.5,10.6-52.9,18.5c-17.3,7.8-33.5,17.1-48.6,27.5l29.5,88.8
		c-10.4,9.2-19.8,19.3-28.2,30.1l-91-22.9c-19.2,32.1-32.5,67.5-39.2,104.3l83.6,41.9c-0.9,13.7-0.5,27.5,1.3,41.2l-80.6,48.2
		c4.5,17.8,10.6,35.5,18.5,52.9c7.9,17.3,17.1,33.5,27.5,48.6l88.8-29.5c9.2,10.4,19.3,19.8,30.1,28.2l-22.9,91
		c32.1,19.2,67.5,32.5,104.3,39.2l41.9-83.6c13.7,0.8,27.5,0.5,41.3-1.3l48.2,80.6c17.8-4.5,35.5-10.6,52.9-18.5
		c17.3-7.8,33.5-17.1,48.6-27.5l-29.5-88.8c10.4-9.2,19.8-19.3,28.2-30.1l91,22.9c19.2-32.1,32.5-67.5,39.2-104.3l-83.6-41.9
		C2070,805.8,2069.6,792,2067.8,778.2"/>
</g>
</svg>
