<?xml version="1.0" encoding="utf-8"?>
<svg version="1.1" id="Livello_1" xmlns="http://www.w3.org/2000/svg" xmlns:xlink="http://www.w3.org/1999/xlink" x="0px" y="0px"
	 viewBox="0 0 5898.5 2345.8" style="enable-background:new 0 0 5898.5 2345.8;" xml:space="preserve">

  <style type="text/css">
  	.st0{fill:#1F5385;}
  	.st1{fill:#955F31;}
  	.st2{fill:#FEE064;}
  	.st3{fill:#BF3333;}
  	.st4{fill:#FB885E;}
  	.st5{fill:#58CAD3;}
  	.st6{fill:#2F8EED;}
  	.st7{fill:#FBCAA8;}
  	.st8{fill:#BC8655;}
  	.st9{fill:#E8D3B8;}
  	.st10{fill:#F3C2A5;}
  	.st11{fill:#E1AE94;}
  	.st12{fill:#9E7042;}
  	.st13{fill:#FFD9C3;}
  	.st14{fill:#FAF0E3;}
  	.st15{fill:#FFF3CD;}
  	.st16{font-family:'ArialMT';}
  	.st17{font-size:12px;}
  	.st18{fill:#FFF3CD;stroke:#BABDB6;stroke-linecap:round;}
  	.st19{fill:#595959;}
  	.st20{fill:#FFFFFF;stroke:#242424;stroke-width:10;stroke-linejoin:bevel;}
  	.st21{fill:#242424;}
  	.st22{font-family:'AnimeAce2.0BB';}
  	.st23{font-size:180px;}
  </style>

  <!-- Layer 0 -->
  <g>
  	<path class="st0" d="M-58.1,2449.4h6009.2V-62.1H-58.1V2449.4z"/>
  </g>
  <g>
  	<g>
  		<g>
  			<path class="st1" d="M4330.7,586.9h480v410h-480V586.9z"/>
  			<path class="st2" d="M4783.7,613.9v356.5h-48.4l-9.1-118.9c17-14.2,27.9-35.5,27.9-59.4c0-42.7-34.6-77.2-77.2-77.2
  				c-42.7,0-77.2,34.6-77.2,77.2c0,23.9,10.8,45.2,27.9,59.4l-9.1,118.9H4356V613.9H4783.7z M4587.4,764.2h-192v28h192V764.2z
  				 M4587.7,716.2h-192v28h192V716.2z M4587.7,667.9h-192v28h192V667.9z"/>
  		</g>
  		<path class="st3" d="M4676.8,732.7c32.8,0,59.4,26.6,59.4,59.4c0,32.8-26.6,59.4-59.4,59.4s-59.4-26.6-59.4-59.4
  			S4644,732.7,4676.8,732.7z"/>
  		<path class="st4" d="M4713.1,860.3l11.3,157.6l-47.5-23.8l-47.5,23.8l11.3-157.6c10.8,5.8,23.2,9.1,36.3,9.1
  			C4689.9,869.3,4702.2,866,4713.1,860.3z"/>
  	</g>
  </g>
  <g>
  	<path class="st5" d="M1503.9,1174.8h-40.4c-9.7,0-17.5,7.8-17.5,17.5s7.8,17.5,17.5,17.5h40.4c9.7,0,17.5-7.8,17.5-17.5
  		C1521.4,1182.6,1513.6,1174.8,1503.9,1174.8"/>
  	<path class="st5" d="M1301.7,1174.8h-40.4c-9.7,0-17.5,7.8-17.5,17.5s7.8,17.5,17.5,17.5h40.4c9.7,0,17.5-7.8,17.5-17.5
  		C1319.2,1182.6,1311.4,1174.8,1301.7,1174.8"/>
  	<path class="st5" d="M1402.8,1174.8h-40.4c-9.7,0-17.5,7.8-17.5,17.5s7.8,17.5,17.5,17.5h40.4c9.7,0,17.5-7.8,17.5-17.5
  		C1420.3,1182.6,1412.5,1174.8,1402.8,1174.8"/>
  	<path class="st5" d="M1908.4,1174.8H1868c-9.7,0-17.5,7.8-17.5,17.5s7.8,17.5,17.5,17.5h40.4c9.7,0,17.5-7.8,17.5-17.5
  		C1925.9,1182.6,1918.1,1174.8,1908.4,1174.8"/>
  	<path class="st5" d="M1200.6,1174.8h-40.4c-9.7,0-17.5,7.8-17.5,17.5s7.8,17.5,17.5,17.5h40.4c9.7,0,17.5-7.8,17.5-17.5
  		C1218.1,1182.6,1210.3,1174.8,1200.6,1174.8"/>
  	<path class="st6" d="M1605.1,1174.8h-40.4c-9.7,0-17.5,7.8-17.5,17.5s7.8,17.5,17.5,17.5h40.4c9.7,0,17.5-7.8,17.5-17.5
  		C1622.6,1182.6,1614.7,1174.8,1605.1,1174.8"/>
  	<path class="st6" d="M1807.3,1174.8h-40.4c-9.7,0-17.5,7.8-17.5,17.5s7.8,17.5,17.5,17.5h40.4c9.7,0,17.5-7.8,17.5-17.5
  		C1824.8,1182.6,1816.9,1174.8,1807.3,1174.8"/>
  	<path class="st6" d="M1706.2,1174.8h-40.4c-9.7,0-17.5,7.8-17.5,17.5s7.8,17.5,17.5,17.5h40.4c9.7,0,17.5-7.8,17.5-17.5
  		C1723.7,1182.6,1715.8,1174.8,1706.2,1174.8"/>
  	<path class="st5" d="M1099.5,1174.8H1059c-9.7,0-17.5,7.8-17.5,17.5s7.8,17.5,17.5,17.5h40.4c9.7,0,17.5-7.8,17.5-17.5
  		C1117,1182.6,1109.1,1174.8,1099.5,1174.8"/>
  	<path class="st5" d="M2009.5,1174.8h-40.4c-9.7,0-17.5,7.8-17.5,17.5s7.8,17.5,17.5,17.5h40.4c9.7,0,17.5-7.8,17.5-17.5
  		C2027,1182.6,2019.2,1174.8,2009.5,1174.8"/>
  	<path class="st6" d="M3222.9,1174.8h-40.4c-9.7,0-17.5,7.8-17.5,17.5s7.8,17.5,17.5,17.5h40.4c9.7,0,17.5-7.8,17.5-17.5
  		C3240.4,1182.6,3232.5,1174.8,3222.9,1174.8"/>
  	<path class="st6" d="M3324,1174.8h-40.4c-9.7,0-17.5,7.8-17.5,17.5s7.8,17.5,17.5,17.5h40.4c9.7,0,17.5-7.8,17.5-17.5
  		C3341.5,1182.6,3333.7,1174.8,3324,1174.8"/>
  	<path class="st5" d="M3020.7,1174.8h-40.4c-9.7,0-17.5,7.8-17.5,17.5s7.8,17.5,17.5,17.5h40.4c9.7,0,17.5-7.8,17.5-17.5
  		C3038.2,1182.6,3030.3,1174.8,3020.7,1174.8"/>
  	<path class="st5" d="M3121.8,1174.8h-40.4c-9.7,0-17.5,7.8-17.5,17.5s7.8,17.5,17.5,17.5h40.4c9.7,0,17.5-7.8,17.5-17.5
  		C3139.3,1182.6,3131.4,1174.8,3121.8,1174.8"/>
  	<path class="st6" d="M3425.1,1174.8h-40.4c-9.7,0-17.5,7.8-17.5,17.5s7.8,17.5,17.5,17.5h40.4c9.7,0,17.5-7.8,17.5-17.5
  		C3442.6,1182.6,3434.8,1174.8,3425.1,1174.8"/>
  	<path class="st6" d="M3526.2,1174.8h-40.4c-9.7,0-17.5,7.8-17.5,17.5s7.8,17.5,17.5,17.5h40.4c9.7,0,17.5-7.8,17.5-17.5
  		C3543.7,1182.6,3535.9,1174.8,3526.2,1174.8"/>
  	<path class="st6" d="M3728.5,1174.8H3688c-9.7,0-17.5,7.8-17.5,17.5s7.8,17.5,17.5,17.5h40.4c9.7,0,17.5-7.8,17.5-17.5
  		C3746,1182.6,3738.1,1174.8,3728.5,1174.8"/>
  	<path class="st6" d="M3627.3,1174.8h-40.4c-9.7,0-17.5,7.8-17.5,17.5s7.8,17.5,17.5,17.5h40.4c9.7,0,17.5-7.8,17.5-17.5
  		C3644.8,1182.6,3637,1174.8,3627.3,1174.8"/>
  	<path class="st5" d="M2110.6,1174.8h-40.4c-9.7,0-17.5,7.8-17.5,17.5s7.8,17.5,17.5,17.5h40.4c9.7,0,17.5-7.8,17.5-17.5
  		C2128.1,1182.6,2120.3,1174.8,2110.6,1174.8"/>
  	<path class="st6" d="M2515.1,1174.8h-40.4c-9.7,0-17.5,7.8-17.5,17.5s7.8,17.5,17.5,17.5h40.4c9.7,0,17.5-7.8,17.5-17.5
  		C2532.6,1182.6,2524.7,1174.8,2515.1,1174.8"/>
  	<path class="st6" d="M2414,1174.8h-40.4c-9.7,0-17.5,7.8-17.5,17.5s7.8,17.5,17.5,17.5h40.4c9.7,0,17.5-7.8,17.5-17.5
  		C2431.5,1182.6,2423.6,1174.8,2414,1174.8"/>
  	<path class="st5" d="M2312.9,1174.8h-40.4c-9.7,0-17.5,7.8-17.5,17.5s7.8,17.5,17.5,17.5h40.4c9.7,0,17.5-7.8,17.5-17.5
  		C2330.4,1182.6,2322.5,1174.8,2312.9,1174.8"/>
  	<path class="st5" d="M2211.7,1174.8h-40.4c-9.7,0-17.5,7.8-17.5,17.5s7.8,17.5,17.5,17.5h40.4c9.7,0,17.5-7.8,17.5-17.5
  		C2229.2,1182.6,2221.4,1174.8,2211.7,1174.8"/>
  	<path class="st6" d="M2616.2,1174.8h-40.4c-9.7,0-17.5,7.8-17.5,17.5s7.8,17.5,17.5,17.5h40.4c9.7,0,17.5-7.8,17.5-17.5
  		C2633.7,1182.6,2625.9,1174.8,2616.2,1174.8"/>
  	<path class="st5" d="M2818.4,1174.8H2778c-9.7,0-17.5,7.8-17.5,17.5s7.8,17.5,17.5,17.5h40.4c9.7,0,17.5-7.8,17.5-17.5
  		C2835.9,1182.6,2828.1,1174.8,2818.4,1174.8"/>
  	<path class="st5" d="M2919.5,1174.8h-40.4c-9.7,0-17.5,7.8-17.5,17.5s7.8,17.5,17.5,17.5h40.4c9.7,0,17.5-7.8,17.5-17.5
  		C2937,1182.6,2929.2,1174.8,2919.5,1174.8"/>
  	<path class="st6" d="M2717.3,1174.8h-40.4c-9.7,0-17.5,7.8-17.5,17.5s7.8,17.5,17.5,17.5h40.4c9.7,0,17.5-7.8,17.5-17.5
  		C2734.8,1182.6,2727,1174.8,2717.3,1174.8"/>
  	<path class="st6" d="M3809.1,1174.8h-20c-9.7,0-17.5,7.8-17.5,17.5s7.8,17.5,17.5,17.5h20c9.7,0,17.5-7.8,17.5-17.5
  		C3826.6,1182.6,3818.8,1174.8,3809.1,1174.8"/>
  	<path class="st6" d="M3686.4,1005.9c-6.8-6.8-17.9-6.8-24.7,0s-6.8,17.9,0,24.7l161.6,161.6l-161.6,161.6c-6.8,6.8-6.8,17.9,0,24.8
  		c3.4,3.4,7.9,5.1,12.4,5.1s9-1.7,12.4-5.1l174-174c3.3-3.3,5.1-7.7,5.1-12.4c0-4.6-1.8-9.1-5.1-12.4L3686.4,1005.9z"/>
  	<path class="st4" d="M4811.4,1642.2h-483.5c-37.1,0-67.1,44.4-67.1,99.2l29.5,708.1h550.6l37.8-708.1
  		C4878.6,1686.6,4848.5,1642.2,4811.4,1642.2"/>
  	<path class="st3" d="M4439.3,1662c0,27.3,39.3,49.4,87.9,49.4h75.8c48.5,0,87.9-22.1,87.9-49.4v-19.8h-251.5L4439.3,1662
  		L4439.3,1662z"/>
  	<path class="st3" d="M4837.2,1647.3c-25.4-0.1-50.6,10.8-67.9,31.9c-30.6,37.3-25.2,92.3,12.1,122.9c0.4,0.3,40.4,33.8,82.8,90.5
  		l14.3-183.3C4878.6,1681.4,4861.5,1657.5,4837.2,1647.3"/>
  	<path class="st7" d="M4597.3,1532.2h-64.4c-41.2,0-74.6,18.8-74.6,41.9v80.7c0,23.2,33.4,41.9,74.6,41.9h64.4
  		c41.2,0,74.6-18.8,74.6-41.9v-80.7C4671.9,1551,4638.5,1532.2,4597.3,1532.2"/>
  	<path class="st8" d="M4712.3,1174.4c-20,0-76.4-21.7-76.4-1.7c0,0,29.9,19.6,46.4,73.2s16.5,147.4,16.5,147.4
  		c0,8.7,10,29.5,20.6,33c13.8,4.4,13.3,0.1,13.3-11.2l15.9-204.4C4748.6,1190.6,4732.3,1174.4,4712.3,1174.4"/>
  	<path class="st7" d="M4717.1,1325.5c-13.9,0-43.8,21.1-43.8,35l-0.1,58.8c0,13.9,30,31.9,43.9,31.9s25.2-11.3,25.2-25.2l8.4-61.3
  		C4753.1,1337.7,4731.1,1325.5,4717.1,1325.5"/>
  	<path class="st9" d="M4711.8,1354.5c-6.6,0-19.9,8.8-23,16.1c7.7,2.5,13.2,9.7,13.2,18.2c0,8.6-5.7,15.9-13.5,18.4
  		c2.5,7.1,16.5,15.1,23.3,15.1c7.5,0,13.6-6.1,13.6-13.6l4.5-33.1C4731.2,1361.1,4719.3,1354.5,4711.8,1354.5"/>
  	<path class="st10" d="M4597.3,1532.2h-64.4c-41.2,0-74.6,18.8-74.6,41.9v37c39.8,18.7,89.2,32.7,126.5,32.7
  		c32.5,0,62.7-9,87.1-22.2V1574C4671.9,1551,4638.5,1532.2,4597.3,1532.2"/>
  	<path class="st7" d="M4389.4,1518.9c0,37.1,121.5,92.2,195.3,92.2c80.4,0,146.5-55.1,146.5-92.2V1195h-341.9v323.9H4389.4z"/>
  	<path class="st7" d="M4389.4,1518.9c0,37.1,121.5,92.2,195.3,92.2c80.4,0,146.5-55.1,146.5-92.2V1195h-341.9v323.9H4389.4z"/>
  	<path class="st10" d="M4598.7,1370.5c0,85.4-4.3,166.7-12,240.6c79.6-0.9,144.6-55.4,144.6-92.2V1195h-138.9
  		C4596.5,1250.6,4598.7,1309.5,4598.7,1370.5"/>
  	<path class="st11" d="M4393.7,1201.8c-1.6,17.8,3.4,37.9,18.4,45.1c32,15.5,61.4-12,133.8,7.6c51.6,14,100.6,26.3,144,20.5
  		c17.5-2.3,31.1-10.5,41.5-21.7V1195h-337L4393.7,1201.8z"/>
  	<path class="st8" d="M4416.9,1174.4c-20,0-36.3,16.2-36.3,36.3v193.4c0,11.3,15.4,26.7,29.2,22.2c10.7-3.4,20.6-24.3,20.6-33
  		c0,0,0-93.8,16.5-147.4s46.4-73.2,46.4-73.2C4493.3,1152.7,4436.9,1174.4,4416.9,1174.4"/>
  	<path class="st7" d="M4393.1,1325.5c-14,0-35.9,12.2-33.6,39.2l8.4,61.3c0,13.9,11.3,25.2,25.3,25.2c13.9,0,43.9-18,43.9-31.9
  		l-0.1-58.8C4436.9,1346.6,4407,1325.5,4393.1,1325.5"/>
  	<path class="st11" d="M4408.2,1388.8c0-8.5,5.5-15.7,13.2-18.2c-3.1-7.2-16.3-16.1-23-16.1c-7.5,0-19.4,6.6-18.1,21.1l4.5,33.1
  		c0,7.5,6.1,13.6,13.6,13.6c6.8,0,20.9-8,23.3-15.1C4413.9,1404.7,4408.2,1397.4,4408.2,1388.8"/>
  	<path class="st12" d="M4765.4,1108.6c-26.3-1.4-2.5,27.3-88.5,27.3c-25,0-64.1-11.2-103.4-21.9c-131.1-35.7-164.1,18.1-169.3,33
  		c-3.1,9-4.8,18.5-4.5,26.9c0.5,12.1,1.1,46.8,30.7,63.7c30.9,17.7,53.7-16.9,127.5-3.9c52.7,9.3,102.6,17,145.3,7.3
  		C4780.3,1223.5,4791.7,1110,4765.4,1108.6"/>
  	<path class="st11" d="M4593.7,1427.6c-15,0-27.2,6.8-27.2,15.2c0,8.4,12.2,15.2,27.2,15.2c15.1,0,27.2-6.8,27.2-15.2
  		C4620.9,1434.4,4608.7,1427.6,4593.7,1427.6"/>
  	<path class="st7" d="M4597.1,1289l-35.3,154.3c0,0,54,7.5,62.1-5.2c9.2-14.5-4.8-44.3-12.9-75.9
  		C4601.5,1326.1,4597.1,1289,4597.1,1289"/>
  	<path class="st13" d="M4598.6,1300.2c-0.1,19.4,0.9,44.6,5.8,63.8c8.2,31.5,18.4,60.5,9.2,74.9c-2.2,3.5-7.9,5.4-14.9,6.4
  		c11.4-0.4,21.9-2.3,25.1-7.3c9.2-14.5-4.8-44.3-12.9-75.9C4604.7,1338.3,4600.7,1314,4598.6,1300.2"/>
  	<path class="st13" d="M4646.6,1496.7c-16.9,4.2-36.5,6.5-57.5,6.5s-40.6-2.4-57.5-6.5c-4.1,3.6-6.8,7.6-7.7,11.8
  		c12,15.9,36.7,26.8,65.2,26.8s53.2-10.9,65.2-26.8C4653.3,1504.2,4650.7,1500.2,4646.6,1496.7"/>
  	<path class="st11" d="M4650.9,1491.3c-18.2,4.2-39.4,6.5-62,6.5s-43.8-2.4-62-6.5c-4.4,3.6-7.3,7.5-8.3,11.8
  		c12.9,15.9,39.6,26.8,70.4,26.8s57.4-10.9,70.4-26.8C4658.2,1498.8,4655.3,1494.9,4650.9,1491.3"/>
  	<path class="st14" d="M4650.9,1491.3c-18.2,4.2-39.4,6.5-62,6.5s-43.8-2.4-62-6.5c-4.4,3.5-7.2,7.5-8.3,11.6
  		c20.8,4.6,44.7,7.3,70.3,7.3c25.6,0,49.5-2.6,70.3-7.3C4658.1,1498.7,4655.2,1494.8,4650.9,1491.3"/>
  	<path class="st8" d="M4672.9,1326.7c-8.4,0-15.2,6.8-15.2,15.2c0,8.4,6.8,15.2,15.2,15.2c8.4,0,15.2-6.8,15.2-15.2
  		C4688.2,1333.5,4681.3,1326.7,4672.9,1326.7"/>
  	<path class="st11" d="M4690.8,1297.7h-40c-4,0-7.2,3.2-7.2,7.2s3.2,7.2,7.2,7.2h40c4,0,7.2-3.2,7.2-7.2
  		C4698,1300.9,4694.8,1297.7,4690.8,1297.7"/>
  	<path class="st8" d="M4512,1326.7c-8.4,0-15.2,6.8-15.2,15.2c0,8.4,6.8,15.2,15.2,15.2c8.4,0,15.2-6.8,15.2-15.2
  		C4527.3,1333.5,4520.4,1326.7,4512,1326.7"/>
  	<path class="st11" d="M4530,1297.7h-40c-4,0-7.2,3.2-7.2,7.2s3.2,7.2,7.2,7.2h40c4,0,7.2-3.2,7.2-7.2
  		C4537.1,1300.9,4533.9,1297.7,4530,1297.7"/>
  	<path class="st10" d="M4282.4,1033.2c0.3,2.5-4.5,53.7-4.5,53.7s68.8-24.2,92.9-52.7s24.8-54.8,24.8-54.8l-75.4-20.4
  		C4320.2,958.9,4282.1,1030.7,4282.4,1033.2"/>
  	<path class="st10" d="M4383.4,793l-60.2,31.6c-7.8,4.1-10.8,13.7-6.7,21.4c4.1,7.8,13.7,10.8,21.4,6.7l60.2-31.5
  		c7.8-4.1,10.8-13.7,6.7-21.4C4400.8,792,4391.2,789,4383.4,793"/>
  	<path class="st10" d="M4336.4,826c-7.8-4.1-17.4-1.1-21.5,6.6l-31.7,60.1c-4.1,7.8-1.1,17.4,6.6,21.5c7.8,4.1,17.4,1.1,21.5-6.6
  		l31.7-60.1C4347.2,839.7,4344.2,830.1,4336.4,826"/>
  	<path class="st7" d="M4362,855.5l-89.7,37.7l-95.7,211l90,54.5l31.1-78c0,0,19.7-2.9,39-55.3c12.4-33.7,10.4-50.5,10.4-50.5
  		L4311,917l59.5-31.4L4362,855.5z"/>
  	<path class="st7" d="M4436.8,859.1l-67.8-5c-8.8-0.7-16.4,5.9-17,14.7c-0.7,8.8,5.9,16.4,14.7,17l67.8,5c8.7,0.6,16.4-5.9,17-14.7
  		S4445.6,859.7,4436.8,859.1"/>
  	<path class="st7" d="M4440.5,897.1l-67.8-5c-8.8-0.6-16.4,5.9-17,14.7s5.9,16.4,14.7,17l67.8,5c8.8,0.7,16.4-5.9,17-14.7
  		C4455.8,905.4,4449.2,897.8,4440.5,897.1"/>
  	<path class="st7" d="M4422,933.7l-55-4c-8.8-0.6-16.4,5.9-17,14.7s5.9,16.4,14.7,17l55,4c8.8,0.7,16.4-5.9,17-14.7
  		C4437.3,942,4430.8,934.3,4422,933.7"/>
  	<path class="st7" d="M4283.2,904l18.8,42.5l78.8-26.8l-9.9-27.6L4283.2,904z"/>
  	<path class="st7" d="M4280.9,941.7l38.8,64.2l56.4-50l-10.7-26.3L4280.9,941.7z"/>
  	<path class="st13" d="M4437.2,862.4l-9-0.3c-4.7-0.1-5.2,18.7-0.6,18.8l9,0.3c4.7,0.1,8.6-4,8.7-9.2
  		C4445.5,866.9,4441.9,862.5,4437.2,862.4"/>
  	<path class="st7" d="M4385.7,796.1l-7.9,4.3c-4.1,2.2,4.8,18.8,8.9,16.6l7.9-4.3c4.1-2.2,5.5-7.7,3-12.3S4389.8,793.9,4385.7,796.1
  		"/>
  	<path class="st13" d="M4438.8,900.3l-9-0.3c-4.7-0.1-5.2,18.7-0.6,18.8l9,0.3c4.7,0.1,8.6-4,8.7-9.2
  		C4447.2,904.8,4443.5,900.5,4438.8,900.3"/>
  	<path class="st13" d="M4422.9,937.9l-9-0.3c-4.7-0.1-5.2,18.7-0.6,18.8l9,0.3c4.7,0.1,8.6-4,8.7-9.2
  		C4431.2,942.3,4427.6,938,4422.9,937.9"/>
  	<path class="st7" d="M4321.4,831.3c-0.4-0.7-1.3-0.9-1.9-0.5c-0.7,0.4-0.9,1.3-0.5,1.9l10.7,17.6c0.4,0.6,1.3,0.9,1.9,0.5
  		c0.7-0.4,0.9-1.3,0.5-1.9L4321.4,831.3z"/>
  	<path class="st7" d="M4327.2,828c-0.4-0.7-1.3-0.9-1.9-0.5c-0.7,0.4-0.9,1.3-0.5,1.9l6.6,10.9c0.4,0.6,1.3,0.9,1.9,0.5
  		c0.7-0.4,0.9-1.3,0.5-1.9L4327.2,828z"/>
  	<path class="st13" d="M4367.4,859.3c-0.8,0-1.4,0.6-1.4,1.4l-0.1,12.7c0,0.8,0.6,1.4,1.4,1.4s1.4-0.6,1.4-1.4l0.1-12.7
  		C4368.8,859.9,4368.2,859.3,4367.4,859.3"/>
  	<path class="st13" d="M4366.9,897.5c-0.8,0-1.4,0.6-1.4,1.4l-0.1,12.7c0,0.8,0.6,1.4,1.4,1.4s1.4-0.6,1.4-1.4l0.1-12.7
  		C4368.3,898.1,4367.7,897.4,4366.9,897.5"/>
  	<g>
  		<path class="st10" d="M4852.7,958.6l-75.8,19c0,0,0.2,26.3,23.8,55.3c23.6,28.9,91.9,54.4,91.9,54.4s-3.8-51.2-3.5-53.7
  			C4889.5,1031,4852.7,958.6,4852.7,958.6"/>
  		<path class="st10" d="M4852.3,824.2l-59.6-32.7c-7.7-4.2-17.3-1.4-21.6,6.3c-4.2,7.7-1.4,17.4,6.3,21.6l59.6,32.7
  			c7.7,4.2,17.3,1.4,21.6-6.3C4862.8,838.1,4860,828.4,4852.3,824.2"/>
  		<path class="st10" d="M4860.4,832.4c-3.9-7.8-13.5-11-21.3-7c-7.8,3.9-11,13.5-7,21.3l30.6,60.7c3.9,7.8,13.5,11,21.3,7.1
  			s11-13.5,7.1-21.3L4860.4,832.4z"/>
  		<path class="st7" d="M4812.9,854.4l-9.1,29.9l58.9,32.5l-37.2,57.2c0,0-2.2,16.8,9.5,50.6c18.3,52.8,38,56,38,56l33.1,70.7
  			l99.7-47.2l-103.9-210.4L4812.9,854.4z"/>
  		<path class="st7" d="M4805.9,852.8l-67.9,3.7c-8.8,0.5-15.5,8-15,16.7c0.5,8.8,8,15.5,16.7,15l67.9-3.7c8.8-0.5,15.5-8,15-16.7
  			C4822.2,859,4814.7,852.3,4805.9,852.8"/>
  		<path class="st7" d="M4801.5,890.8l-67.9,3.7c-8.8,0.5-15.5,8-15,16.7c0.5,8.8,8,15.5,16.7,15l67.9-3.7c8.8-0.5,15.5-8,15-16.7
  			C4817.8,897,4810.3,890.3,4801.5,890.8"/>
  		<path class="st7" d="M4806.4,928.4l-55,3c-8.8,0.5-15.5,8-15,16.7c0.5,8.8,8,15.5,16.7,15l55-3c8.8-0.5,15.5-8,15-16.7
  			C4822.7,934.6,4815.2,927.9,4806.4,928.4"/>
  		<path class="st7" d="M4792.9,918.2l78.3,28.2l19.6-42.1l-87.4-13.5L4792.9,918.2z"/>
  		<path class="st7" d="M4796.8,954.4l55.5,51.1l40-63.5l-84.3-13.7L4796.8,954.4z"/>
  		<path class="st13" d="M4746.6,859.7l-9,0.1c-4.7,0-8.4,4.3-8.4,9.5c0.1,5.2,3.9,9.4,8.6,9.3l9-0.1
  			C4751.4,878.5,4751.2,859.7,4746.6,859.7"/>
  		<path class="st7" d="M4798.2,798.9l-7.8-4.4c-4.1-2.3-9.4-0.5-12,4.1c-2.6,4.5-1.3,10.1,2.8,12.4l7.8,4.4
  			C4793,817.6,4802.3,801.2,4798.2,798.9"/>
  		<path class="st13" d="M4744.2,897.6l-9,0.1c-4.7,0-8.4,4.3-8.3,9.5s3.9,9.4,8.6,9.3l9-0.1C4749.1,916.4,4748.9,897.6,4744.2,897.6
  			"/>
  		<path class="st13" d="M4759.4,935.5l-9,0.1c-4.7,0-8.4,4.3-8.4,9.5c0.1,5.2,3.9,9.4,8.6,9.3l9-0.1
  			C4764.3,954.2,4764.1,935.4,4759.4,935.5"/>
  		<path class="st7" d="M4855.9,830.5c-0.6-0.4-1.5-0.2-1.9,0.4l-11.1,17.4c-0.4,0.7-0.2,1.5,0.4,1.9s1.5,0.2,1.9-0.4l11-17.4
  			C4856.7,831.8,4856.5,830.9,4855.9,830.5"/>
  		<path class="st7" d="M4850.1,827.1c-0.7-0.4-1.5-0.2-1.9,0.4l-6.8,10.7c-0.4,0.6-0.2,1.5,0.4,1.9s1.5,0.2,1.9-0.4l6.8-10.7
  			C4850.9,828.4,4850.7,827.5,4850.1,827.1"/>
  		<path class="st13" d="M4808.8,859.4c0-0.8-0.6-1.4-1.4-1.4s-1.4,0.6-1.4,1.4l-0.1,12.7c0,0.8,0.6,1.4,1.4,1.4s1.4-0.6,1.4-1.4
  			L4808.8,859.4z"/>
  		<path class="st13" d="M4808.6,897.6c0-0.8-0.6-1.4-1.4-1.4s-1.4,0.6-1.4,1.4l-0.1,12.7c0,0.8,0.6,1.4,1.4,1.4s1.4-0.6,1.4-1.4
  			L4808.6,897.6z"/>
  		<path class="st4" d="M5053.1,1094.7c-25.2-33.5-50.7-62-70-82.3l-109.8,138.5c12.9,14.3,27.5,31.7,41.8,50.9
  			c44.7,60,69.2,115.6,67.3,152.6c-5.3,102.1-57.3,189.1-100,244c-46.9,60.4-92.3,95.7-92.7,96c-38.3,29.2-45.7,84-16.5,122.3
  			c18.3,24,24.4,38.7,52.5,38.6c29.2-0.1,55.5-11.1,69.9-22.1c10.1-7.7,246.6-191.2,261.2-469.7
  			C5161.1,1282.3,5126.2,1191.9,5053.1,1094.7"/>
  	</g>
  	<path class="st4" d="M4284.1,1597.5c-41.6-55.8-91.9-143.7-95.3-245.9c-1.2-37,24.3-92.2,70.2-151.3c14.7-18.9,29.6-36,42.7-50.1
  		l-107.1-140.5c-19.7,19.9-45.7,47.9-71.5,80.9c-74.9,95.8-111.5,185.5-108.8,266.8c9.3,278.8,242.3,466.8,252.2,474.6
  		c14.2,11.2,40.3,22.8,69.5,23.4c28,0.6,34.4-14,53.2-37.6c30-37.8,23.6-92.7-14.2-122.6C4374.5,1694.9,4329.8,1658.8,4284.1,1597.5
  		"/>
  	<path class="st6" d="M2101.8,930.8c-144.4,0-261.5,117.1-261.5,261.5s117.1,261.5,261.5,261.5s261.5-117.1,261.5-261.5
  		C2363.3,1047.8,2246.2,930.8,2101.8,930.8"/>
  	<path class="st15" d="M2131.8,1230.4c-20.9,13.7-49,7.8-62.7-13.1s-7.8-49,13.1-62.7c20.9-13.7,49-7.8,62.7,13.1
  		C2158.6,1188.7,2152.7,1216.7,2131.8,1230.4 M2217.6,1157.2l27.7-17.8c-3.7-9.6-8.5-19-14.3-28c-5.9-9-12.6-17.2-20-24.4
  		l-29.4,16.6c-6.6-5.5-13.8-10.3-21.3-14.1l7-32.2c-19.3-8.6-40.2-12.9-61.3-12.8l-9.1,32.5c-8.4,0.7-16.8,2.4-25,5l-17.8-27.7
  		c-9.6,3.7-19,8.5-28,14.3c-9,5.9-17.2,12.6-24.4,20l16.5,29.4c-5.5,6.6-10.3,13.8-14.1,21.3l-32.2-7c-8.5,19.3-12.9,40.2-12.7,61.3
  		l32.5,9.1c0.7,8.4,2.4,16.8,5,25.1l-27.7,17.8c3.7,9.6,8.5,19,14.3,28c5.9,9,12.6,17.2,20,24.4l29.4-16.5
  		c6.6,5.5,13.8,10.3,21.3,14.1l-7,32.2c19.3,8.5,40.2,12.9,61.3,12.7l9.1-32.5c8.4-0.7,16.8-2.4,25.1-5l17.8,27.7
  		c9.6-3.7,19-8.5,27.9-14.3c9-5.9,17.2-12.6,24.4-20L2196,1267c5.5-6.6,10.3-13.8,14.1-21.3l32.2,7c8.5-19.3,12.9-40.2,12.8-61.3
  		l-32.5-9.1C2221.9,1173.9,2220.2,1165.5,2217.6,1157.2"/>
  	<path class="st6" d="M1275,930.8c-144.4,0-261.5,117.1-261.5,261.5s117.1,261.5,261.5,261.5s261.5-117.1,261.5-261.5
  		C1536.5,1047.8,1419.4,930.8,1275,930.8"/>
  	<path class="st15" d="M1328.8,1052.2c-27.5,1.9-50.2,19.4-60,43.4c13.2-14,31.4-23.3,52.1-24.6c38.7-2.6,72.7,23.2,81.7,59.6
  		c0.6-4.4,0.7-8.8,0.4-13.4C1400.4,1078.7,1367.2,1049.6,1328.8,1052.2"/>
  	<path class="st15" d="M1339.3,1215c-49.7,3.3-92.6-34.3-95.9-84s34.3-92.6,84-95.9s92.6,34.3,95.9,84
  		C1426.5,1168.8,1388.9,1211.7,1339.3,1215 M1326,1015.2c-60.7,4-106.6,56.5-102.6,117.2c1.7,26.1,12.4,49.4,28.9,67.2l-17.1,19.5
  		c-13-5.7-28.6-2.8-38.5,8.5l-66,75.4c-12.1,13.9-10.7,35,3.1,47.1c13.9,12.1,35,10.7,47.1-3.1l65.9-75.4
  		c9.9-11.2,10.6-27.1,3.3-39.2l16.9-19.3c20.4,15.3,46.1,23.8,73.5,21.9c60.7-4,106.7-56.5,102.6-117.2
  		C1439.2,1057.1,1386.7,1011.1,1326,1015.2"/>
  	<path class="st6" d="M2928.5,930.8c-144.4,0-261.5,117.1-261.5,261.5s117.1,261.5,261.5,261.5s261.5-117.1,261.5-261.5
  		C3190,1047.8,3073,930.8,2928.5,930.8"/>
  	<path id="SVGID_x5F_1_x5F_" class="st15" d="M2931.3,1074.8h-111.7c-17.6,0-31.9,14.3-31.9,31.9v73.4c0,17.6,14.3,31.9,31.9,31.9
  		h3.2v52.7l35.1-35.1v-87.8c0-19.4,15.7-35.1,35.1-35.1h70.2C2963.2,1089.1,2949,1074.8,2931.3,1074.8"/>
  	<text class="st16 st17"> </text>
  	<text transform="matrix(1 0 0 1 2787.7002 1150.3931)" class="st16 st17"> </text>
  	<text transform="matrix(1 0 0 1 2787.7002 1153.7271)" class="st16 st17"> </text>
  	<text transform="matrix(1 0 0 1 2787.7002 1157.0609)" class="st16 st17"> </text>
  	<text transform="matrix(1 0 0 1 2787.7002 1160.395)" class="st16 st17"> </text>
  	<text class="st16 st17">   </text>
  	<path class="st15" d="M3033.5,1176.9h-122.9v-17.6h122.9V1176.9z M3033.5,1212h-122.9v-17.6h122.9V1212z M2980.8,1247.1h-70.2
  		v-17.6h70.2V1247.1z M3033.5,1124.3h-122.9c-19.4,0-35.1,15.7-35.1,35.1v87.8c0,19.4,15.7,35.1,35.1,35.1h35.1v52.7l52.7-52.7h35.1
  		c19.4,0,35.1-15.7,35.1-35.1v-87.8C3068.6,1140,3052.9,1124.3,3033.5,1124.3"/>
  </g>

  <!-- Popover 1 -->
  <g id="popover-1" class="popover popover-1">
  	<g id="layer1_1_" transform="translate(0,-772.36218)">
  		<path id="path13588_1_" class="st18" d="M923,1463.4v430.5l42.6,73.5l-42.6,73.5v430.5c0,17.4-9.5,31.5-21.3,31.5H132.1
  			c-11.8,0-21.3-14-21.3-31.5V1463.5c0-17.4,9.5-31.5,21.3-31.5h769.6C913.5,1431.9,923.2,1446,923,1463.4z"/>
  	</g>
  </g>

  <!-- Header 1 -->
  <g id="header-1" class="header header-1">
		<path class="st0" d="M200,753.2h63.5v12.2h-49.3v30.1h46.2v12.2h-46.2v42.7H200V753.2z"/>
		<path class="st0" d="M277.3,747.8H291v15.8h-13.7V747.8z M277.3,779.2H291v71.3h-13.7V779.2z"/>
		<path class="st0" d="M311.5,797.1c0-6.2,0-12.5-0.1-18h13.4c0.3,2,0.5,9,0.5,11.2c2.8-5.8,8.6-12.9,22.1-12.9s23.8,8.5,23.8,27.2
			v45.7h-13.7v-44c0-10.2-3.9-17.2-14.4-17.2c-12.5,0-17.8,9.2-17.8,23.1v38.1h-13.7L311.5,797.1L311.5,797.1z"/>
		<path class="st0" d="M451.9,747.8v82.6c0,6.7,0,13.2,0.1,20h-13.2c-0.3-1.9-0.6-7.1-0.7-9.6c-3.5,7.1-10.5,11.3-22,11.3
			c-18.3,0-29.6-14.8-29.6-36.6c0-21.9,12.2-38,32-38c12.2,0,17.8,4.8,19.6,8.7v-38.4H451.9z M400.8,815.1
			c0,16.6,7.6,25.5,18.5,25.5c16.1,0,19.3-12.1,19.3-26.7c0-15.1-3-25-18.4-25C408.1,789,400.8,798.6,400.8,815.1z"/>
		<path class="st0" d="M498.6,779.2h12.1v-20.7h13.7v20.7h15.4v11h-15.4v40.5c0,6.6,1.7,9.9,8,9.9c1.6,0,4-0.1,5.9-0.5v10.1
			c-3.2,1.2-7.6,1.3-11.2,1.3c-11.6,0-16.5-6.1-16.5-18v-43.2h-12.1L498.6,779.2L498.6,779.2z"/>
		<path class="st0" d="M566.8,747.8v41.5c3.5-5.9,9.9-11.8,21.9-11.8c11.8,0,24,6.6,24,27.4v45.5H599v-43.3
			c0-11.6-4.8-17.9-14.7-17.9c-12.5,0-17.4,8.4-17.4,22.5v38.7h-13.7V747.8H566.8z"/>
		<path class="st0" d="M642.1,817.4c0.1,13.4,6.8,23.4,18.5,23.4c10.7,0,14.1-5.3,16.3-10.4h13.8c-2.7,9-10.4,21.6-30.5,21.6
			c-22.6,0-32-18.1-32-36.5c0-21.4,10.8-38.1,32.7-38.1c23.3,0,31,18.3,31,34c0,2.2,0,4-0.2,5.9L642.1,817.4L642.1,817.4z
			 M678,808.1c-0.1-11.1-5.5-20-17.2-20c-11.9,0-17.1,8.3-18.3,20H678z"/>
		<path class="st0" d="M251.9,974.3c0,6.5,0.6,14.1,1,16.1h-13.1c-0.6-1.6-1-5-1.1-8.9c-2.5,4.6-8,10.6-21.6,10.6
			c-16.9,0-24.1-11-24.1-21.9c0-16,12.6-23.3,33.7-23.3c4.7,0,9.2,0,11.8,0v-5.7c0-6-2-13.2-14.5-13.2c-11.2,0-13.2,5.4-14.4,10.9
			h-13.2c1-10.4,7.4-21.5,28.1-21.4c17.7,0.1,27.5,7.2,27.5,23.6L251.9,974.3L251.9,974.3z M238.5,956.1c-2.2,0-7.3,0-10.9,0
			c-13.8,0-20.7,3.9-20.7,13.3c0,7,4.7,12.2,13.2,12.2c16.3,0,18.4-11,18.4-23.3V956.1z"/>
		<path class="st0" d="M272.5,937.1c0-6.2,0-12.5-0.1-18h13.4c0.3,2,0.5,9,0.5,11.2c2.8-5.8,8.6-12.9,22.1-12.9s23.8,8.5,23.8,27.2
			v45.7h-13.7v-44c0-10.2-3.9-17.2-14.4-17.2c-12.5,0-17.8,9.2-17.8,23.1v38.1h-13.7L272.5,937.1L272.5,937.1z"/>
		<path class="st0" d="M360,969.9c1.9,7.4,7.5,11.7,16.7,11.7c9.9,0,13.7-4.1,13.7-10.2c0-6.3-3.2-9.1-16.2-12.2
			c-20.9-5.1-25.1-11.5-25.1-21.3c0-10.2,7.4-20.3,26.3-20.3c19,0,26.5,10.9,27.4,20.7h-13.2c-0.9-4.2-4.1-10.4-14.7-10.4
			c-9.3,0-12.1,4.4-12.1,8.8c0,5,2.8,7.4,15.6,10.5c22,5.2,26.2,12.6,26.2,23.2c0,12.4-9.7,21.8-28.2,21.8
			c-19.1,0-28.1-9.5-29.9-22.3H360z"/>
		<path class="st0" d="M427.4,919.2c8.4,32.5,13.1,51,14.4,58.7h0.2c1.3-6.9,5.8-23.4,15.6-58.7h13.3c10.5,39.3,13.7,50.8,14.8,57.4
			h0.1c1.7-7.6,4.4-18.3,15-57.4h13.8l-21.8,71.3H478c-6.7-26.2-12.9-48.4-14.4-56.4h-0.1c-1.3,8-7.2,28.6-14.9,56.4h-15.2
			l-20.6-71.3H427.4z"/>
		<path class="st0" d="M537.1,957.4c0.1,13.4,6.8,23.4,18.5,23.4c10.7,0,14.1-5.3,16.3-10.4h13.8c-2.7,9-10.4,21.6-30.5,21.6
			c-22.6,0-32-18.1-32-36.5c0-21.4,10.8-38.1,32.7-38.1c23.3,0,31,18.3,31,34c0,2.2,0,4-0.2,5.9L537.1,957.4L537.1,957.4z
			 M573,948.1c-0.1-11.1-5.5-20-17.2-20c-11.9,0-17.1,8.3-18.3,20H573z"/>
		<path class="st0" d="M602.2,938.5c0-9.4-0.1-15.1-0.1-19.4h13.5c0.2,1.9,0.4,7.8,0.4,14.2c3.6-9.4,11.9-15.5,23.8-15.8V931
			c-14.6,0.3-23.8,7.2-23.8,25.5v33.9h-13.7v-51.9H602.2z"/>
  </g>

  <!-- Text 1 -->
  <g id="text-1" class="text text-1">
		<path class="st19" d="M195.7,1096.1h24c13.2,0,19.4,7,19.4,15.6c0,7.3-4.2,12-9,13.6c4.4,1.4,11,5.8,11,15
			c0,11.8-9,18.3-20.9,18.3h-24.6v-62.5H195.7z M218.1,1122.1c9.1,0,12.6-3.6,12.6-9.7c0-5.5-4-9.5-11.3-9.5h-15.6v19.2H218.1z
			 M203.8,1151.8h15.5c7.9,0,13.3-3.7,13.3-11.5c0-6.8-4.4-11.4-14.9-11.4h-13.9L203.8,1151.8L203.8,1151.8z"/>
		<path class="st19" d="M252.3,1125.5c0-6.4-0.1-10-0.1-12.4h7.7c0.1,1.3,0.2,4.9,0.2,9.3c2.4-6.2,7.8-10.2,15.4-10.4v7.9
			c-9.4,0.3-15.4,5.2-15.4,16.7v22.2h-7.9L252.3,1125.5L252.3,1125.5z"/>
		<path class="st19" d="M323.2,1135.8c0,13.1-7.5,24-21.5,24c-13.1,0-21-10.1-21-23.8c0-13.5,7.7-24,21.5-24
			C314.9,1112,323.2,1121.5,323.2,1135.8z M288.9,1135.9c0,10,5,17.3,13.2,17.3c8.3,0,13-6.9,13-17.3c0-10.3-4.7-17.3-13.2-17.3
			S288.9,1125.5,288.9,1135.9z"/>
		<path class="st19" d="M337.3,1113.1c5.7,21.4,8.9,33.6,9.7,38.3h0.1c0.8-4.2,4-15.6,10.5-38.3h7.7c7.1,25.8,9.3,33.3,10,37.4h0.1
			c1.1-4.9,2.9-11.7,10.1-37.4h8l-14.1,45.6h-8.5c-4.4-16.6-8.8-32-9.8-37H361c-0.8,5-4.9,18.9-10.1,37h-8.8l-13.2-45.6H337.3z"/>
		<path class="st19" d="M406.3,1145.6c1.3,5,5,7.9,11.2,7.9c6.7,0,9.3-2.9,9.3-7c0-4.3-2.1-6.2-10.8-8.4c-13-3.2-15.8-7.2-15.8-13.4
			c0-6.5,4.7-12.8,16.5-12.8s16.6,6.8,17.2,13.2h-7.6c-0.7-3-2.9-7.1-9.9-7.1c-6.4,0-8.3,3.1-8.3,6.1c0,3.4,1.9,5.1,10.2,7.1
			c13.8,3.3,16.6,7.9,16.6,14.7c0,8-6.3,13.8-17.7,13.8c-11.8,0-17.6-6-18.8-14.1L406.3,1145.6L406.3,1145.6z"/>
		<path class="st19" d="M449.8,1137.3c0.1,9.3,4.7,15.9,12.5,15.9c7.2,0,9.6-3.7,11-7.1h7.9c-1.8,5.8-6.7,13.6-19.2,13.6
			c-14.3,0-20.2-11.7-20.2-23.4c0-13.6,6.8-24.4,20.7-24.4c14.7,0,19.5,11.8,19.5,21.5c0,1.4,0,2.6-0.1,3.8L449.8,1137.3
			L449.8,1137.3z M474.1,1131.7c-0.1-7.5-3.9-13.5-11.7-13.5c-8,0-11.6,5.6-12.4,13.5H474.1z"/>
		<path class="st19" d="M548.9,1148.7c0,4.2,0.4,8.6,0.6,10H542c-0.4-1-0.6-3.2-0.7-6c-1.6,3-5.2,7.1-14.1,7.1
			c-10.8,0-15.4-7-15.4-13.9c0-10.2,8-14.8,21.6-14.8c3.2,0,6.1,0,7.8,0v-3.9c0-4-1.3-8.9-9.8-8.9c-7.6,0-8.9,3.8-9.7,7.3H514
			c0.6-6.3,4.5-13.6,17.6-13.5c11.2,0,17.3,4.6,17.3,15L548.9,1148.7L548.9,1148.7z M541.2,1136.4c-1.5,0-4.9,0-7.4,0
			c-9.1,0-14,2.5-14,8.9c0,4.7,3.3,8.2,8.9,8.2c11,0,12.5-7.4,12.5-15.7V1136.4z"/>
		<path class="st19" d="M562.5,1158.7v-66.1h7.9v66.1H562.5z"/>
		<path class="st19" d="M583.9,1158.7v-66.1h7.9v66.1H583.9z"/>
		<path class="st19" d="M622.1,1113.1h7.9v-13.5h7.9v13.5H648v6.4h-10.1v26.7c0,4.4,1.1,6.7,5.2,6.7c1.1,0,2.7-0.1,4-0.4v5.9
			c-1.9,0.7-4.6,0.8-6.8,0.8c-7.1,0-10.2-3.7-10.2-11.3v-28.6h-7.9v-6.2H622.1z"/>
		<path class="st19" d="M664.5,1092.6v27.2c2.3-4,6.5-7.8,14.2-7.8c7.3,0,15.4,4,15.4,17.6v29.1h-7.8v-27.8c0-7.8-3.3-12.1-9.9-12.1
			c-8.2,0-11.8,5.4-11.8,14.9v24.9h-7.9v-66.1h7.8V1092.6z"/>
		<path class="st19" d="M712.4,1137.3c0.1,9.3,4.7,15.9,12.5,15.9c7.2,0,9.6-3.7,11-7.1h7.9c-1.8,5.8-6.7,13.6-19.2,13.6
			c-14.3,0-20.2-11.7-20.2-23.4c0-13.6,6.8-24.4,20.7-24.4c14.7,0,19.5,11.8,19.5,21.5c0,1.4,0,2.6-0.1,3.8L712.4,1137.3
			L712.4,1137.3z M736.6,1131.7c-0.1-7.5-3.9-13.5-11.7-13.5c-8,0-11.6,5.6-12.4,13.5H736.6z"/>
		<path class="st19" d="M224.3,1262.1c-2.4,4.8-6.5,7.6-14.4,7.6c-10.3,0-19-8.2-19-23.4c0-15.3,9.1-24.4,20.1-24.4
			c8.5,0,12.2,3.9,13.3,6.9c0-1.7,0.2-3.9,0.3-5.8h7.5c-0.1,4.7-0.1,8.4-0.1,12.6v51h-7.7L224.3,1262.1L224.3,1262.1z M199.1,1246
			c0,9.2,4,17,12.7,17c9.9,0,12.7-6.8,12.7-17.4c0-10.7-2.6-17-12.4-17C203.5,1228.7,199.1,1235.9,199.1,1246z"/>
		<path class="st19" d="M282.1,1255.4c0,4.4,0.1,10.6,0.1,13.3h-7.7c-0.2-1.2-0.3-4-0.3-6.8c-2.2,5.1-6.6,7.9-13.8,7.9
			c-7.7,0-15.1-3.8-15.1-16.7v-30h7.8v28.3c0,6,1.9,11.5,9.4,11.5c8.4,0,11.6-4.7,11.6-16.1V1223h7.9L282.1,1255.4L282.1,1255.4z"/>
		<path class="st19" d="M300.3,1247.3c0.1,9.3,4.7,15.9,12.5,15.9c7.2,0,9.6-3.7,11-7.1h7.9c-1.8,5.8-6.7,13.6-19.2,13.6
			c-14.3,0-20.2-11.7-20.2-23.4c0-13.6,6.8-24.4,20.7-24.4c14.7,0,19.5,11.8,19.5,21.5c0,1.4,0,2.6-0.1,3.8L300.3,1247.3
			L300.3,1247.3z M324.6,1241.7c-0.1-7.5-3.9-13.5-11.7-13.5c-8,0-11.6,5.6-12.4,13.5H324.6z"/>
		<path class="st19" d="M346.5,1255.6c1.3,5,5,7.9,11.2,7.9c6.7,0,9.3-2.9,9.3-7c0-4.3-2.1-6.2-10.8-8.4c-13-3.2-15.8-7.2-15.8-13.4
			c0-6.5,4.7-12.8,16.5-12.8s16.6,6.8,17.2,13.2h-7.6c-0.7-3-2.9-7.1-9.9-7.1c-6.4,0-8.3,3.1-8.3,6.1c0,3.4,1.9,5.1,10.2,7.1
			c13.8,3.3,16.6,7.9,16.6,14.7c0,8-6.3,13.8-17.7,13.8c-11.8,0-17.6-6-18.8-14.1L346.5,1255.6L346.5,1255.6z"/>
		<path class="st19" d="M379.4,1223.1h7.9v-13.5h7.9v13.5h10.1v6.4h-10.1v26.7c0,4.4,1.1,6.7,5.2,6.7c1.1,0,2.7-0.1,4-0.4v5.9
			c-1.9,0.7-4.6,0.8-6.8,0.8c-7.1,0-10.2-3.7-10.2-11.3v-28.6h-7.9v-6.2H379.4z"/>
		<path class="st19" d="M413.9,1202.6h7.9v9.8h-7.9V1202.6z M413.9,1223.1h7.9v45.6h-7.9V1223.1z"/>
		<path class="st19" d="M474.5,1245.8c0,13.1-7.5,24-21.5,24c-13.1,0-21-10.1-21-23.8c0-13.5,7.7-24,21.5-24
			C466.2,1222,474.5,1231.5,474.5,1245.8z M440.1,1245.9c0,10,5,17.3,13.2,17.3c8.3,0,13-6.9,13-17.3c0-10.3-4.7-17.3-13.2-17.3
			S440.1,1235.5,440.1,1245.9z"/>
		<path class="st19" d="M484.8,1234.6c0-4,0-8-0.1-11.5h7.7c0.2,1.3,0.3,6.1,0.3,7.5c1.8-3.9,5.5-8.6,14.4-8.6
			c8.6,0,15.2,5.2,15.2,17.4v29.3h-7.9v-28.3c0-6.9-2.7-11.5-9.7-11.5c-8.6,0-12.1,6.6-12.1,15.7v24.2h-7.9v-34.2H484.8z"/>
		<path class="st19" d="M561.2,1223.1c7.4,21.9,11.4,34,12.6,38.6h0.1c1.5-5.2,4.7-15.6,12.2-38.6h8l-16.4,47.7
			c-4.6,13.4-8.1,16.7-17.4,16.7c-1.4,0-3.1-0.1-4.9-0.3v-6.9c1.2,0.1,2.5,0.2,3.8,0.2c5.8,0,8-2.5,10.7-10.2l-17.1-47.4h8.4V1223.1
			z"/>
		<path class="st19" d="M640.9,1245.8c0,13.1-7.5,24-21.5,24c-13.1,0-21-10.1-21-23.8c0-13.5,7.7-24,21.5-24
			C632.6,1222,640.9,1231.5,640.9,1245.8z M606.6,1245.9c0,10,5,17.3,13.2,17.3c8.3,0,13-6.9,13-17.3c0-10.3-4.7-17.3-13.2-17.3
			S606.6,1235.5,606.6,1245.9z"/>
		<path class="st19" d="M687.8,1255.4c0,4.4,0.1,10.6,0.1,13.3h-7.7c-0.2-1.2-0.3-4-0.3-6.8c-2.2,5.1-6.6,7.9-13.8,7.9
			c-7.7,0-15.1-3.8-15.1-16.7v-30h7.8v28.3c0,6,1.9,11.5,9.4,11.5c8.4,0,11.6-4.7,11.6-16.1V1223h7.9L687.8,1255.4L687.8,1255.4z"/>
		<path class="st19" d="M701.3,1235.5c0-6.4-0.1-10-0.1-12.4h7.7c0.1,1.3,0.2,4.9,0.2,9.3c2.4-6.2,7.8-10.2,15.4-10.4v7.9
			c-9.4,0.3-15.4,5.2-15.4,16.7v22.2h-7.9L701.3,1235.5L701.3,1235.5z"/>
		<path class="st19" d="M188.3,1333.1h7.9v-13.5h7.9v13.5h10.1v6.4h-10.1v26.7c0,4.4,1.1,6.7,5.2,6.7c1.1,0,2.7-0.1,4-0.4v5.9
			c-1.9,0.7-4.6,0.8-6.8,0.8c-7.1,0-10.2-3.7-10.2-11.3v-28.6h-7.9L188.3,1333.1L188.3,1333.1z"/>
		<path class="st19" d="M227.6,1357.3c0.1,9.3,4.7,15.9,12.5,15.9c7.2,0,9.6-3.7,11-7.1h7.9c-1.8,5.8-6.7,13.6-19.2,13.6
			c-14.3,0-20.2-11.7-20.2-23.4c0-13.6,6.8-24.4,20.7-24.4c14.7,0,19.5,11.8,19.5,21.5c0,1.4,0,2.6-0.1,3.8L227.6,1357.3
			L227.6,1357.3z M251.9,1351.7c-0.1-7.5-3.9-13.5-11.7-13.5c-8,0-11.6,5.6-12.4,13.5H251.9z"/>
		<path class="st19" d="M303.9,1368.7c0,4.2,0.4,8.6,0.6,10H297c-0.4-1-0.6-3.2-0.7-6c-1.6,3-5.2,7.1-14.1,7.1
			c-10.8,0-15.4-7-15.4-13.9c0-10.2,8-14.8,21.6-14.8c3.2,0,6.1,0,7.8,0v-3.9c0-4-1.3-8.9-9.8-8.9c-7.6,0-8.9,3.8-9.7,7.3H269
			c0.6-6.3,4.5-13.6,17.6-13.5c11.2,0,17.3,4.6,17.3,15V1368.7z M296.2,1356.4c-1.5,0-4.9,0-7.4,0c-9.1,0-14,2.5-14,8.9
			c0,4.7,3.3,8.2,8.9,8.2c11,0,12.5-7.4,12.5-15.7V1356.4z"/>
		<path class="st19" d="M353.5,1364.7c-1.9,7.9-7.3,15-18.9,15c-12.6,0-20.3-9-20.3-23.7c0-12.9,7.3-24.1,20.9-24.1
			c13.2,0,17.7,9.4,18.3,15.3h-7.8c-1.1-4.6-4-8.7-10.6-8.7c-8.1,0-12.6,6.9-12.6,17.3s4.4,17.4,12.4,17.4c5.7,0,9-3,10.9-8.5
			L353.5,1364.7L353.5,1364.7z"/>
		<path class="st19" d="M370.9,1312.6v27.2c2.3-4,6.5-7.8,14.2-7.8c7.3,0,15.4,4,15.4,17.6v29.1h-7.8v-27.8c0-7.8-3.3-12.1-9.9-12.1
			c-8.2,0-11.8,5.4-11.8,14.9v24.9h-8v-66.1h7.9V1312.6z"/>
		<path class="st19" d="M418.7,1357.3c0.1,9.3,4.7,15.9,12.5,15.9c7.2,0,9.6-3.7,11-7.1h7.9c-1.8,5.8-6.7,13.6-19.2,13.6
			c-14.3,0-20.2-11.7-20.2-23.4c0-13.6,6.8-24.4,20.7-24.4c14.7,0,19.5,11.8,19.5,21.5c0,1.4,0,2.6-0.1,3.8L418.7,1357.3
			L418.7,1357.3z M443,1351.7c-0.1-7.5-3.9-13.5-11.7-13.5c-8,0-11.6,5.6-12.4,13.5H443z"/>
		<path class="st19" d="M461.1,1345.5c0-6.4-0.1-10-0.1-12.4h7.7c0.1,1.3,0.2,4.9,0.2,9.3c2.4-6.2,7.8-10.2,15.4-10.4v7.9
			c-9.4,0.3-15.4,5.2-15.4,16.7v22.2H461L461.1,1345.5L461.1,1345.5z"/>
		<path class="st19" d="M496.6,1365.6c1.3,5,5,7.9,11.2,7.9c6.7,0,9.3-2.9,9.3-7c0-4.3-2.1-6.2-10.8-8.4c-13-3.2-15.8-7.2-15.8-13.4
			c0-6.5,4.7-12.8,16.5-12.8s16.6,6.8,17.2,13.2h-7.6c-0.7-3-2.9-7.1-9.9-7.1c-6.4,0-8.3,3.1-8.3,6.1c0,3.4,1.9,5.1,10.2,7.1
			c13.8,3.3,16.6,7.9,16.6,14.7c0,8-6.3,13.8-17.7,13.8c-11.8,0-17.6-6-18.8-14.1L496.6,1365.6L496.6,1365.6z"/>
		<path class="st19" d="M228.2,1478.7c0,4.2,0.4,8.6,0.6,10h-7.5c-0.4-1-0.6-3.2-0.7-6c-1.6,3-5.2,7.1-14.1,7.1
			c-10.8,0-15.4-7-15.4-13.9c0-10.2,8-14.8,21.6-14.8c3.2,0,6.1,0,7.8,0v-3.9c0-4-1.3-8.9-9.8-8.9c-7.6,0-8.9,3.8-9.7,7.3h-7.6
			c0.6-6.3,4.5-13.6,17.6-13.5c11.2,0,17.3,4.6,17.3,15v21.6H228.2z M220.5,1466.4c-1.5,0-4.9,0-7.4,0c-9.1,0-14,2.5-14,8.9
			c0,4.7,3.3,8.2,8.9,8.2c11,0,12.5-7.4,12.5-15.7V1466.4z"/>
		<path class="st19" d="M241.8,1454.6c0-4,0-8-0.1-11.5h7.7c0.2,1.3,0.3,6.1,0.3,7.5c1.8-3.9,5.5-8.6,14.4-8.6
			c8.6,0,15.2,5.2,15.2,17.4v29.3h-7.9v-28.3c0-6.9-2.7-11.5-9.7-11.5c-8.6,0-12.1,6.6-12.1,15.7v24.2h-7.9L241.8,1454.6
			L241.8,1454.6z"/>
		<path class="st19" d="M296.5,1475.6c1.3,5,5,7.9,11.2,7.9c6.7,0,9.3-2.9,9.3-7c0-4.3-2.1-6.2-10.8-8.4c-13-3.2-15.8-7.2-15.8-13.4
			c0-6.5,4.7-12.8,16.5-12.8s16.6,6.8,17.2,13.2h-7.6c-0.7-3-2.9-7.1-9.9-7.1c-6.4,0-8.3,3.1-8.3,6.1c0,3.4,1.9,5.1,10.2,7.1
			c13.8,3.3,16.6,7.9,16.6,14.7c0,8-6.3,13.8-17.7,13.8c-11.8,0-17.6-6-18.8-14.1L296.5,1475.6L296.5,1475.6z"/>
		<path class="st19" d="M339.1,1443.1c5.7,21.4,8.9,33.6,9.7,38.3h0.1c0.8-4.2,4-15.6,10.5-38.3h7.7c7.1,25.8,9.3,33.3,10,37.4h0.1
			c1.1-4.9,2.9-11.7,10.1-37.4h8l-14.1,45.6h-8.5c-4.4-16.6-8.8-32-9.8-37h-0.1c-0.8,5-4.9,18.9-10.1,37H344l-13.2-45.6H339.1z"/>
		<path class="st19" d="M409,1467.3c0.1,9.3,4.7,15.9,12.5,15.9c7.2,0,9.6-3.7,11-7.1h7.9c-1.8,5.8-6.7,13.6-19.2,13.6
			c-14.3,0-20.2-11.7-20.2-23.4c0-13.6,6.8-24.4,20.7-24.4c14.7,0,19.5,11.8,19.5,21.5c0,1.4,0,2.6-0.1,3.8L409,1467.3L409,1467.3z
			 M433.3,1461.7c-0.1-7.5-3.9-13.5-11.7-13.5c-8,0-11.6,5.6-12.4,13.5H433.3z"/>
		<path class="st19" d="M451.4,1455.5c0-6.4-0.1-10-0.1-12.4h7.7c0.1,1.3,0.2,4.9,0.2,9.3c2.4-6.2,7.8-10.2,15.4-10.4v7.9
			c-9.4,0.3-15.4,5.2-15.4,16.7v22.2h-7.9L451.4,1455.5L451.4,1455.5z"/>
		<path class="st19" d="M487.8,1467.3c0.1,9.3,4.7,15.9,12.5,15.9c7.2,0,9.6-3.7,11-7.1h7.9c-1.8,5.8-6.7,13.6-19.2,13.6
			c-14.3,0-20.2-11.7-20.2-23.4c0-13.6,6.8-24.4,20.7-24.4c14.7,0,19.5,11.8,19.5,21.5c0,1.4,0,2.6-0.1,3.8L487.8,1467.3
			L487.8,1467.3z M512.1,1461.7c-0.1-7.5-3.9-13.5-11.7-13.5c-8,0-11.6,5.6-12.4,13.5H512.1z"/>
		<path class="st19" d="M568.1,1422.6v53.2c0,4.3,0,8.5,0.1,12.9h-7.6c-0.2-1.2-0.4-4.7-0.4-6.5c-2.2,4.8-6.9,7.6-14.4,7.6
			c-11.7,0-18.9-9.5-18.9-23.4c0-14,7.8-24.4,20.4-24.4c8.1,0,11.7,3.3,12.9,5.8v-25.2H568.1z M535.1,1466.1c0,11,5.2,17,12.4,17
			c10.7,0,13-7.9,13-17.9c0-10.1-2.1-16.5-12.4-16.5C540.1,1448.7,535.1,1455,535.1,1466.1z"/>
		<path class="st19" d="M638.3,1478.7c0,4.2,0.4,8.6,0.6,10h-7.5c-0.4-1-0.6-3.2-0.7-6c-1.6,3-5.2,7.1-14.1,7.1
			c-10.8,0-15.4-7-15.4-13.9c0-10.2,8-14.8,21.6-14.8c3.2,0,6.1,0,7.8,0v-3.9c0-4-1.3-8.9-9.8-8.9c-7.6,0-8.9,3.8-9.7,7.3h-7.6
			c0.6-6.3,4.5-13.6,17.6-13.5c11.2,0,17.3,4.6,17.3,15L638.3,1478.7L638.3,1478.7z M630.6,1466.4c-1.5,0-4.9,0-7.4,0
			c-9.1,0-14,2.5-14,8.9c0,4.7,3.3,8.2,8.9,8.2c11,0,12.5-7.4,12.5-15.7V1466.4z"/>
		<path class="st19" d="M651.9,1454.6c0-4,0-8-0.1-11.5h7.7c0.2,1.3,0.3,6.1,0.3,7.5c1.8-3.9,5.5-8.6,14.4-8.6
			c8.6,0,15.2,5.2,15.2,17.4v29.3h-7.9v-28.3c0-6.9-2.7-11.5-9.7-11.5c-8.6,0-12.1,6.6-12.1,15.7v24.2h-7.9L651.9,1454.6
			L651.9,1454.6z"/>
		<path class="st19" d="M740.8,1422.6v53.2c0,4.3,0,8.5,0.1,12.9h-7.6c-0.2-1.2-0.4-4.7-0.4-6.5c-2.2,4.8-6.9,7.6-14.4,7.6
			c-11.7,0-18.9-9.5-18.9-23.4c0-14,7.8-24.4,20.4-24.4c8.1,0,11.7,3.3,12.9,5.8v-25.2H740.8z M707.8,1466.1c0,11,5.2,17,12.4,17
			c10.7,0,13-7.9,13-17.9c0-10.1-2.1-16.5-12.4-16.5C712.8,1448.7,707.8,1455,707.8,1466.1z"/>
		<path class="st19" d="M228.2,1588.7c0,4.2,0.4,8.6,0.6,10h-7.5c-0.4-1-0.6-3.2-0.7-6c-1.6,3-5.2,7.1-14.1,7.1
			c-10.8,0-15.4-7-15.4-13.9c0-10.2,8-14.8,21.6-14.8c3.2,0,6.1,0,7.8,0v-3.9c0-4-1.3-8.9-9.8-8.9c-7.6,0-8.9,3.8-9.7,7.3h-7.6
			c0.6-6.3,4.5-13.6,17.6-13.5c11.2,0,17.3,4.6,17.3,15v21.6H228.2z M220.5,1576.4c-1.5,0-4.9,0-7.4,0c-9.1,0-14,2.5-14,8.9
			c0,4.7,3.3,8.2,8.9,8.2c11,0,12.5-7.4,12.5-15.7V1576.4z"/>
		<path class="st19" d="M241.7,1598.7v-66.1h7.9v66.1H241.7z"/>
		<path class="st19" d="M266.9,1553.1c5.7,21.4,8.9,33.6,9.7,38.3h0.1c0.8-4.2,4-15.6,10.5-38.3h7.7c7.1,25.8,9.3,33.3,10,37.4h0.1
			c1.1-4.9,2.9-11.7,10.1-37.4h8l-14.1,45.6h-8.5c-4.4-16.6-8.8-32-9.8-37h-0.1c-0.8,5-4.9,18.9-10.1,37h-8.8l-13.2-45.6H266.9z"/>
		<path class="st19" d="M366.1,1588.7c0,4.2,0.4,8.6,0.6,10h-7.5c-0.4-1-0.6-3.2-0.7-6c-1.6,3-5.2,7.1-14.1,7.1
			c-10.8,0-15.4-7-15.4-13.9c0-10.2,8-14.8,21.6-14.8c3.2,0,6.1,0,7.8,0v-3.9c0-4-1.3-8.9-9.8-8.9c-7.6,0-8.9,3.8-9.7,7.3h-7.6
			c0.6-6.3,4.5-13.6,17.6-13.5c11.2,0,17.3,4.6,17.3,15L366.1,1588.7L366.1,1588.7z M358.4,1576.4c-1.5,0-4.9,0-7.4,0
			c-9.1,0-14,2.5-14,8.9c0,4.7,3.3,8.2,8.9,8.2c11,0,12.5-7.4,12.5-15.7V1576.4z"/>
		<path class="st19" d="M382.4,1553.1c7.4,21.9,11.4,34,12.6,38.6h0.1c1.5-5.2,4.7-15.6,12.2-38.6h8l-16.4,47.7
			c-4.6,13.4-8.1,16.7-17.4,16.7c-1.4,0-3.1-0.1-4.9-0.3v-6.9c1.2,0.1,2.5,0.2,3.8,0.2c5.8,0,8-2.5,10.7-10.2l-17.1-47.4h8.4V1553.1
			z"/>
		<path class="st19" d="M426.8,1585.6c1.3,5,5,7.9,11.2,7.9c6.7,0,9.3-2.9,9.3-7c0-4.3-2.1-6.2-10.8-8.4c-13-3.2-15.8-7.2-15.8-13.4
			c0-6.5,4.7-12.8,16.5-12.8s16.6,6.8,17.2,13.2h-7.6c-0.7-3-2.9-7.1-9.9-7.1c-6.4,0-8.3,3.1-8.3,6.1c0,3.4,1.9,5.1,10.2,7.1
			c13.8,3.3,16.6,7.9,16.6,14.7c0,8-6.3,13.8-17.7,13.8c-11.8,0-17.6-6-18.8-14.1L426.8,1585.6L426.8,1585.6z"/>
		<path class="st19" d="M496.2,1574.8c3.9-4.5,13.9-15.1,20.1-21.8h9.4l-17.2,17.8l19.1,27.9h-9.2l-15.3-22.8l-6.9,6.6v16.2h-7.9
			v-66.1h7.9L496.2,1574.8L496.2,1574.8z"/>
		<path class="st19" d="M538.4,1577.3c0.1,9.3,4.7,15.9,12.5,15.9c7.2,0,9.6-3.7,11-7.1h7.9c-1.8,5.8-6.7,13.6-19.2,13.6
			c-14.3,0-20.2-11.7-20.2-23.4c0-13.6,6.8-24.4,20.7-24.4c14.7,0,19.5,11.8,19.5,21.5c0,1.4,0,2.6-0.1,3.8L538.4,1577.3
			L538.4,1577.3z M562.7,1571.7c-0.1-7.5-3.9-13.5-11.7-13.5c-8,0-11.6,5.6-12.4,13.5H562.7z"/>
		<path class="st19" d="M585.5,1577.3c0.1,9.3,4.7,15.9,12.5,15.9c7.2,0,9.6-3.7,11-7.1h7.9c-1.8,5.8-6.7,13.6-19.2,13.6
			c-14.3,0-20.2-11.7-20.2-23.4c0-13.6,6.8-24.4,20.7-24.4c14.7,0,19.5,11.8,19.5,21.5c0,1.4,0,2.6-0.1,3.8L585.5,1577.3
			L585.5,1577.3z M609.8,1571.7c-0.1-7.5-3.9-13.5-11.7-13.5c-8,0-11.6,5.6-12.4,13.5H609.8z"/>
		<path class="st19" d="M635.7,1593v23.6h-7.8v-52.4c0-3.7,0-7.6-0.1-11.1h7.7c0.2,1.5,0.3,4.3,0.3,7.2c2.5-4.6,7.1-8.3,14.9-8.3
			c10.6,0,18.2,8.8,18.2,22.7c0,16.3-8.8,25.1-19.8,25.1C641.6,1599.8,637.8,1596.7,635.7,1593z M660.7,1575
			c0-9.7-4.4-16.3-12.2-16.3c-9.5,0-13.2,6-13.2,17.1c0,10.8,3.1,17.3,12.6,17.3C656.3,1593.1,660.7,1586.2,660.7,1575z"/>
		<path class="st19" d="M738.5,1585.4c0,4.4,0.1,10.6,0.1,13.3H731c-0.2-1.2-0.3-4-0.3-6.8c-2.2,5.1-6.6,7.9-13.8,7.9
			c-7.7,0-15.1-3.8-15.1-16.7v-30h7.8v28.3c0,6,1.9,11.5,9.4,11.5c8.4,0,11.6-4.7,11.6-16.1V1553h7.9L738.5,1585.4L738.5,1585.4z"/>
		<path class="st19" d="M759.9,1593v23.6H752v-52.4c0-3.7,0-7.6-0.1-11.1h7.7c0.2,1.5,0.3,4.3,0.3,7.2c2.5-4.6,7.1-8.3,14.9-8.3
			c10.6,0,18.2,8.8,18.2,22.7c0,16.3-8.8,25.1-19.8,25.1C765.8,1599.8,761.9,1596.7,759.9,1593z M784.9,1575
  		c0-9.7-4.4-16.3-12.2-16.3c-9.5,0-13.2,6-13.2,17.1c0,10.8,3.1,17.3,12.6,17.3C780.4,1593.1,784.9,1586.2,784.9,1575z"/>
  </g>

  <!-- Popover 2 -->
  <g id="popover-2" class="popover popover-2">
  	<g id="layer1_2_" transform="translate(0,-772.36218)">
  		<path id="path13588_2_" class="st18" d="M1417.7,2338.3h588.8l100.5-36.1l100.5,36.1h588.8c23.9,0,43.1,8.1,43.1,18.1v653.4
  			c0,10-19.2,18.1-43.1,18.1H1417.6c-23.9,0-43.1-8.1-43.1-18.1v-653.4C1374.6,2346.4,1393.8,2338.1,1417.7,2338.3z"/>
  	</g>
  </g>

  <!-- Header 2 -->
  <g id="header-2" class="header header-2">
		<path class="st0" d="M1458.6,1672.8h35.5c27.5,0,46,18.6,46,47.6c0,28.7-18,49.6-46.5,49.6h-34.9L1458.6,1672.8L1458.6,1672.8z
			 M1473,1757.9h19.5c22.1,0,32.5-15.9,32.5-37.3c0-18.6-9.5-35.7-32.4-35.7H1473V1757.9z"/>
		<path class="st0" d="M1619.8,1734.2c0,20.7-12,37.5-33.9,37.5c-20.7,0-33.2-15.8-33.2-37.2c0-21.2,12.3-37.4,34-37.4
			C1606.7,1697,1619.8,1711.9,1619.8,1734.2z M1566.7,1734.4c0,15.3,7.4,26,19.6,26c12.4,0,19.3-10.3,19.3-26
			c0-15.8-6.9-26.1-19.6-26.1C1573.5,1708.3,1566.7,1718.3,1566.7,1734.4z"/>
		<path class="st0" d="M1642.9,1698.7c8.4,32.5,13.1,51.1,14.4,58.7h0.2c1.3-6.9,5.8-23.4,15.6-58.7h13.3
			c10.5,39.3,13.7,50.8,14.8,57.4h0.1c1.7-7.6,4.4-18.3,15-57.4h13.8l-21.8,71.3h-14.8c-6.7-26.2-12.9-48.4-14.4-56.4h-0.1
			c-1.3,8-7.2,28.6-14.9,56.4h-15.2l-20.6-71.3H1642.9z"/>
		<path class="st0" d="M1743.7,1716.7c0-6.2,0-12.5-0.1-18h13.4c0.3,2,0.5,9,0.5,11.2c2.8-5.8,8.6-12.9,22.1-12.9
			s23.8,8.5,23.8,27.2v45.7h-13.7v-44c0-10.2-3.9-17.2-14.4-17.2c-12.5,0-17.8,9.2-17.8,23.1v38.1h-13.7v-53.2H1743.7z"/>
		<path class="st0" d="M1823.6,1770v-102.7h13.7V1770H1823.6z"/>
		<path class="st0" d="M1920,1734.2c0,20.7-12,37.5-33.9,37.5c-20.7,0-33.2-15.8-33.2-37.2c0-21.2,12.3-37.4,34-37.4
			C1906.9,1697,1920,1711.9,1920,1734.2z M1866.9,1734.4c0,15.3,7.4,26,19.6,26c12.4,0,19.3-10.3,19.3-26c0-15.8-6.9-26.1-19.6-26.1
			C1873.7,1708.3,1866.9,1718.3,1866.9,1734.4z"/>
		<path class="st0" d="M1989.7,1753.9c0,6.5,0.6,14.1,1,16.1h-13.1c-0.6-1.6-1-5-1.1-8.9c-2.5,4.6-8,10.6-21.6,10.6
			c-16.9,0-24.1-11-24.1-21.9c0-16,12.6-23.3,33.7-23.3c4.7,0,9.2,0,11.8,0v-5.7c0-6-2-13.2-14.5-13.2c-11.2,0-13.2,5.4-14.4,10.9
			h-13.2c1-10.4,7.4-21.5,28.1-21.4c17.7,0.1,27.5,7.2,27.5,23.6v33.2H1989.7z M1976.3,1735.7c-2.2,0-7.3,0-10.9,0
			c-13.8,0-20.7,3.9-20.7,13.3c0,7,4.7,12.2,13.2,12.2c16.3,0,18.4-11,18.4-23.3V1735.7z"/>
		<path class="st0" d="M2070.8,1667.3v82.6c0,6.7,0,13.2,0.1,20h-13.2c-0.3-1.9-0.6-7.1-0.7-9.6c-3.5,7.1-10.5,11.3-22,11.3
			c-18.3,0-29.6-14.8-29.6-36.6c0-21.9,12.2-38,32-38c12.2,0,17.8,4.8,19.6,8.7v-38.4H2070.8z M2019.7,1734.7
			c0,16.6,7.6,25.5,18.5,25.5c16.1,0,19.3-12.1,19.3-26.7c0-15.1-3-25-18.4-25C2027,1708.5,2019.7,1718.1,2019.7,1734.7z"/>
		<path class="st0" d="M2180.4,1753.9c0,6.5,0.6,14.1,1,16.1h-13.1c-0.6-1.6-1-5-1.1-8.9c-2.5,4.6-8,10.6-21.6,10.6
			c-16.9,0-24.1-11-24.1-21.9c0-16,12.6-23.3,33.7-23.3c4.7,0,9.2,0,11.8,0v-5.7c0-6-2-13.2-14.5-13.2c-11.2,0-13.2,5.4-14.4,10.9
			h-13.2c1-10.4,7.4-21.5,28.1-21.4c17.7,0.1,27.5,7.2,27.5,23.6L2180.4,1753.9L2180.4,1753.9z M2167,1735.7c-2.2,0-7.3,0-10.9,0
			c-13.8,0-20.7,3.9-20.7,13.3c0,7,4.7,12.2,13.2,12.2c16.3,0,18.4-11,18.4-23.3V1735.7z"/>
		<path class="st0" d="M2201,1716.7c0-6.2,0-12.5-0.1-18h13.4c0.3,2,0.5,9,0.5,11.2c2.8-5.8,8.6-12.9,22.1-12.9s23.8,8.5,23.8,27.2
			v45.7H2247v-44c0-10.2-3.9-17.2-14.4-17.2c-12.5,0-17.8,9.2-17.8,23.1v38.1H2201V1716.7z"/>
		<path class="st0" d="M2341.4,1667.3v82.6c0,6.7,0,13.2,0.1,20h-13.2c-0.3-1.9-0.6-7.1-0.7-9.6c-3.5,7.1-10.5,11.3-22,11.3
			c-18.3,0-29.6-14.8-29.6-36.6c0-21.9,12.2-38,32-38c12.2,0,17.8,4.8,19.6,8.7v-38.4H2341.4z M2290.3,1734.7
			c0,16.6,7.6,25.5,18.5,25.5c16.1,0,19.3-12.1,19.3-26.7c0-15.1-3-25-18.4-25C2297.6,1708.5,2290.3,1718.1,2290.3,1734.7z"/>
		<path class="st0" d="M2404.5,1749.4c1.9,7.4,7.5,11.7,16.7,11.7c9.9,0,13.7-4.1,13.7-10.2c0-6.3-3.2-9.1-16.2-12.2
			c-20.9-5.1-25.1-11.5-25.1-21.3c0-10.2,7.4-20.3,26.3-20.3c19,0,26.5,10.9,27.4,20.7H2434c-0.9-4.2-4.1-10.4-14.7-10.4
			c-9.3,0-12.1,4.4-12.1,8.8c0,5,2.8,7.4,15.6,10.5c22,5.2,26.2,12.6,26.2,23.2c0,12.4-9.7,21.8-28.2,21.8
			c-19.1,0-28.1-9.5-29.9-22.3L2404.5,1749.4L2404.5,1749.4z"/>
		<path class="st0" d="M2455.5,1698.7h12.1V1678h13.7v20.7h15.4v11h-15.4v40.5c0,6.6,1.7,9.9,8,9.9c1.6,0,4-0.1,5.9-0.5v10.1
			c-3.2,1.2-7.6,1.3-11.2,1.3c-11.6,0-16.5-6.1-16.5-18v-43.2h-12.1v-11.1H2455.5z"/>
		<path class="st0" d="M2568.3,1749.2c0,6.9,0.1,16.1,0.1,20.8H2555c-0.3-1.9-0.4-6.1-0.5-10.2c-3.6,7.8-10.4,11.9-21.2,11.9
			c-12.5,0-23.6-6.5-23.6-26.2v-46.8h13.7v43.9c0,9.1,2.8,17.3,14,17.3c12.3,0,17.1-6.8,17.1-23.9v-37.3h13.7v50.5H2568.3z"/>
		<path class="st0" d="M2649.2,1667.3v82.6c0,6.7,0,13.2,0.1,20h-13.2c-0.3-1.9-0.6-7.1-0.7-9.6c-3.5,7.1-10.5,11.3-22,11.3
			c-18.3,0-29.6-14.8-29.6-36.6c0-21.9,12.2-38,32-38c12.2,0,17.8,4.8,19.6,8.7v-38.4H2649.2z M2598.1,1734.7
			c0,16.6,7.6,25.5,18.5,25.5c16.1,0,19.3-12.1,19.3-26.7c0-15.1-3-25-18.4-25C2605.4,1708.5,2598.1,1718.1,2598.1,1734.7z"/>
		<path class="st0" d="M2675.4,1698.7c10.7,32.3,17.1,51.8,18.8,58.9h0.1c2.2-7.9,7.1-24.1,18.1-58.9h13.8L2701,1773
			c-7.2,20.8-12.6,26.2-27.7,26.2c-2.1,0-5.1-0.1-8-0.5V1787c1.7,0.2,3.8,0.4,5.7,0.4c8.7,0,12.2-3.7,16.1-14.8l-26.5-73.9H2675.4z"
			/>
  </g>

  <!-- Text 2 -->
  <g id="text-2" class="text text-2">
		<path class="st19" d="M1454.2,1858.2h22.4c17.6,0,29.5,12,29.5,30.7c0,18.5-11.6,31.9-29.8,31.9h-22.1V1858.2z M1462.5,1913.8
			h13.1c14.7,0,21.7-10.6,21.7-24.7c0-12.4-6.4-23.8-21.7-23.8h-13.2L1462.5,1913.8L1462.5,1913.8z"/>
		<path class="st19" d="M1556.8,1897.9c0,13.1-7.5,24-21.5,24c-13.1,0-21-10.1-21-23.8c0-13.5,7.7-24,21.5-24
			C1548.5,1874.1,1556.8,1883.6,1556.8,1897.9z M1522.5,1898c0,10,5,17.3,13.2,17.3c8.3,0,13-6.9,13-17.3c0-10.3-4.7-17.3-13.2-17.3
			S1522.5,1887.6,1522.5,1898z"/>
		<path class="st19" d="M1570.9,1875.2c5.7,21.4,8.9,33.6,9.7,38.3h0.1c0.8-4.2,4-15.6,10.5-38.3h7.7c7.1,25.8,9.3,33.3,10,37.4h0.1
			c1.1-4.9,2.9-11.7,10.1-37.4h8l-14.1,45.6h-8.5c-4.4-16.6-8.8-32-9.8-37h-0.1c-0.8,5-4.9,18.9-10.1,37h-8.8l-13.2-45.6H1570.9z"/>
		<path class="st19" d="M1636.1,1886.7c0-4,0-8-0.1-11.5h7.7c0.2,1.3,0.3,6.1,0.3,7.5c1.8-3.9,5.5-8.6,14.4-8.6
			c8.6,0,15.2,5.2,15.2,17.4v29.3h-7.9v-28.3c0-6.9-2.7-11.5-9.7-11.5c-8.6,0-12.1,6.6-12.1,15.7v24.2h-7.9L1636.1,1886.7
			L1636.1,1886.7z"/>
		<path class="st19" d="M1687,1920.8v-66.1h7.9v66.1H1687z"/>
		<path class="st19" d="M1747.6,1897.9c0,13.1-7.5,24-21.5,24c-13.1,0-21-10.1-21-23.8c0-13.5,7.7-24,21.5-24
			C1739.3,1874.1,1747.6,1883.6,1747.6,1897.9z M1713.3,1898c0,10,5,17.3,13.2,17.3c8.3,0,13-6.9,13-17.3c0-10.3-4.7-17.3-13.2-17.3
			C1717.7,1880.7,1713.3,1887.6,1713.3,1898z"/>
		<path class="st19" d="M1791.8,1910.9c0,4.2,0.4,8.6,0.6,10h-7.5c-0.4-1-0.6-3.2-0.7-6c-1.6,3-5.2,7.1-14.1,7.1
			c-10.8,0-15.4-7-15.4-13.9c0-10.2,8-14.8,21.6-14.8c3.2,0,6.1,0,7.8,0v-3.9c0-4-1.3-8.9-9.8-8.9c-7.6,0-8.9,3.8-9.7,7.3h-7.6
			c0.6-6.3,4.5-13.6,17.6-13.5c11.2,0,17.3,4.6,17.3,15v21.6H1791.8z M1784.2,1898.6c-1.5,0-4.9,0-7.4,0c-9.1,0-14,2.5-14,8.9
			c0,4.7,3.3,8.2,8.9,8.2c11,0,12.5-7.4,12.5-15.7V1898.6z"/>
		<path class="st19" d="M1843.4,1854.8v53.2c0,4.3,0,8.5,0.1,12.9h-7.6c-0.2-1.2-0.4-4.7-0.4-6.5c-2.2,4.8-6.9,7.6-14.4,7.6
			c-11.7,0-18.9-9.5-18.9-23.4c0-14,7.8-24.4,20.4-24.4c8.1,0,11.7,3.3,12.9,5.8v-25.2H1843.4z M1810.4,1898.2c0,11,5.2,17,12.4,17
			c10.7,0,13-7.9,13-17.9c0-10.1-2.1-16.5-12.4-16.5C1815.4,1880.8,1810.4,1887.2,1810.4,1898.2z"/>
		<path class="st19" d="M1884.3,1899.4c0.1,9.3,4.7,15.9,12.5,15.9c7.2,0,9.6-3.7,11-7.1h7.9c-1.8,5.8-6.7,13.6-19.2,13.6
			c-14.3,0-20.2-11.7-20.2-23.4c0-13.6,6.8-24.4,20.7-24.4c14.7,0,19.5,11.8,19.5,21.5c0,1.4,0,2.6-0.1,3.8L1884.3,1899.4
			L1884.3,1899.4z M1908.6,1893.9c-0.1-7.5-3.9-13.5-11.7-13.5c-8,0-11.6,5.6-12.4,13.5H1908.6z"/>
		<path class="st19" d="M1929.4,1875.2c6.1,18.7,10.6,32.6,12,38.3h0.1c1.1-5.1,6-18.7,12.8-38.3h8l-16.8,45.6h-8.7l-15.9-45.6
			H1929.4z"/>
		<path class="st19" d="M1974.9,1899.4c0.1,9.3,4.7,15.9,12.5,15.9c7.2,0,9.6-3.7,11-7.1h7.9c-1.8,5.8-6.7,13.6-19.2,13.6
			c-14.3,0-20.2-11.7-20.2-23.4c0-13.6,6.8-24.4,20.7-24.4c14.7,0,19.5,11.8,19.5,21.5c0,1.4,0,2.6-0.1,3.8L1974.9,1899.4
			L1974.9,1899.4z M1999.2,1893.9c-0.1-7.5-3.9-13.5-11.7-13.5c-8,0-11.6,5.6-12.4,13.5H1999.2z"/>
		<path class="st19" d="M2017.3,1887.6c0-6.4-0.1-10-0.1-12.4h7.7c0.1,1.3,0.2,4.9,0.2,9.3c2.4-6.2,7.8-10.2,15.4-10.4v7.9
			c-9.4,0.3-15.4,5.2-15.4,16.7v22.2h-7.9v-33.3H2017.3z"/>
		<path class="st19" d="M2051.7,1875.2c7.4,21.9,11.4,34,12.6,38.6h0.1c1.5-5.2,4.7-15.6,12.2-38.6h8l-16.4,47.7
			c-4.6,13.4-8.1,16.7-17.4,16.7c-1.4,0-3.1-0.1-4.9-0.3v-6.9c1.2,0.1,2.5,0.2,3.8,0.2c5.8,0,8-2.5,10.7-10.2l-17.1-47.4h8.4V1875.2
			z"/>
		<path class="st19" d="M2116.5,1920.8v-39.2h-7.4v-6.4h7.4v-5.5c0-8.4,3.2-15.9,13.3-15.9c1.7,0,3.9,0.2,5,0.6v6.7
			c-1.1-0.3-2.8-0.4-4-0.4c-4.7,0-6.5,2.8-6.5,9.5v5h9.1v6.4h-9.1v39.2L2116.5,1920.8L2116.5,1920.8z"/>
		<path class="st19" d="M2140.5,1854.8h7.9v9.8h-7.9V1854.8z M2140.5,1875.2h7.9v45.6h-7.9V1875.2z"/>
		<path class="st19" d="M2161.9,1920.8v-66.1h7.9v66.1H2161.9z"/>
		<path class="st19" d="M2187.9,1899.4c0.1,9.3,4.7,15.9,12.5,15.9c7.2,0,9.6-3.7,11-7.1h7.9c-1.8,5.8-6.7,13.6-19.2,13.6
			c-14.3,0-20.2-11.7-20.2-23.4c0-13.6,6.8-24.4,20.7-24.4c14.7,0,19.5,11.8,19.5,21.5c0,1.4,0,2.6-0.1,3.8L2187.9,1899.4
			L2187.9,1899.4z M2212.2,1893.9c-0.1-7.5-3.9-13.5-11.7-13.5c-8,0-11.6,5.6-12.4,13.5H2212.2z"/>
		<path class="st19" d="M2255.8,1875.2c7.4,21.9,11.4,34,12.6,38.6h0.1c1.5-5.2,4.7-15.6,12.2-38.6h8l-16.4,47.7
			c-4.6,13.4-8.1,16.7-17.4,16.7c-1.4,0-3.1-0.1-4.9-0.3v-6.9c1.2,0.1,2.5,0.2,3.8,0.2c5.8,0,8-2.5,10.7-10.2l-17.1-47.4h8.4V1875.2
			z"/>
		<path class="st19" d="M2335.6,1897.9c0,13.1-7.5,24-21.5,24c-13.1,0-21-10.1-21-23.8c0-13.5,7.7-24,21.5-24
			C2327.3,1874.1,2335.6,1883.6,2335.6,1897.9z M2301.2,1898c0,10,5,17.3,13.2,17.3c8.3,0,13-6.9,13-17.3c0-10.3-4.7-17.3-13.2-17.3
			S2301.2,1887.6,2301.2,1898z"/>
		<path class="st19" d="M2382.4,1907.5c0,4.4,0.1,10.6,0.1,13.3h-7.7c-0.2-1.2-0.3-4-0.3-6.8c-2.2,5.1-6.6,7.9-13.8,7.9
			c-7.7,0-15.1-3.8-15.1-16.7v-30h7.8v28.3c0,6,1.9,11.5,9.4,11.5c8.4,0,11.6-4.7,11.6-16.1v-23.8h7.9v32.4H2382.4z"/>
		<path class="st19" d="M2418.7,1886.7c0-4,0-8-0.1-11.5h7.7c0.2,1.3,0.3,6.1,0.3,7.5c1.8-3.9,5.5-8.6,14.4-8.6
			c8.6,0,15.2,5.2,15.2,17.4v29.3h-7.9v-28.3c0-6.9-2.7-11.5-9.7-11.5c-8.6,0-12.1,6.6-12.1,15.7v24.2h-7.9v-34.2H2418.7z"/>
		<path class="st19" d="M2474.3,1899.4c0.1,9.3,4.7,15.9,12.5,15.9c7.2,0,9.6-3.7,11-7.1h7.9c-1.8,5.8-6.7,13.6-19.2,13.6
			c-14.3,0-20.2-11.7-20.2-23.4c0-13.6,6.8-24.4,20.7-24.4c14.7,0,19.5,11.8,19.5,21.5c0,1.4,0,2.6-0.1,3.8L2474.3,1899.4
			L2474.3,1899.4z M2498.6,1893.9c-0.1-7.5-3.9-13.5-11.7-13.5c-8,0-11.6,5.6-12.4,13.5H2498.6z"/>
		<path class="st19" d="M2521.4,1899.4c0.1,9.3,4.7,15.9,12.5,15.9c7.2,0,9.6-3.7,11-7.1h7.9c-1.8,5.8-6.7,13.6-19.2,13.6
			c-14.3,0-20.2-11.7-20.2-23.4c0-13.6,6.8-24.4,20.7-24.4c14.7,0,19.5,11.8,19.5,21.5c0,1.4,0,2.6-0.1,3.8L2521.4,1899.4
			L2521.4,1899.4z M2545.7,1893.9c-0.1-7.5-3.9-13.5-11.7-13.5c-8,0-11.6,5.6-12.4,13.5H2545.7z"/>
		<path class="st19" d="M2601.8,1854.8v53.2c0,4.3,0,8.5,0.1,12.9h-7.6c-0.2-1.2-0.4-4.7-0.4-6.5c-2.2,4.8-6.9,7.6-14.4,7.6
			c-11.7,0-18.9-9.5-18.9-23.4c0-14,7.8-24.4,20.4-24.4c8.1,0,11.7,3.3,12.9,5.8v-25.2H2601.8z M2568.8,1898.2c0,11,5.2,17,12.4,17
			c10.7,0,13-7.9,13-17.9c0-10.1-2.1-16.5-12.4-16.5C2573.7,1880.8,2568.8,1887.2,2568.8,1898.2z"/>
		<path class="st19" d="M2608.7,1931.2c4.7-10,6-17.9,6.4-23.6h8c-0.8,8-3.7,17.4-8,23.6H2608.7z"/>
		<path class="st19" d="M1454.1,2030.8v-39.2h-7.4v-6.4h7.4v-5.5c0-8.4,3.2-15.9,13.3-15.9c1.7,0,3.9,0.2,5,0.6v6.7
			c-1.1-0.3-2.8-0.4-4-0.4c-4.7,0-6.5,2.8-6.5,9.5v5h9.1v6.4h-9.1v39.2L1454.1,2030.8L1454.1,2030.8z"/>
		<path class="st19" d="M1517.4,2007.9c0,13.1-7.5,24-21.5,24c-13.1,0-21-10.1-21-23.8c0-13.5,7.7-24,21.5-24
			C1509.1,1984.1,1517.4,1993.6,1517.4,2007.9z M1483,2008c0,10,5,17.3,13.2,17.3c8.3,0,13-6.9,13-17.3c0-10.3-4.7-17.3-13.2-17.3
			S1483,1997.6,1483,2008z"/>
		<path class="st19" d="M1527.6,2030.8v-66.1h7.9v66.1H1527.6z"/>
		<path class="st19" d="M1549,2030.8v-66.1h7.9v66.1H1549z"/>
		<path class="st19" d="M1609.6,2007.9c0,13.1-7.5,24-21.5,24c-13.1,0-21-10.1-21-23.8c0-13.5,7.7-24,21.5-24
			C1601.3,1984.1,1609.6,1993.6,1609.6,2007.9z M1575.2,2008c0,10,5,17.3,13.2,17.3c8.3,0,13-6.9,13-17.3c0-10.3-4.7-17.3-13.2-17.3
			S1575.2,1997.6,1575.2,2008z"/>
		<path class="st19" d="M1623.6,1985.2c5.7,21.4,8.9,33.6,9.7,38.3h0.1c0.8-4.2,4-15.6,10.5-38.3h7.7c7.1,25.8,9.3,33.3,10,37.4h0.1
			c1.1-4.9,2.9-11.7,10.1-37.4h8l-14.1,45.6h-8.5c-4.4-16.6-8.8-32-9.8-37h-0.1c-0.8,5-4.9,18.9-10.1,37h-8.8l-13.2-45.6H1623.6z"/>
		<path class="st19" d="M1705.7,1985.2h7.9v-13.5h7.9v13.5h10.1v6.4h-10.1v26.7c0,4.4,1.1,6.7,5.2,6.7c1.1,0,2.7-0.1,4-0.4v5.9
			c-1.9,0.7-4.6,0.8-6.8,0.8c-7.1,0-10.2-3.7-10.2-11.3v-28.6h-7.9L1705.7,1985.2L1705.7,1985.2z"/>
		<path class="st19" d="M1748.1,1964.8v27.2c2.3-4,6.5-7.8,14.2-7.8c7.3,0,15.4,4,15.4,17.6v29.1h-7.8V2003c0-7.8-3.3-12.1-9.9-12.1
			c-8.2,0-11.8,5.4-11.8,14.9v24.9h-7.9v-66.1h7.8V1964.8z"/>
		<path class="st19" d="M1796,2009.4c0.1,9.3,4.7,15.9,12.5,15.9c7.2,0,9.6-3.7,11-7.1h7.9c-1.8,5.8-6.7,13.6-19.2,13.6
			c-14.3,0-20.2-11.7-20.2-23.4c0-13.6,6.8-24.4,20.7-24.4c14.7,0,19.5,11.8,19.5,21.5c0,1.4,0,2.6-0.1,3.8L1796,2009.4L1796,2009.4
			z M1820.2,2003.9c-0.1-7.5-3.9-13.5-11.7-13.5c-8,0-11.6,5.6-12.4,13.5H1820.2z"/>
		<path class="st19" d="M1855.2,1985.2h7.9v-13.5h7.9v13.5h10.1v6.4H1871v26.7c0,4.4,1.1,6.7,5.2,6.7c1.1,0,2.7-0.1,4-0.4v5.9
			c-1.9,0.7-4.6,0.8-6.8,0.8c-7.1,0-10.2-3.7-10.2-11.3v-28.6h-7.9L1855.2,1985.2L1855.2,1985.2z"/>
		<path class="st19" d="M1894.5,2009.4c0.1,9.3,4.7,15.9,12.5,15.9c7.2,0,9.6-3.7,11-7.1h7.9c-1.8,5.8-6.7,13.6-19.2,13.6
			c-14.3,0-20.2-11.7-20.2-23.4c0-13.6,6.8-24.4,20.7-24.4c14.7,0,19.5,11.8,19.5,21.5c0,1.4,0,2.6-0.1,3.8L1894.5,2009.4
			L1894.5,2009.4z M1918.8,2003.9c-0.1-7.5-3.9-13.5-11.7-13.5c-8,0-11.6,5.6-12.4,13.5H1918.8z"/>
		<path class="st19" d="M1970.9,2020.9c0,4.2,0.4,8.6,0.6,10h-7.5c-0.4-1-0.6-3.2-0.7-6c-1.6,3-5.2,7.1-14.1,7.1
			c-10.8,0-15.4-7-15.4-13.9c0-10.2,8-14.8,21.6-14.8c3.2,0,6.1,0,7.8,0v-3.9c0-4-1.3-8.9-9.8-8.9c-7.6,0-8.9,3.8-9.7,7.3h-7.6
			c0.6-6.3,4.5-13.6,17.6-13.5c11.2,0,17.3,4.6,17.3,15v21.6H1970.9z M1963.2,2008.6c-1.5,0-4.9,0-7.4,0c-9.1,0-14,2.5-14,8.9
			c0,4.7,3.3,8.2,8.9,8.2c11,0,12.5-7.4,12.5-15.7V2008.6z"/>
		<path class="st19" d="M2020.5,2016.9c-1.9,7.9-7.3,15-18.9,15c-12.6,0-20.3-9-20.3-23.7c0-12.9,7.3-24.1,20.9-24.1
			c13.2,0,17.7,9.4,18.3,15.3h-7.8c-1.1-4.6-4-8.7-10.6-8.7c-8.1,0-12.6,6.9-12.6,17.3s4.4,17.4,12.4,17.4c5.7,0,9-3,10.9-8.5
			L2020.5,2016.9L2020.5,2016.9z"/>
		<path class="st19" d="M2037.9,1964.8v27.2c2.3-4,6.5-7.8,14.2-7.8c7.3,0,15.4,4,15.4,17.6v29.1h-7.8V2003c0-7.8-3.3-12.1-9.9-12.1
			c-8.2,0-11.8,5.4-11.8,14.9v24.9h-7.9v-66.1h7.8V1964.8z"/>
		<path class="st19" d="M2085.7,2009.4c0.1,9.3,4.7,15.9,12.5,15.9c7.2,0,9.6-3.7,11-7.1h7.9c-1.8,5.8-6.7,13.6-19.2,13.6
			c-14.3,0-20.2-11.7-20.2-23.4c0-13.6,6.8-24.4,20.7-24.4c14.7,0,19.5,11.8,19.5,21.5c0,1.4,0,2.6-0.1,3.8L2085.7,2009.4
			L2085.7,2009.4z M2110,2003.9c-0.1-7.5-3.9-13.5-11.7-13.5c-8,0-11.6,5.6-12.4,13.5H2110z"/>
		<path class="st19" d="M2128,1997.6c0-6.4-0.1-10-0.1-12.4h7.7c0.1,1.3,0.2,4.9,0.2,9.3c2.4-6.2,7.8-10.2,15.4-10.4v7.9
			c-9.4,0.3-15.4,5.2-15.4,16.7v22.2h-7.9v-33.3H2128z"/>
		<path class="st19" d="M2155.4,1988.5c2.5-7.7,4-18,4.1-23.8h8.2c-0.5,7.5-3.1,18-5.8,23.8H2155.4z"/>
		<path class="st19" d="M2181.6,2017.8c1.3,5,5,7.9,11.2,7.9c6.7,0,9.3-2.9,9.3-7c0-4.3-2.1-6.2-10.8-8.4
			c-13-3.2-15.8-7.2-15.8-13.4c0-6.5,4.7-12.8,16.5-12.8s16.6,6.8,17.2,13.2h-7.6c-0.7-3-2.9-7.1-9.9-7.1c-6.4,0-8.3,3.1-8.3,6.1
			c0,3.4,1.9,5.1,10.2,7.1c13.8,3.3,16.6,7.9,16.6,14.7c0,8-6.3,13.8-17.7,13.8c-11.8,0-17.6-6-18.8-14.1L2181.6,2017.8
			L2181.6,2017.8z"/>
		<path class="st19" d="M2243.1,1964.8h7.9v9.8h-7.9V1964.8z M2243.1,1985.2h7.9v45.6h-7.9V1985.2z"/>
		<path class="st19" d="M2264.5,1996.7c0-4,0-8-0.1-11.5h7.7c0.2,1.3,0.3,6.1,0.3,7.5c1.8-3.9,5.5-8.6,14.4-8.6
			c8.6,0,15.2,5.2,15.2,17.4v29.3h-7.9v-28.3c0-6.9-2.7-11.5-9.7-11.5c-8.6,0-12.1,6.6-12.1,15.7v24.2h-7.9v-34.2H2264.5z"/>
		<path class="st19" d="M2319.2,2017.8c1.3,5,5,7.9,11.2,7.9c6.7,0,9.3-2.9,9.3-7c0-4.3-2.1-6.2-10.8-8.4
			c-13-3.2-15.8-7.2-15.8-13.4c0-6.5,4.7-12.8,16.5-12.8s16.6,6.8,17.2,13.2h-7.6c-0.7-3-2.9-7.1-9.9-7.1c-6.4,0-8.3,3.1-8.3,6.1
			c0,3.4,1.9,5.1,10.2,7.1c13.8,3.3,16.6,7.9,16.6,14.7c0,8-6.3,13.8-17.7,13.8c-11.8,0-17.6-6-18.8-14.1L2319.2,2017.8
			L2319.2,2017.8z"/>
		<path class="st19" d="M2352.1,1985.2h7.9v-13.5h7.9v13.5h10.1v6.4h-10.1v26.7c0,4.4,1.1,6.7,5.2,6.7c1.1,0,2.7-0.1,4-0.4v5.9
			c-1.9,0.7-4.6,0.8-6.8,0.8c-7.1,0-10.2-3.7-10.2-11.3v-28.6h-7.9L2352.1,1985.2L2352.1,1985.2z"/>
		<path class="st19" d="M2386.6,1997.6c0-6.4-0.1-10-0.1-12.4h7.7c0.1,1.3,0.2,4.9,0.2,9.3c2.4-6.2,7.8-10.2,15.4-10.4v7.9
			c-9.4,0.3-15.4,5.2-15.4,16.7v22.2h-7.9v-33.3H2386.6z"/>
		<path class="st19" d="M2455,2017.5c0,4.4,0.1,10.6,0.1,13.3h-7.7c-0.2-1.2-0.3-4-0.3-6.8c-2.2,5.1-6.6,7.9-13.8,7.9
			c-7.7,0-15.1-3.8-15.1-16.7v-30h7.8v28.3c0,6,1.9,11.5,9.4,11.5c8.4,0,11.6-4.7,11.6-16.1v-23.8h7.9v32.4H2455z"/>
		<path class="st19" d="M2504.5,2016.9c-1.9,7.9-7.3,15-18.9,15c-12.6,0-20.3-9-20.3-23.7c0-12.9,7.3-24.1,20.9-24.1
			c13.2,0,17.7,9.4,18.3,15.3h-7.8c-1.1-4.6-4-8.7-10.6-8.7c-8.1,0-12.6,6.9-12.6,17.3s4.4,17.4,12.4,17.4c5.7,0,9-3,10.9-8.5
			L2504.5,2016.9L2504.5,2016.9z"/>
		<path class="st19" d="M2508.1,1985.2h7.9v-13.5h7.9v13.5h10.1v6.4h-10.1v26.7c0,4.4,1.1,6.7,5.2,6.7c1.1,0,2.7-0.1,4-0.4v5.9
			c-1.9,0.7-4.6,0.8-6.8,0.8c-7.1,0-10.2-3.7-10.2-11.3v-28.6h-7.9L2508.1,1985.2L2508.1,1985.2z"/>
		<path class="st19" d="M2542.7,1964.8h7.9v9.8h-7.9V1964.8z M2542.7,1985.2h7.9v45.6h-7.9V1985.2z"/>
		<path class="st19" d="M2603.3,2007.9c0,13.1-7.5,24-21.5,24c-13.1,0-21-10.1-21-23.8c0-13.5,7.7-24,21.5-24
			C2595,1984.1,2603.3,1993.6,2603.3,2007.9z M2568.9,2008c0,10,5,17.3,13.2,17.3c8.3,0,13-6.9,13-17.3c0-10.3-4.7-17.3-13.2-17.3
			S2568.9,1997.6,2568.9,2008z"/>
		<path class="st19" d="M2613.5,1996.7c0-4,0-8-0.1-11.5h7.7c0.2,1.3,0.3,6.1,0.3,7.5c1.8-3.9,5.5-8.6,14.4-8.6
			c8.6,0,15.2,5.2,15.2,17.4v29.3h-7.9v-28.3c0-6.9-2.7-11.5-9.7-11.5c-8.6,0-12.1,6.6-12.1,15.7v24.2h-7.9v-34.2H2613.5z"/>
		<path class="st19" d="M2668.3,2017.8c1.3,5,5,7.9,11.2,7.9c6.7,0,9.3-2.9,9.3-7c0-4.3-2.1-6.2-10.8-8.4
			c-13-3.2-15.8-7.2-15.8-13.4c0-6.5,4.7-12.8,16.5-12.8s16.6,6.8,17.2,13.2h-7.6c-0.7-3-2.9-7.1-9.9-7.1c-6.4,0-8.3,3.1-8.3,6.1
			c0,3.4,1.9,5.1,10.2,7.1c13.8,3.3,16.6,7.9,16.6,14.7c0,8-6.3,13.8-17.7,13.8c-11.8,0-17.6-6-18.8-14.1L2668.3,2017.8
			L2668.3,2017.8z"/>
		<path class="st19" d="M1486.7,2130.9c0,4.2,0.4,8.6,0.6,10h-7.5c-0.4-1-0.6-3.2-0.7-6c-1.6,3-5.2,7.1-14.1,7.1
			c-10.8,0-15.4-7-15.4-13.9c0-10.2,8-14.8,21.6-14.8c3.2,0,6.1,0,7.8,0v-3.9c0-4-1.3-8.9-9.8-8.9c-7.6,0-8.9,3.8-9.7,7.3h-7.6
			c0.6-6.3,4.5-13.6,17.6-13.5c11.2,0,17.3,4.6,17.3,15v21.6H1486.7z M1479,2118.6c-1.5,0-4.9,0-7.4,0c-9.1,0-14,2.5-14,8.9
			c0,4.7,3.3,8.2,8.9,8.2c11,0,12.5-7.4,12.5-15.7V2118.6z"/>
		<path class="st19" d="M1500.3,2106.7c0-4,0-8-0.1-11.5h7.7c0.2,1.3,0.3,6.1,0.3,7.5c1.8-3.9,5.5-8.6,14.4-8.6
			c8.6,0,15.2,5.2,15.2,17.4v29.3h-7.9v-28.3c0-6.9-2.7-11.5-9.7-11.5c-8.6,0-12.1,6.6-12.1,15.7v24.2h-7.9L1500.3,2106.7
			L1500.3,2106.7z"/>
		<path class="st19" d="M1589.2,2074.8v53.2c0,4.3,0,8.5,0.1,12.9h-7.6c-0.2-1.2-0.4-4.7-0.4-6.5c-2.2,4.8-6.9,7.6-14.4,7.6
			c-11.7,0-18.9-9.5-18.9-23.4c0-14,7.8-24.4,20.4-24.4c8.1,0,11.7,3.3,12.9,5.8v-25.2L1589.2,2074.8L1589.2,2074.8z M1556.2,2118.2
			c0,11,5.2,17,12.4,17c10.7,0,13-7.9,13-17.9c0-10.1-2.1-16.5-12.4-16.5C1561.2,2100.8,1556.2,2107.2,1556.2,2118.2z"/>
		<path class="st19" d="M1663,2136.7c0,14.6-6,22.9-20.9,22.9c-13.8,0-18.1-7.7-18.9-14h8c1.3,5,5.3,7.7,11.2,7.7
			c10.4,0,12.9-6.6,12.9-17.1v-3.7c-2.4,5.1-6.6,8-14.3,8c-11.2,0-18.9-9.2-18.9-22.5c0-14.9,8.7-24,19.7-24
			c8.7,0,12.4,4.1,13.4,7.1c0.1-2.1,0.3-5.1,0.4-6h7.4c0,2.6-0.1,8.8-0.1,13.2v28.4H1663z M1630.4,2117.7c0,9.6,5,16.2,12.5,16.2
			c9.8,0,12.7-6.6,12.7-16.7c0-10.3-2.7-16.3-12.5-16.3C1634.6,2100.8,1630.4,2107.9,1630.4,2117.7z"/>
		<path class="st19" d="M1681.1,2119.4c0.1,9.3,4.7,15.9,12.5,15.9c7.2,0,9.6-3.7,11-7.1h7.9c-1.8,5.8-6.7,13.6-19.2,13.6
			c-14.3,0-20.2-11.7-20.2-23.4c0-13.6,6.8-24.4,20.7-24.4c14.7,0,19.5,11.8,19.5,21.5c0,1.4,0,2.6-0.1,3.8L1681.1,2119.4
			L1681.1,2119.4z M1705.4,2113.9c-0.1-7.5-3.9-13.5-11.7-13.5c-8,0-11.6,5.6-12.4,13.5H1705.4z"/>
		<path class="st19" d="M1717.6,2095.2h7.9v-13.5h7.9v13.5h10.1v6.4h-10.1v26.7c0,4.4,1.1,6.7,5.2,6.7c1.1,0,2.7-0.1,4-0.4v5.9
			c-1.9,0.7-4.6,0.8-6.8,0.8c-7.1,0-10.2-3.7-10.2-11.3v-28.6h-7.9L1717.6,2095.2L1717.6,2095.2z"/>
		<path class="st19" d="M1777.7,2095.2c7.4,21.9,11.4,34,12.6,38.6h0.1c1.5-5.2,4.7-15.6,12.2-38.6h8l-16.4,47.7
			c-4.6,13.4-8.1,16.7-17.4,16.7c-1.4,0-3.1-0.1-4.9-0.3v-6.9c1.2,0.1,2.5,0.2,3.8,0.2c5.8,0,8-2.5,10.7-10.2l-17.1-47.4h8.4V2095.2
			z"/>
		<path class="st19" d="M1857.4,2117.9c0,13.1-7.5,24-21.5,24c-13.1,0-21-10.1-21-23.8c0-13.5,7.7-24,21.5-24
			C1849.1,2094.1,1857.4,2103.6,1857.4,2117.9z M1823.1,2118c0,10,5,17.3,13.2,17.3c8.3,0,13-6.9,13-17.3c0-10.3-4.7-17.3-13.2-17.3
			S1823.1,2107.6,1823.1,2118z"/>
		<path class="st19" d="M1904.3,2127.5c0,4.4,0.1,10.6,0.1,13.3h-7.7c-0.2-1.2-0.3-4-0.3-6.8c-2.2,5.1-6.6,7.9-13.8,7.9
			c-7.7,0-15.1-3.8-15.1-16.7v-30h7.8v28.3c0,6,1.9,11.5,9.4,11.5c8.4,0,11.6-4.7,11.6-16.1v-23.8h7.9L1904.3,2127.5L1904.3,2127.5z
			"/>
		<path class="st19" d="M1917.8,2107.6c0-6.4-0.1-10-0.1-12.4h7.7c0.1,1.3,0.2,4.9,0.2,9.3c2.4-6.2,7.8-10.2,15.4-10.4v7.9
			c-9.4,0.3-15.4,5.2-15.4,16.7v22.2h-7.9v-33.3H1917.8z"/>
		<path class="st19" d="M2009.9,2136.7c0,14.6-6,22.9-20.9,22.9c-13.8,0-18.1-7.7-18.9-14h8c1.3,5,5.3,7.7,11.2,7.7
			c10.4,0,12.9-6.6,12.9-17.1v-3.7c-2.4,5.1-6.6,8-14.3,8c-11.2,0-18.9-9.2-18.9-22.5c0-14.9,8.7-24,19.7-24
			c8.7,0,12.4,4.1,13.4,7.1c0.1-2.1,0.3-5.1,0.4-6h7.4c0,2.6-0.1,8.8-0.1,13.2v28.4H2009.9z M1977.2,2117.7c0,9.6,5,16.2,12.5,16.2
			c9.8,0,12.7-6.6,12.7-16.7c0-10.3-2.7-16.3-12.5-16.3C1981.5,2100.8,1977.2,2107.9,1977.2,2117.7z"/>
		<path class="st19" d="M2023.3,2107.6c0-6.4-0.1-10-0.1-12.4h7.7c0.1,1.3,0.2,4.9,0.2,9.3c2.4-6.2,7.8-10.2,15.4-10.4v7.9
			c-9.4,0.3-15.4,5.2-15.4,16.7v22.2h-7.9v-33.3H2023.3z"/>
		<path class="st19" d="M2089,2130.9c0,4.2,0.4,8.6,0.6,10h-7.5c-0.4-1-0.6-3.2-0.7-6c-1.6,3-5.2,7.1-14.1,7.1
			c-10.8,0-15.4-7-15.4-13.9c0-10.2,8-14.8,21.6-14.8c3.2,0,6.1,0,7.8,0v-3.9c0-4-1.3-8.9-9.8-8.9c-7.6,0-8.9,3.8-9.7,7.3h-7.6
			c0.6-6.3,4.5-13.6,17.6-13.5c11.2,0,17.3,4.6,17.3,15v21.6H2089z M2081.3,2118.6c-1.5,0-4.9,0-7.4,0c-9.1,0-14,2.5-14,8.9
			c0,4.7,3.3,8.2,8.9,8.2c11,0,12.5-7.4,12.5-15.7V2118.6z"/>
		<path class="st19" d="M2140.5,2074.8v53.2c0,4.3,0,8.5,0.1,12.9h-7.6c-0.2-1.2-0.4-4.7-0.4-6.5c-2.2,4.8-6.9,7.6-14.4,7.6
			c-11.7,0-18.9-9.5-18.9-23.4c0-14,7.8-24.4,20.4-24.4c8.1,0,11.7,3.3,12.9,5.8v-25.2L2140.5,2074.8L2140.5,2074.8z M2107.5,2118.2
			c0,11,5.2,17,12.4,17c10.7,0,13-7.9,13-17.9c0-10.1-2.1-16.5-12.4-16.5C2112.5,2100.8,2107.5,2107.2,2107.5,2118.2z"/>
		<path class="st19" d="M2158.7,2119.4c0.1,9.3,4.7,15.9,12.5,15.9c7.2,0,9.6-3.7,11-7.1h7.9c-1.8,5.8-6.7,13.6-19.2,13.6
			c-14.3,0-20.2-11.7-20.2-23.4c0-13.6,6.8-24.4,20.7-24.4c14.7,0,19.5,11.8,19.5,21.5c0,1.4,0,2.6-0.1,3.8L2158.7,2119.4
			L2158.7,2119.4z M2183,2113.9c-0.1-7.5-3.9-13.5-11.7-13.5c-8,0-11.6,5.6-12.4,13.5H2183z"/>
		<path class="st19" d="M2204.9,2127.8c1.3,5,5,7.9,11.2,7.9c6.7,0,9.3-2.9,9.3-7c0-4.3-2.1-6.2-10.8-8.4
			c-13-3.2-15.8-7.2-15.8-13.4c0-6.5,4.7-12.8,16.5-12.8s16.6,6.8,17.2,13.2h-7.6c-0.7-3-2.9-7.1-9.9-7.1c-6.4,0-8.3,3.1-8.3,6.1
			c0,3.4,1.9,5.1,10.2,7.1c13.8,3.3,16.6,7.9,16.6,14.7c0,8-6.3,13.8-17.7,13.8c-11.8,0-17.6-6-18.8-14.1H2204.9z"/>
		<path class="st19" d="M2303,2127.5c0,4.4,0.1,10.6,0.1,13.3h-7.7c-0.2-1.2-0.3-4-0.3-6.8c-2.2,5.1-6.6,7.9-13.8,7.9
			c-7.7,0-15.1-3.8-15.1-16.7v-30h7.8v28.3c0,6,1.9,11.5,9.4,11.5c8.4,0,11.6-4.7,11.6-16.1v-23.8h7.9v32.4H2303z"/>
		<path class="st19" d="M2324.3,2135.2v23.6h-7.8v-52.4c0-3.7,0-7.6-0.1-11.1h7.7c0.2,1.5,0.3,4.3,0.3,7.2c2.5-4.6,7.1-8.3,14.9-8.3
			c10.6,0,18.2,8.8,18.2,22.7c0,16.3-8.8,25.1-19.8,25.1C2330.2,2141.9,2326.4,2138.8,2324.3,2135.2z M2349.3,2117.2
			c0-9.7-4.4-16.3-12.2-16.3c-9.5,0-13.2,6-13.2,17.1c0,10.8,3.1,17.3,12.6,17.3C2344.9,2135.3,2349.3,2128.4,2349.3,2117.2z"/>
		<path class="st19" d="M2366.1,2136.2c0-3.2,2.2-5.6,5.3-5.6c3.2,0,5.3,2.3,5.3,5.6c0,3.2-2.1,5.6-5.3,5.6
			C2368.2,2141.8,2366.1,2139.4,2366.1,2136.2z M2368.3,2123.4l-1.3-43.2h8.6l-1.3,43.2H2368.3z"/>
  </g>

  <!-- Popover 3 -->
  <g id="popover-3" class="popover popover-3">
  	<g id="layer1_3_" transform="translate(0,-772.36218)">
  		<path id="path13588_3_" class="st18" d="M3565.6,1595.8h-567.2l-96.8,36.1l-96.8-36.1h-567.2c-23,0-41.5-8.1-41.5-18.1V924.3
  			c0-10,18.5-18.1,41.5-18.1h1328c23,0,41.5,8.1,41.5,18.1v653.4C3607.1,1587.8,3588.6,1596.1,3565.6,1595.8z"/>
  	</g>
  </g>

  <!-- Header 3 -->
  <g id="header-3" class="header header-3">
		<path class="st0" d="M2319.4,313.1l-9.9,27.9h-14.3l34.3-97.2h17.9l35.8,97.2h-15.3l-10.3-27.9H2319.4z M2354.1,300.9
			c-8.8-24.6-13.8-38.1-15.9-45.8h-0.1c-2.4,8.5-7.9,24.7-15,45.8H2354.1z"/>
		<path class="st0" d="M2403.6,320.4c1.9,7.4,7.5,11.7,16.7,11.7c9.9,0,13.7-4.1,13.7-10.2c0-6.3-3.2-9.1-16.2-12.2
			c-20.9-5.1-25.1-11.5-25.1-21.3c0-10.2,7.4-20.3,26.3-20.3c19,0,26.5,10.9,27.4,20.7h-13.2c-0.9-4.2-4.1-10.4-14.7-10.4
			c-9.3,0-12.1,4.4-12.1,8.8c0,5,2.8,7.4,15.6,10.5c22,5.2,26.2,12.6,26.2,23.2c0,12.4-9.7,21.8-28.2,21.8
			c-19.1,0-28.1-9.5-29.9-22.3L2403.6,320.4L2403.6,320.4z"/>
		<path class="st0" d="M2477.1,303c5.9-7.1,20.3-22.5,30-33.3h16.2l-26.4,27.6l29.4,43.7h-15.9l-22.8-34.9l-10.4,10.1V341h-13.7
			V238.3h13.7V303H2477.1z"/>
		<path class="st0" d="M2570.5,287.7c0-6.2,0-12.5-0.1-18h13.4c0.3,2,0.5,9,0.5,11.2c2.8-5.8,8.6-12.9,22.1-12.9s23.8,8.5,23.8,27.2
			V341h-13.7v-44c0-10.2-3.9-17.2-14.4-17.2c-12.5,0-17.8,9.2-17.8,23.1V341h-13.7v-53.3H2570.5z"/>
		<path class="st0" d="M2659.4,308c0.1,13.4,6.8,23.4,18.5,23.4c10.7,0,14.1-5.3,16.3-10.4h13.8c-2.7,9-10.4,21.6-30.5,21.6
			c-22.6,0-32-18.1-32-36.5c0-21.4,10.8-38.1,32.7-38.1c23.3,0,31,18.3,31,34c0,2.2,0,4-0.2,5.9h-49.6V308z M2695.3,298.6
			c-0.1-11.1-5.5-20-17.2-20c-11.9,0-17.1,8.3-18.3,20H2695.3z"/>
		<path class="st0" d="M2732.1,269.7c8.4,32.5,13.1,51,14.4,58.7h0.2c1.3-6.9,5.8-23.4,15.6-58.7h13.3
			c10.5,39.3,13.7,50.8,14.8,57.4h0.1c1.7-7.6,4.4-18.3,15-57.4h13.8l-21.8,71.3h-14.8c-6.7-26.2-12.9-48.4-14.4-56.4h-0.1
			c-1.3,8-7.2,28.6-14.9,56.4h-15.2l-20.6-71.3H2732.1z"/>
		<path class="st0" d="M2914.8,331.3c-3.7,7.3-10.3,11.4-22,11.4c-16.1,0-29.7-12.7-29.7-36.5s14.2-38.1,31.4-38.1
			c12.9,0,18.6,5.8,20.3,10.3c0-2.4,0.3-5.9,0.5-8.6h13c-0.1,7.1-0.1,13.1-0.1,19.7V369h-13.3L2914.8,331.3L2914.8,331.3z
			 M2877.3,305.6c0,14.1,5.9,25.6,18.9,25.6c14.8,0,18.9-10.2,18.9-26.1c0-16.2-3.7-25.5-18.5-25.5
			C2883.9,279.6,2877.3,290.4,2877.3,305.6z"/>
		<path class="st0" d="M3006.8,320.2c0,6.9,0.1,16.1,0.1,20.8h-13.4c-0.3-1.9-0.4-6.1-0.5-10.2c-3.6,7.8-10.4,11.9-21.2,11.9
			c-12.5,0-23.6-6.5-23.6-26.2v-46.8h13.7v43.9c0,9.1,2.8,17.3,14,17.3c12.3,0,17.1-6.8,17.1-23.9v-37.3h13.7L3006.8,320.2
			L3006.8,320.2z"/>
		<path class="st0" d="M3036.2,308c0.1,13.4,6.8,23.4,18.5,23.4c10.7,0,14.1-5.3,16.3-10.4h13.8c-2.7,9-10.4,21.6-30.5,21.6
			c-22.6,0-32-18.1-32-36.5c0-21.4,10.8-38.1,32.7-38.1c23.3,0,31,18.3,31,34c0,2.2,0,4-0.2,5.9h-49.6V308z M3072.1,298.6
			c-0.1-11.1-5.5-20-17.2-20c-11.9,0-17.1,8.3-18.3,20H3072.1z"/>
		<path class="st0" d="M3109,320.4c1.9,7.4,7.5,11.7,16.7,11.7c9.9,0,13.7-4.1,13.7-10.2c0-6.3-3.2-9.1-16.2-12.2
			c-20.9-5.1-25.1-11.5-25.1-21.3c0-10.2,7.4-20.3,26.3-20.3c19,0,26.5,10.9,27.4,20.7h-13.2c-0.9-4.2-4.1-10.4-14.7-10.4
			c-9.3,0-12.1,4.4-12.1,8.8c0,5,2.8,7.4,15.6,10.5c22,5.2,26.2,12.6,26.2,23.2c0,12.4-9.7,21.8-28.2,21.8
			c-19.1,0-28.1-9.5-29.9-22.3L3109,320.4L3109,320.4z"/>
		<path class="st0" d="M3160,269.7h12.1V249h13.7v20.7h15.4v11h-15.4v40.5c0,6.6,1.7,9.9,8,9.9c1.6,0,4-0.1,5.9-0.5v10.1
			c-3.2,1.2-7.6,1.3-11.2,1.3c-11.6,0-16.5-6.1-16.5-18v-43.2h-12V269.7z"/>
		<path class="st0" d="M3214.5,238.3h13.7v15.8h-13.7V238.3z M3214.5,269.7h13.7V341h-13.7V269.7z"/>
		<path class="st0" d="M3310.9,305.2c0,20.7-12,37.5-33.9,37.5c-20.7,0-33.2-15.8-33.2-37.2c0-21.2,12.3-37.4,34-37.4
			C3297.8,268,3310.9,282.9,3310.9,305.2z M3257.9,305.4c0,15.3,7.4,26,19.6,26c12.4,0,19.3-10.3,19.3-26c0-15.8-6.9-26.1-19.6-26.1
			C3264.7,279.3,3257.9,289.3,3257.9,305.4z"/>
		<path class="st0" d="M3326.5,287.7c0-6.2,0-12.5-0.1-18h13.3c0.3,2,0.5,9,0.5,11.2c2.8-5.8,8.6-12.9,22.1-12.9s23.8,8.5,23.8,27.2
			V341h-13.7v-44c0-10.2-3.9-17.2-14.4-17.2c-12.5,0-17.8,9.2-17.8,23.1V341h-13.7L3326.5,287.7L3326.5,287.7z"/>
		<path class="st0" d="M3414,320.4c1.9,7.4,7.5,11.7,16.7,11.7c9.9,0,13.7-4.1,13.7-10.2c0-6.3-3.2-9.1-16.2-12.2
			c-20.9-5.1-25.1-11.5-25.1-21.3c0-10.2,7.4-20.3,26.3-20.3c19,0,26.5,10.9,27.4,20.7h-13.2c-0.9-4.2-4.1-10.4-14.7-10.4
			c-9.3,0-12.1,4.4-12.1,8.8c0,5,2.8,7.4,15.6,10.5c22,5.2,26.2,12.6,26.2,23.2c0,12.4-9.7,21.8-28.2,21.8
			c-19.1,0-28.1-9.5-29.9-22.3L3414,320.4L3414,320.4z"/>
  </g>

  <!-- Text 3 -->
  <g id="text-3" class="text text-3">
		<path class="st19" d="M2314.7,481.9v-23c0-0.6-0.1-1.2-0.4-1.7l-22.1-38h9.5c5.7,10.2,14.8,26.3,17.6,31.8
			c2.7-5.4,12-21.7,18-31.8h8.9l-22.8,38.1c-0.2,0.4-0.4,0.7-0.4,1.6v22.9h-8.3V481.9z"/>
		<path class="st19" d="M2391.7,459c0,13.1-7.5,24-21.5,24c-13.1,0-21-10.1-21-23.8c0-13.5,7.7-24,21.5-24
			C2383.4,435.2,2391.7,444.7,2391.7,459z M2357.4,459.1c0,10,5,17.3,13.2,17.3c8.3,0,13-6.9,13-17.3c0-10.3-4.7-17.3-13.2-17.3
			C2361.9,441.8,2357.4,448.7,2357.4,459.1z"/>
		<path class="st19" d="M2438.6,468.6c0,4.4,0.1,10.6,0.1,13.3h-7.7c-0.2-1.2-0.3-4-0.3-6.8c-2.2,5.1-6.6,7.9-13.8,7.9
			c-7.7,0-15.1-3.8-15.1-16.7v-30h7.8v28.3c0,6,1.9,11.5,9.4,11.5c8.4,0,11.6-4.6,11.6-16.1v-23.8h7.9v32.4H2438.6z"/>
		<path class="st19" d="M2512.8,415.8V469c0,4.3,0,8.5,0.1,12.9h-7.6c-0.2-1.2-0.4-4.7-0.4-6.5c-2.2,4.8-6.9,7.6-14.4,7.6
			c-11.7,0-18.9-9.5-18.9-23.4c0-14.1,7.8-24.4,20.4-24.4c8.1,0,11.7,3.3,12.9,5.8v-25.2H2512.8z M2479.8,459.3c0,11,5.2,17,12.4,17
			c10.7,0,13-7.9,13-17.9c0-10.1-2.1-16.5-12.4-16.5C2484.8,441.9,2479.8,448.2,2479.8,459.3z"/>
		<path class="st19" d="M2526.2,415.8h7.9v9.8h-7.9V415.8z M2526.2,436.3h7.9v45.6h-7.9V436.3z"/>
		<path class="st19" d="M2585.5,415.8V469c0,4.3,0,8.5,0.1,12.9h-7.6c-0.2-1.2-0.4-4.7-0.4-6.5c-2.2,4.8-6.9,7.6-14.4,7.6
			c-11.7,0-18.9-9.5-18.9-23.4c0-14.1,7.8-24.4,20.4-24.4c8.1,0,11.7,3.3,12.9,5.8v-25.2H2585.5z M2552.6,459.3c0,11,5.2,17,12.4,17
			c10.7,0,13-7.9,13-17.9c0-10.1-2.1-16.5-12.4-16.5C2557.5,441.9,2552.6,448.2,2552.6,459.3z"/>
		<path class="st19" d="M2599,447.8c0-4,0-8-0.1-11.5h7.7c0.2,1.3,0.3,6.1,0.3,7.5c1.8-3.9,5.5-8.6,14.4-8.6
			c8.6,0,15.2,5.2,15.2,17.4V482h-7.9v-28.3c0-6.9-2.7-11.5-9.7-11.5c-8.6,0-12.1,6.6-12.1,15.7v24.2h-7.9v-34.3H2599z"/>
		<path class="st19" d="M2645.6,439.6c2.5-7.7,4-18,4.1-23.8h8.2c-0.5,7.5-3.1,18-5.8,23.8H2645.6z"/>
		<path class="st19" d="M2662,436.3h7.9v-13.5h7.9v13.5h10.1v6.4h-10.1v26.7c0,4.4,1.1,6.7,5.2,6.7c1.1,0,2.7-0.1,4-0.4v5.9
			c-1.9,0.7-4.6,0.8-6.8,0.8c-7.1,0-10.2-3.7-10.2-11.3v-28.6h-7.9L2662,436.3L2662,436.3z"/>
		<path class="st19" d="M2720.7,481.9v-39.2h-7.4v-6.4h7.4v-5.5c0-8.4,3.2-15.9,13.3-15.9c1.7,0,3.9,0.2,5,0.6v6.7
			c-1.1-0.3-2.8-0.4-4-0.4c-4.7,0-6.5,2.8-6.5,9.5v5h9.1v6.4h-9.1v39.2L2720.7,481.9L2720.7,481.9z"/>
		<path class="st19" d="M2744.8,415.8h7.9v9.8h-7.9V415.8z M2744.8,436.3h7.9v45.6h-7.9V436.3z"/>
		<path class="st19" d="M2766.2,447.8c0-4,0-8-0.1-11.5h7.7c0.2,1.3,0.3,6.1,0.3,7.5c1.8-3.9,5.5-8.6,14.4-8.6
			c8.6,0,15.2,5.2,15.2,17.4V482h-7.9v-28.3c0-6.9-2.7-11.5-9.7-11.5c-8.6,0-12.1,6.6-12.1,15.7v24.2h-7.9v-34.3H2766.2z"/>
		<path class="st19" d="M2855,415.8V469c0,4.3,0,8.5,0.1,12.9h-7.6c-0.2-1.2-0.4-4.7-0.4-6.5c-2.2,4.8-6.9,7.6-14.4,7.6
			c-11.7,0-18.9-9.5-18.9-23.4c0-14.1,7.8-24.4,20.4-24.4c8.1,0,11.7,3.3,12.9,5.8v-25.2H2855z M2822,459.3c0,11,5.2,17,12.4,17
			c10.7,0,13-7.9,13-17.9c0-10.1-2.1-16.5-12.4-16.5C2827,441.9,2822,448.2,2822,459.3z"/>
		<path class="st19" d="M2895,436.3c5.7,21.4,8.9,33.6,9.7,38.3h0.1c0.8-4.2,4-15.6,10.5-38.3h7.7c7.1,25.8,9.3,33.3,10,37.4h0.1
			c1.1-4.9,2.9-11.7,10.1-37.4h8l-14.1,45.6h-8.5c-4.4-16.6-8.8-32-9.8-37h-0.1c-0.8,5-4.9,18.9-10.1,37h-8.8l-13.2-45.6H2895z"/>
		<path class="st19" d="M2968.1,415.8V443c2.3-4,6.5-7.8,14.2-7.8c7.3,0,15.4,4,15.4,17.6v29.1h-7.8v-27.8c0-7.8-3.3-12.1-9.9-12.1
			c-8.2,0-11.8,5.4-11.8,14.9v24.9h-7.9v-66.1L2968.1,415.8L2968.1,415.8z"/>
		<path class="st19" d="M3045.2,471.9c0,4.2,0.4,8.6,0.6,10h-7.5c-0.4-1-0.6-3.2-0.7-6c-1.6,3-5.2,7.1-14.1,7.1
			c-10.8,0-15.4-7-15.4-13.9c0-10.2,8-14.8,21.6-14.8c3.2,0,6.1,0,7.8,0v-3.9c0-4-1.3-8.9-9.8-8.9c-7.6,0-8.9,3.8-9.7,7.3h-7.6
			c0.6-6.3,4.5-13.6,17.6-13.5c11.2,0,17.3,4.6,17.3,15v21.6H3045.2z M3037.5,459.7c-1.5,0-4.9,0-7.4,0c-9.1,0-14,2.5-14,8.9
			c0,4.7,3.3,8.2,8.9,8.2c11,0,12.5-7.4,12.5-15.7V459.7z"/>
		<path class="st19" d="M3052.9,436.3h7.9v-13.5h7.9v13.5h10.1v6.4h-10.1v26.7c0,4.4,1.1,6.7,5.2,6.7c1.1,0,2.7-0.1,4-0.4v5.9
			c-1.9,0.7-4.6,0.8-6.8,0.8c-7.1,0-10.2-3.7-10.2-11.3v-28.6h-7.9L3052.9,436.3L3052.9,436.3z"/>
		<path class="st19" d="M3112.9,436.3c7.4,21.9,11.4,34,12.6,38.6h0.1c1.5-5.2,4.7-15.6,12.2-38.6h8l-16.4,47.7
			c-4.6,13.4-8.1,16.7-17.4,16.7c-1.4,0-3.1-0.1-4.9-0.3v-6.9c1.2,0.1,2.5,0.2,3.8,0.2c5.8,0,8-2.5,10.7-10.2l-17.1-47.4h8.4V436.3z
			"/>
		<path class="st19" d="M3192.7,459c0,13.1-7.5,24-21.5,24c-13.1,0-21-10.1-21-23.8c0-13.5,7.7-24,21.5-24
			C3184.4,435.2,3192.7,444.7,3192.7,459z M3158.4,459.1c0,10,5,17.3,13.2,17.3c8.3,0,13-6.9,13-17.3c0-10.3-4.7-17.3-13.2-17.3
			C3162.8,441.8,3158.4,448.7,3158.4,459.1z"/>
		<path class="st19" d="M3239.6,468.6c0,4.4,0.1,10.6,0.1,13.3h-7.7c-0.2-1.2-0.3-4-0.3-6.8c-2.2,5.1-6.6,7.9-13.8,7.9
			c-7.7,0-15.1-3.8-15.1-16.7v-30h7.8v28.3c0,6,1.9,11.5,9.5,11.5c8.4,0,11.6-4.6,11.6-16.1v-23.8h7.9V468.6z"/>
		<path class="st19" d="M3279.6,436.3c5.7,21.4,8.9,33.6,9.7,38.3h0.1c0.8-4.2,4-15.6,10.5-38.3h7.7c7.1,25.8,9.3,33.3,10,37.4h0.1
			c1.1-4.9,2.9-11.7,10.1-37.4h8l-14.1,45.6h-8.5c-4.4-16.6-8.8-32-9.8-37h-0.1c-0.8,5-4.9,18.9-10.1,37h-8.8l-13.2-45.6H3279.6z"/>
		<path class="st19" d="M3349.6,460.5c0.1,9.3,4.7,15.9,12.5,15.9c7.2,0,9.6-3.7,11-7.1h7.9c-1.8,5.8-6.7,13.6-19.2,13.6
			c-14.3,0-20.2-11.7-20.2-23.4c0-13.6,6.8-24.4,20.7-24.4c14.7,0,19.5,11.8,19.5,21.5c0,1.4,0,2.6-0.1,3.8h-32.1V460.5z
			 M3373.8,455c-0.1-7.5-3.9-13.5-11.7-13.5c-8,0-11.6,5.6-12.4,13.5H3373.8z"/>
		<path class="st19" d="M3391.9,448.7c0-6.4-0.1-10-0.1-12.4h7.7c0.1,1.3,0.2,4.9,0.2,9.3c2.4-6.2,7.8-10.2,15.4-10.4v7.9
			c-9.4,0.3-15.4,5.2-15.4,16.7V482h-7.9v-33.3H3391.9z"/>
		<path class="st19" d="M3428.4,460.5c0.1,9.3,4.7,15.9,12.5,15.9c7.2,0,9.6-3.7,11-7.1h7.9c-1.8,5.8-6.7,13.6-19.2,13.6
			c-14.3,0-20.2-11.7-20.2-23.4c0-13.6,6.8-24.4,20.7-24.4c14.7,0,19.5,11.8,19.5,21.5c0,1.4,0,2.6-0.1,3.8h-32.1V460.5z
			 M3452.6,455c-0.1-7.5-3.9-13.5-11.7-13.5c-8,0-11.6,5.6-12.4,13.5H3452.6z"/>
		<path class="st19" d="M2299.4,591.9v-66.1h7.9v66.1H2299.4z"/>
		<path class="st19" d="M2360,569c0,13.1-7.5,24-21.5,24c-13.1,0-21-10.1-21-23.8c0-13.5,7.7-24,21.5-24
			C2351.7,545.2,2360,554.7,2360,569z M2325.6,569.1c0,10,5,17.3,13.2,17.3c8.3,0,13-6.9,13-17.3c0-10.3-4.7-17.3-13.2-17.3
			S2325.6,558.7,2325.6,569.1z"/>
		<path class="st19" d="M2409.4,569c0,13.1-7.5,24-21.5,24c-13.1,0-21-10.1-21-23.8c0-13.5,7.7-24,21.5-24
			C2401.1,545.2,2409.4,554.7,2409.4,569z M2375.1,569.1c0,10,5,17.3,13.2,17.3c8.3,0,13-6.9,13-17.3c0-10.3-4.7-17.3-13.2-17.3
			C2379.5,551.8,2375.1,558.7,2375.1,569.1z"/>
		<path class="st19" d="M2427.5,568.1c3.9-4.5,13.9-15.1,20.1-21.8h9.4l-17.2,17.8l19.1,27.9h-9.2l-15.3-22.8l-6.9,6.6V592h-7.9
			v-66.1h7.9L2427.5,568.1L2427.5,568.1z"/>
		<path class="st19" d="M2465,525.8h7.9v9.8h-7.9V525.8z M2465,546.3h7.9v45.6h-7.9V546.3z"/>
		<path class="st19" d="M2486.4,557.8c0-4,0-8-0.1-11.5h7.7c0.2,1.3,0.3,6.1,0.3,7.5c1.8-3.9,5.5-8.6,14.4-8.6
			c8.6,0,15.2,5.2,15.2,17.4V592h-7.9v-28.3c0-6.9-2.7-11.5-9.7-11.5c-8.6,0-12.1,6.6-12.1,15.7v24.2h-7.9v-34.3H2486.4z"/>
		<path class="st19" d="M2575,587.8c0,14.6-6,22.9-20.9,22.9c-13.8,0-18.1-7.7-18.9-14h8c1.3,5,5.3,7.6,11.2,7.6
			c10.4,0,12.9-6.6,12.9-17.1v-3.7c-2.4,5.1-6.6,8-14.3,8c-11.2,0-18.9-9.2-18.9-22.5c0-14.9,8.7-24,19.7-24
			c8.7,0,12.4,4.1,13.4,7.1c0.1-2.1,0.3-5.1,0.4-6h7.4c0,2.6-0.1,8.8-0.1,13.2v28.5H2575z M2542.3,568.8c0,9.6,5,16.2,12.5,16.2
			c9.8,0,12.7-6.6,12.7-16.7c0-10.3-2.7-16.3-12.5-16.3C2546.6,551.9,2542.3,558.9,2542.3,568.8z"/>
		<path class="st19" d="M2612.5,591.9v-39.2h-7.4v-6.4h7.4v-5.5c0-8.4,3.2-15.9,13.3-15.9c1.7,0,3.9,0.2,5,0.6v6.7
			c-1.1-0.3-2.8-0.4-4-0.4c-4.7,0-6.5,2.8-6.5,9.5v5h9.1v6.4h-9.1v39.2L2612.5,591.9L2612.5,591.9z"/>
		<path class="st19" d="M2675.8,569c0,13.1-7.5,24-21.5,24c-13.1,0-21-10.1-21-23.8c0-13.5,7.7-24,21.5-24
			C2667.5,545.2,2675.8,554.7,2675.8,569z M2641.4,569.1c0,10,5,17.3,13.2,17.3c8.3,0,13-6.9,13-17.3c0-10.3-4.7-17.3-13.2-17.3
			S2641.4,558.7,2641.4,569.1z"/>
		<path class="st19" d="M2686,558.7c0-6.4-0.1-10-0.1-12.4h7.7c0.1,1.3,0.2,4.9,0.2,9.3c2.4-6.2,7.8-10.2,15.4-10.4v7.9
			c-9.4,0.3-15.4,5.2-15.4,16.7V592h-7.9v-33.3H2686z"/>
		<path class="st19" d="M2729.3,573v-1.4c0-4.8,1.4-9.3,8.5-15.6c5.2-4.6,6-8.1,6-11.8c0-4.3-2.7-9.3-9.6-9.3
			c-6.7,0-9.8,4.1-10.7,10.3h-7.8c0.3-5.5,4-16.9,18.7-16.8c13.1,0,17.5,9.1,17.5,16c0,6.3-2,10.4-8.6,16.4
			c-4.5,4.1-5.9,7.2-5.9,11.5v0.8h-8.1V573z M2729.3,591.9v-12.4h8.1v12.4H2729.3z"/>
		<path class="st19" d="M2786.7,529.3h22.4c17.6,0,29.5,12,29.5,30.7c0,18.5-11.6,31.9-29.8,31.9h-22.1L2786.7,529.3L2786.7,529.3z
			 M2795,584.9h13.1c14.7,0,21.7-10.6,21.7-24.7c0-12.4-6.4-23.8-21.7-23.8H2795V584.9z"/>
		<path class="st19" d="M2889.3,569c0,13.1-7.5,24-21.5,24c-13.1,0-21-10.1-21-23.8c0-13.5,7.7-24,21.5-24
			C2881,545.2,2889.3,554.7,2889.3,569z M2855,569.1c0,10,5,17.3,13.2,17.3c8.3,0,13-6.9,13-17.3c0-10.3-4.7-17.3-13.2-17.3
			S2855,558.7,2855,569.1z"/>
		<path class="st19" d="M2899.6,557.8c0-4,0-8-0.1-11.5h7.7c0.2,1.3,0.3,6.1,0.3,7.5c1.8-3.9,5.5-8.6,14.4-8.6
			c8.6,0,15.2,5.2,15.2,17.4V592h-7.9v-28.3c0-6.9-2.7-11.5-9.7-11.5c-8.6,0-12.1,6.6-12.1,15.7v24.2h-7.9v-34.3H2899.6z"/>
		<path class="st19" d="M2946.2,549.6c2.5-7.7,4-18,4.1-23.8h8.2c-0.5,7.5-3.1,18-5.8,23.8H2946.2z"/>
		<path class="st19" d="M2962.6,546.3h7.9v-13.5h7.9v13.5h10.1v6.4h-10.1v26.7c0,4.4,1.1,6.7,5.2,6.7c1.1,0,2.7-0.1,4-0.4v5.9
			c-1.9,0.7-4.6,0.8-6.8,0.8c-7.1,0-10.2-3.7-10.2-11.3v-28.6h-7.9L2962.6,546.3L2962.6,546.3z"/>
		<path class="st19" d="M3023.8,546.3c5.7,21.4,8.9,33.6,9.7,38.3h0.1c0.8-4.2,4-15.6,10.5-38.3h7.7c7.1,25.8,9.3,33.3,10,37.4h0.1
			c1.1-4.9,2.9-11.7,10.1-37.4h8l-14.1,45.6h-8.5c-4.4-16.6-8.8-32-9.8-37h-0.1c-0.8,5-4.9,18.9-10.1,37h-8.8l-13.2-45.6H3023.8z"/>
		<path class="st19" d="M3128.2,569c0,13.1-7.5,24-21.5,24c-13.1,0-21-10.1-21-23.8c0-13.5,7.7-24,21.5-24
			C3119.9,545.2,3128.2,554.7,3128.2,569z M3093.8,569.1c0,10,5,17.3,13.2,17.3c8.3,0,13-6.9,13-17.3c0-10.3-4.7-17.3-13.2-17.3
			S3093.8,558.7,3093.8,569.1z"/>
		<path class="st19" d="M3138.4,558.7c0-6.4-0.1-10-0.1-12.4h7.7c0.1,1.3,0.2,4.9,0.2,9.3c2.4-6.2,7.8-10.2,15.4-10.4v7.9
			c-9.4,0.3-15.4,5.2-15.4,16.7V592h-7.9v-33.3H3138.4z"/>
		<path class="st19" d="M3170.1,558.7c0-6.4-0.1-10-0.1-12.4h7.7c0.1,1.3,0.2,4.9,0.2,9.3c2.4-6.2,7.8-10.2,15.4-10.4v7.9
			c-9.4,0.3-15.4,5.2-15.4,16.7V592h-7.9v-33.3H3170.1z"/>
		<path class="st19" d="M3204.5,546.3c7.4,21.9,11.4,34,12.6,38.6h0.1c1.5-5.2,4.7-15.6,12.2-38.6h8L3221,594
			c-4.6,13.4-8.1,16.7-17.4,16.7c-1.4,0-3.1-0.1-4.9-0.3v-6.9c1.2,0.1,2.5,0.2,3.8,0.2c5.8,0,8-2.5,10.7-10.2l-17.1-47.4h8.4V546.3z
			"/>
		<path class="st19" d="M3251.3,570.8l-1-30.5v-11h8.5v11l-0.9,30.5H3251.3z M3250.5,592v-12.4h7.8V592H3250.5z"/>
		<path class="st19" d="M3310.5,591.9v-23c0-0.6-0.1-1.2-0.4-1.7l-22.1-38h9.5c5.7,10.2,14.8,26.3,17.6,31.8
			c2.7-5.4,12-21.7,18-31.8h8.9l-22.8,38.1c-0.2,0.4-0.4,0.7-0.4,1.6v22.9h-8.3V591.9z"/>
		<path class="st19" d="M3387.5,569c0,13.1-7.5,24-21.5,24c-13.1,0-21-10.1-21-23.8c0-13.5,7.7-24,21.5-24
			C3379.2,545.2,3387.5,554.7,3387.5,569z M3353.2,569.1c0,10,5,17.3,13.2,17.3c8.3,0,13-6.9,13-17.3c0-10.3-4.7-17.3-13.2-17.3
			S3353.2,558.7,3353.2,569.1z"/>
		<path class="st19" d="M3434.4,578.6c0,4.4,0.1,10.6,0.1,13.3h-7.7c-0.2-1.2-0.3-4-0.3-6.8c-2.2,5.1-6.6,7.9-13.8,7.9
			c-7.7,0-15.1-3.8-15.1-16.7v-30h7.8v28.3c0,6,1.9,11.5,9.5,11.5c8.4,0,11.6-4.6,11.6-16.1v-23.8h7.9V578.6z"/>
		<path class="st19" d="M2335.4,687.9c-1.9,7.9-7.3,15-18.9,15c-12.6,0-20.3-9-20.3-23.7c0-12.9,7.3-24.1,20.9-24.1
			c13.2,0,17.7,9.4,18.3,15.3h-7.8c-1.1-4.6-4-8.7-10.6-8.7c-8.1,0-12.6,6.9-12.6,17.3c0,10.4,4.4,17.4,12.4,17.4
			c5.7,0,9-3,10.9-8.5H2335.4z"/>
		<path class="st19" d="M2378.9,691.9c0,4.2,0.4,8.6,0.6,10h-7.5c-0.4-1-0.6-3.2-0.7-6c-1.6,3-5.2,7.1-14.1,7.1
			c-10.8,0-15.4-7-15.4-13.9c0-10.2,8-14.8,21.6-14.8c3.2,0,6.1,0,7.8,0v-3.9c0-4-1.3-8.9-9.8-8.9c-7.6,0-8.9,3.8-9.7,7.3h-7.6
			c0.6-6.3,4.5-13.6,17.6-13.5c11.2,0,17.3,4.6,17.3,15v21.6H2378.9z M2371.2,679.7c-1.5,0-4.9,0-7.4,0c-9.1,0-14,2.5-14,8.9
			c0,4.7,3.3,8.2,8.9,8.2c11,0,12.5-7.4,12.5-15.7V679.7z"/>
		<path class="st19" d="M2392.5,667.8c0-4,0-8-0.1-11.5h7.7c0.2,1.3,0.3,6.1,0.3,7.5c1.8-3.9,5.5-8.6,14.4-8.6
			c8.6,0,15.2,5.2,15.2,17.4V702h-7.9v-28.3c0-6.9-2.7-11.5-9.7-11.5c-8.6,0-12.1,6.6-12.1,15.7v24.2h-7.9v-34.3H2392.5z"/>
		<path class="st19" d="M2500.2,691.9c0,4.2,0.4,8.6,0.6,10h-7.5c-0.4-1-0.6-3.2-0.7-6c-1.6,3-5.2,7.1-14.1,7.1
			c-10.8,0-15.4-7-15.4-13.9c0-10.2,8-14.8,21.6-14.8c3.2,0,6.1,0,7.8,0v-3.9c0-4-1.3-8.9-9.8-8.9c-7.6,0-8.9,3.8-9.7,7.3h-7.6
			c0.6-6.3,4.5-13.6,17.6-13.5c11.2,0,17.3,4.6,17.3,15v21.6H2500.2z M2492.5,679.7c-1.5,0-4.9,0-7.4,0c-9.1,0-14,2.5-14,8.9
			c0,4.7,3.3,8.2,8.9,8.2c11,0,12.5-7.4,12.5-15.7V679.7z"/>
		<path class="st19" d="M2513.8,701.9v-66.1h7.9v66.1H2513.8z"/>
		<path class="st19" d="M2538.9,656.3c5.7,21.4,8.9,33.6,9.7,38.3h0.1c0.8-4.2,4-15.6,10.5-38.3h7.7c7.1,25.8,9.3,33.3,10,37.4h0.1
			c1.1-4.9,2.9-11.7,10.1-37.4h8l-14.1,45.6h-8.5c-4.4-16.6-8.8-32-9.8-37h-0.1c-0.8,5-4.9,18.9-10.1,37h-8.8l-13.2-45.6H2538.9z"/>
		<path class="st19" d="M2638.1,691.9c0,4.2,0.4,8.6,0.6,10h-7.5c-0.4-1-0.6-3.2-0.7-6c-1.6,3-5.2,7.1-14.1,7.1
			c-10.8,0-15.4-7-15.4-13.9c0-10.2,8-14.8,21.6-14.8c3.2,0,6.1,0,7.8,0v-3.9c0-4-1.3-8.9-9.8-8.9c-7.6,0-8.9,3.8-9.7,7.3h-7.6
			c0.6-6.3,4.5-13.6,17.6-13.5c11.2,0,17.3,4.6,17.3,15v21.6H2638.1z M2630.4,679.7c-1.5,0-4.9,0-7.4,0c-9.1,0-14,2.5-14,8.9
			c0,4.7,3.3,8.2,8.9,8.2c11,0,12.5-7.4,12.5-15.7V679.7z"/>
		<path class="st19" d="M2654.4,656.3c7.4,21.9,11.4,34,12.6,38.6h0.1c1.5-5.2,4.7-15.6,12.2-38.6h8l-16.4,47.7
			c-4.6,13.4-8.1,16.7-17.4,16.7c-1.4,0-3.1-0.1-4.9-0.3v-6.9c1.2,0.1,2.5,0.2,3.8,0.2c5.8,0,8-2.5,10.7-10.2l-17.1-47.4h8.4V656.3z
			"/>
		<path class="st19" d="M2698.8,688.8c1.3,5,5,7.9,11.2,7.9c6.7,0,9.3-2.9,9.3-7c0-4.3-2.1-6.2-10.8-8.4c-13-3.2-15.8-7.2-15.8-13.4
			c0-6.5,4.7-12.8,16.5-12.8s16.6,6.8,17.2,13.2h-7.6c-0.7-3-2.9-7.1-9.9-7.1c-6.4,0-8.3,3.1-8.3,6.1c0,3.4,1.9,5.1,10.2,7.1
			c13.8,3.3,16.6,7.9,16.6,14.7c0,8-6.3,13.8-17.7,13.8c-11.8,0-17.6-6-18.8-14.1H2698.8z"/>
		<path class="st19" d="M2794.3,691.9c0,4.2,0.4,8.6,0.6,10h-7.5c-0.4-1-0.6-3.2-0.7-6c-1.6,3-5.2,7.1-14.1,7.1
			c-10.8,0-15.4-7-15.4-13.9c0-10.2,8-14.8,21.6-14.8c3.2,0,6.1,0,7.8,0v-3.9c0-4-1.3-8.9-9.8-8.9c-7.6,0-8.9,3.8-9.7,7.3h-7.6
			c0.6-6.3,4.5-13.6,17.6-13.5c11.2,0,17.3,4.6,17.3,15v21.6H2794.3z M2786.6,679.7c-1.5,0-4.9,0-7.4,0c-9.1,0-14,2.5-14,8.9
			c0,4.7,3.3,8.2,8.9,8.2c11,0,12.5-7.4,12.5-15.7V679.7z"/>
		<path class="st19" d="M2811.7,688.8c1.3,5,5,7.9,11.2,7.9c6.7,0,9.3-2.9,9.3-7c0-4.3-2.1-6.2-10.8-8.4c-13-3.2-15.8-7.2-15.8-13.4
			c0-6.5,4.7-12.8,16.5-12.8s16.6,6.8,17.2,13.2h-7.6c-0.7-3-2.9-7.1-9.9-7.1c-6.4,0-8.3,3.1-8.3,6.1c0,3.4,1.9,5.1,10.2,7.1
			c13.8,3.3,16.6,7.9,16.6,14.7c0,8-6.3,13.8-17.7,13.8c-11.8,0-17.6-6-18.8-14.1H2811.7z"/>
		<path class="st19" d="M2858.3,678.1c3.9-4.5,13.9-15.1,20.1-21.8h9.4l-17.2,17.8l19.1,27.9h-9.2l-15.3-22.8l-6.9,6.6V702h-7.9
			v-66.1h7.9L2858.3,678.1L2858.3,678.1z"/>
		<path class="st19" d="M2918.6,667.8c0-4,0-8-0.1-11.5h7.7c0.2,1.3,0.3,6.1,0.3,7.5c1.8-3.9,5.5-8.6,14.4-8.6
			c8.6,0,15.2,5.2,15.2,17.4V702h-7.9v-28.3c0-6.9-2.7-11.5-9.7-11.5c-8.6,0-12.1,6.6-12.1,15.7v24.2h-7.9v-34.3H2918.6z"/>
		<path class="st19" d="M2974.3,680.5c0.1,9.3,4.7,15.9,12.5,15.9c7.2,0,9.6-3.7,11-7.1h7.9c-1.8,5.8-6.7,13.6-19.2,13.6
			c-14.3,0-20.2-11.7-20.2-23.4c0-13.6,6.8-24.4,20.7-24.4c14.7,0,19.5,11.8,19.5,21.5c0,1.4,0,2.6-0.1,3.8h-32.1V680.5z
			 M2998.6,675c-0.1-7.5-3.9-13.5-11.7-13.5c-8,0-11.6,5.6-12.4,13.5H2998.6z"/>
		<path class="st19" d="M3020.5,656.3c5.7,21.4,8.9,33.6,9.7,38.3h0.1c0.8-4.2,4-15.6,10.5-38.3h7.7c7.1,25.8,9.3,33.3,10,37.4h0.1
			c1.1-4.9,2.9-11.7,10.1-37.4h8l-14.1,45.6h-8.5c-4.4-16.6-8.8-32-9.8-37h-0.1c-0.8,5-4.9,18.9-10.1,37h-8.8l-13.2-45.6H3020.5z"/>
		<path class="st19" d="M3138.6,695.3c-2.4,4.8-6.5,7.6-14.4,7.6c-10.3,0-19-8.2-19-23.4c0-15.3,9.1-24.4,20.1-24.4
			c8.5,0,12.2,3.9,13.3,6.9c0-1.7,0.2-3.9,0.3-5.8h7.5c-0.1,4.7-0.1,8.4-0.1,12.6v51h-7.7L3138.6,695.3L3138.6,695.3z M3113.3,679.3
			c0,9.2,4,17,12.7,17c9.9,0,12.7-6.8,12.7-17.4c0-10.7-2.6-16.9-12.4-16.9C3117.8,661.9,3113.3,669.1,3113.3,679.3z"/>
		<path class="st19" d="M3196.3,688.6c0,4.4,0.1,10.6,0.1,13.3h-7.7c-0.2-1.2-0.3-4-0.3-6.8c-2.2,5.1-6.6,7.9-13.8,7.9
			c-7.7,0-15.1-3.8-15.1-16.7v-30h7.8v28.3c0,6,1.9,11.5,9.4,11.5c8.4,0,11.6-4.6,11.6-16.1v-23.8h7.9v32.4H3196.3z"/>
		<path class="st19" d="M3214.5,680.5c0.1,9.3,4.7,15.9,12.5,15.9c7.2,0,9.6-3.7,11-7.1h7.9c-1.8,5.8-6.7,13.6-19.2,13.6
			c-14.3,0-20.2-11.7-20.2-23.4c0-13.6,6.8-24.4,20.7-24.4c14.7,0,19.5,11.8,19.5,21.5c0,1.4,0,2.6-0.1,3.8h-32.1V680.5z
			 M3238.8,675c-0.1-7.5-3.9-13.5-11.7-13.5c-8,0-11.6,5.6-12.4,13.5H3238.8z"/>
		<path class="st19" d="M3260.7,688.8c1.3,5,5,7.9,11.2,7.9c6.7,0,9.3-2.9,9.3-7c0-4.3-2.1-6.2-10.8-8.4c-13-3.2-15.8-7.2-15.8-13.4
			c0-6.5,4.7-12.8,16.5-12.8s16.6,6.8,17.2,13.2h-7.6c-0.7-3-2.9-7.1-9.9-7.1c-6.4,0-8.3,3.1-8.3,6.1c0,3.4,1.9,5.1,10.2,7.1
			c13.8,3.3,16.6,7.9,16.6,14.7c0,8-6.3,13.8-17.7,13.8c-11.8,0-17.6-6-18.8-14.1H3260.7z"/>
		<path class="st19" d="M3293.6,656.3h7.9v-13.5h7.9v13.5h10.1v6.4h-10.1v26.7c0,4.4,1.1,6.7,5.2,6.7c1.1,0,2.7-0.1,4-0.4v5.9
			c-1.9,0.7-4.6,0.8-6.8,0.8c-7.1,0-10.2-3.7-10.2-11.3v-28.6h-7.9L3293.6,656.3L3293.6,656.3z"/>
		<path class="st19" d="M3328.2,635.8h7.9v9.8h-7.9V635.8z M3328.2,656.3h7.9v45.6h-7.9V656.3z"/>
		<path class="st19" d="M3388.7,679c0,13.1-7.5,24-21.5,24c-13.1,0-21-10.1-21-23.8c0-13.5,7.7-24,21.5-24
			C3380.4,655.2,3388.7,664.7,3388.7,679z M3354.4,679.1c0,10,5,17.3,13.2,17.3c8.3,0,13-6.9,13-17.3c0-10.3-4.7-17.3-13.2-17.3
			S3354.4,668.7,3354.4,679.1z"/>
		<path class="st19" d="M3399,667.8c0-4,0-8-0.1-11.5h7.7c0.2,1.3,0.3,6.1,0.3,7.5c1.8-3.9,5.5-8.6,14.4-8.6
			c8.6,0,15.2,5.2,15.2,17.4V702h-7.9v-28.3c0-6.9-2.7-11.5-9.7-11.5c-8.6,0-12.1,6.6-12.1,15.7v24.2h-7.9v-34.3H3399z"/>
		<path class="st19" d="M3453.8,688.8c1.3,5,5,7.9,11.2,7.9c6.7,0,9.3-2.9,9.3-7c0-4.3-2.1-6.2-10.8-8.4c-13-3.2-15.8-7.2-15.8-13.4
			c0-6.5,4.7-12.8,16.5-12.8s16.6,6.8,17.2,13.2h-7.6c-0.7-3-2.9-7.1-9.9-7.1c-6.4,0-8.3,3.1-8.3,6.1c0,3.4,1.9,5.1,10.2,7.1
			c13.8,3.3,16.6,7.9,16.6,14.7c0,8-6.3,13.8-17.7,13.8c-11.8,0-17.6-6-18.8-14.1H3453.8z"/>
  </g>

  <!-- Bubble -->
  <g id="bubble" class="bubble">
  	<path class="st20" d="M5206.1,100.8c-315.1,0-570.2,180.5-570.2,375.4c0,152.7,158,282.6,377.8,331.5c13.2,124.9-11.5,329-75,405.8
  		C5034,1108,5136.4,930,5173.5,828c10.6,0,22.1,0.8,32.7,0.8c315.1,0,570.2-157.8,570.2-352.6S5521.3,100.8,5206.1,100.8z
  		 M4938.7,1213.5c-2.6,3.4-6.2,6.7-8.8,9.3C4933.4,1220.2,4936,1216.9,4938.7,1213.5z"/>
  </g>

  <!-- Final text -->
  <text id="final-text" transform="matrix(1 0 0 1 4763.0366 569.9875)" class="st21 st22 st23">Finally!</text>

</svg>
