<?xml version="1.0" encoding="utf-8"?>
<!-- Generator: Adobe Illustrator 22.0.1, SVG Export Plug-In . SVG Version: 6.00 Build 0)  -->
<svg version="1.1" id="Livello_1" xmlns="http://www.w3.org/2000/svg" xmlns:xlink="http://www.w3.org/1999/xlink" x="0px" y="0px"
	 viewBox="0 0 300 299.3" style="enable-background:new 0 0 300 299.3;" xml:space="preserve">
<style type="text/css">
	.st0{fill:#FAE6A7;}
	.st1{fill:#EBD798;}
	.st2{fill:#FFF4CB;}
	.st3{fill:#E1CD93;}
	.st4{fill:#895438;}
	.st5{fill:#FFE159;}
	.st6{fill:#FFC83C;}
	.st7{fill:#6C392C;}
	.st8{fill:#E4EAF8;}
	.st9{fill:#D5DCED;}
	.st10{fill:#FF5050;}
	.st11{fill:#FFF082;}
	.st12{fill:#A0FFB4;}
	.st13{fill:#FFFFFF;}
	.st14{fill:#464655;}
	.st15{fill:#707487;}
	.st16{fill:#00AAF0;}
	.st17{fill:#0096DC;}
	.st18{fill:#00C3FF;}
</style>
<g id="Livello_2_1_">
	<g id="Livello_1-2">
		<polygon class="st0" points="90.7,62.1 88.1,82.7 85.5,62.1 77.8,62.1 72.6,103.3 67.5,62.1 46.8,62.1 46.8,237.2 198.9,237.2 
			201.4,216.6 204,237.2 211.8,237.2 216.9,196 222.1,237.2 253,237.2 253,62.1 		"/>
		<rect x="253" y="56.8" class="st0" width="41.5" height="185.7"/>
		<rect x="5.4" y="56.8" class="st0" width="41.5" height="185.7"/>
		<rect x="6" y="62.1" class="st1" width="15.2" height="175.2"/>
		<rect x="253" y="62.1" class="st1" width="15.2" height="175.2"/>
		<rect x="283.9" y="62.1" class="st2" width="10.5" height="175.2"/>
		<rect x="36.3" y="62.1" class="st2" width="10.5" height="175.2"/>
		<rect x="46.8" y="62.1" class="st1" width="10.5" height="175.2"/>
		<rect x="242.5" y="62.1" class="st3" width="10.5" height="175.2"/>
		<path class="st4" d="M47.3,62.1h-42c-2.9,0-5.3-2.3-5.3-5.2c0,0,0,0,0-0.1l0,0c0-2.9,2.3-5.3,5.2-5.3c0,0,0,0,0,0h42
			c2.9,0,5.3,2.4,5.3,5.3v0l0,0C52.5,59.7,50.2,62,47.3,62.1z"/>
		<path class="st4" d="M31.4,51.5H21.1L17,10.3C16.5,5.1,20.2,0.6,25.4,0c0.3,0,0.6,0,0.9,0l0,0c5.2,0,9.3,4.2,9.3,9.3
			c0,0.3,0,0.6,0,0.9L31.4,51.5z"/>
		<path class="st5" d="M31.5,52.1H21c-2.9,0-5.2-2.4-5.2-5.2l0,0l0,0c0-2.9,2.3-5.3,5.2-5.3h10.5c2.9,0,5.3,2.4,5.3,5.3l0,0
			C36.8,49.8,34.4,52.1,31.5,52.1C31.5,52.1,31.5,52.1,31.5,52.1z"/>
		<path class="st6" d="M21.1,51.8L21.1,51.8c-2.8,0-5.1-2.3-5.1-5.2l0,0c0-2.8,2.3-5.2,5.1-5.2l0,0c2.8,0,5.2,2.3,5.2,5.2l0,0
			C26.3,49.5,24,51.8,21.1,51.8C21.1,51.8,21.1,51.8,21.1,51.8z"/>
		<path class="st4" d="M5.3,237.2h42c2.9,0,5.3,2.4,5.3,5.3l0,0c0,2.9-2.4,5.3-5.3,5.3h-42c-2.9,0-5.3-2.4-5.3-5.3l0,0
			C0,239.6,2.4,237.2,5.3,237.2z"/>
		<path class="st4" d="M21.1,247.8h10.3l4.1,41.3c0.5,5.1-3.2,9.7-8.4,10.2c-0.3,0-0.6,0-0.9,0l0,0c-5.2,0-9.3-4.2-9.3-9.4
			c0-0.3,0-0.6,0-0.9L21.1,247.8z"/>
		<path class="st5" d="M21,247.8h10.5c2.9,0,5.2,2.3,5.3,5.2l0,0c0,2.9-2.4,5.3-5.3,5.3c0,0,0,0,0,0H21c-2.9,0-5.2-2.4-5.2-5.3l0,0
			C15.8,250.1,18.1,247.8,21,247.8z"/>
		<path class="st4" d="M294.7,62.1h-42c-2.9,0-5.3-2.3-5.3-5.2l0,0c0-2.9,2.4-5.3,5.3-5.3h42c2.9,0,5.3,2.3,5.3,5.2c0,0,0,0,0,0l0,0
			C300,59.7,297.6,62.1,294.7,62.1C294.7,62.1,294.7,62.1,294.7,62.1z"/>
		<path class="st4" d="M278.9,51.5h-10.3l-4.1-41.3c-0.5-5.1,3.2-9.7,8.4-10.2c0.3,0,0.6,0,0.9,0l0,0c5.2,0,9.3,4.2,9.3,9.4
			c0,0.3,0,0.6,0,0.9L278.9,51.5z"/>
		<path class="st5" d="M279,52.1h-10.5c-2.9,0-5.3-2.3-5.3-5.2c0,0,0,0,0,0l0,0c0-2.9,2.4-5.3,5.3-5.3l0,0H279
			c2.9,0,5.2,2.4,5.2,5.3l0,0C284.2,49.8,281.9,52.1,279,52.1z"/>
		<path class="st4" d="M252.7,237.2h42c2.9,0,5.3,2.4,5.3,5.3l0,0l0,0c0,2.9-2.4,5.3-5.3,5.3l0,0h-42c-2.9,0-5.3-2.4-5.3-5.3l0,0
			C247.4,239.6,249.8,237.3,252.7,237.2z"/>
		<path class="st4" d="M268.6,247.8h10.3l4.1,41.3c0.5,5.1-3.2,9.7-8.4,10.2c-0.3,0-0.6,0-0.9,0l0,0c-5.2,0-9.3-4.2-9.3-9.3
			c0-0.3,0-0.6,0-0.9L268.6,247.8z"/>
		<path class="st5" d="M268.5,247.8H279c2.9,0,5.2,2.4,5.2,5.2l0,0l0,0c0,2.9-2.3,5.3-5.2,5.3h-10.5c-2.9,0-5.3-2.4-5.3-5.3l0,0l0,0
			C263.2,250.1,265.6,247.8,268.5,247.8C268.5,247.8,268.5,247.8,268.5,247.8z"/>
		<path class="st7" d="M21.3,62.1H5.5c-2.9,0-5.3-2.3-5.3-5.2c0,0,0,0,0,0l0,0c0-2.9,2.3-5.3,5.2-5.3c0,0,0,0,0,0h15.8
			c2.9,0,5.3,2.3,5.3,5.2c0,0,0,0,0,0l0,0C26.5,59.7,24.2,62.1,21.3,62.1C21.3,62.1,21.3,62.1,21.3,62.1z"/>
		<path class="st7" d="M21.3,247.8H5.5c-2.9,0-5.3-2.4-5.3-5.3l0,0c0-2.9,2.4-5.3,5.3-5.3h15.8c2.9,0,5.3,2.4,5.3,5.3l0,0
			C26.5,245.4,24.2,247.8,21.3,247.8z"/>
		<path class="st7" d="M268.7,62.1H253c-2.9,0-5.3-2.3-5.3-5.2l0,0c0-2.9,2.4-5.3,5.3-5.3h15.8c2.9,0,5.2,2.4,5.2,5.3l0,0
			C274,59.7,271.6,62.1,268.7,62.1C268.7,62.1,268.7,62.1,268.7,62.1z"/>
		<path class="st7" d="M268.7,247.8H253c-2.9,0-5.3-2.4-5.3-5.3l0,0c0-2.9,2.4-5.3,5.3-5.3h15.8c2.9,0,5.2,2.4,5.2,5.3l0,0
			C274,245.4,271.7,247.8,268.7,247.8C268.7,247.8,268.7,247.8,268.7,247.8z"/>
		<path class="st6" d="M21.1,258L21.1,258c-2.8,0-5.1-2.3-5.1-5.1l0,0c0-2.8,2.3-5.1,5.1-5.1l0,0c2.8,0,5.2,2.3,5.2,5.1l0,0
			C26.3,255.7,24,258,21.1,258C21.1,258,21.1,258,21.1,258z"/>
		<path class="st6" d="M268.6,51.8L268.6,51.8c-2.8,0-5.2-2.3-5.2-5.2v0l0,0c0-2.8,2.3-5.2,5.2-5.2l0,0l0,0c2.8,0,5.1,2.3,5.1,5.2
			l0,0C273.7,49.5,271.4,51.8,268.6,51.8z"/>
		<path class="st6" d="M268.6,258L268.6,258c-2.8,0-5.2-2.3-5.2-5.2l0,0l0,0c0-2.8,2.3-5.1,5.2-5.1l0,0c2.8,0,5.1,2.3,5.1,5.1l0,0
			C273.7,255.7,271.4,258,268.6,258z"/>
	</g>
</g>
<g>
	<path class="st8" d="M284.1,277.3H173.9c-2.3,0-4.1-1.8-4.1-4.1v-91.8c0-2.3,1.8-4.1,4.1-4.1h110.2c2.3,0,4.1,1.8,4.1,4.1v91.8
		C288.2,275.4,286.4,277.3,284.1,277.3z"/>
	<g>
		<path class="st9" d="M269.8,221.2h-81.6c-1.1,0-2-0.9-2-2v-12.2c0-1.1,0.9-2,2-2h81.6c1.1,0,2,0.9,2,2v12.2
			C271.9,220.2,270.9,221.2,269.8,221.2z"/>
		<path class="st9" d="M288.2,187.5H169.8v-6.1c0-2.3,1.8-4.1,4.1-4.1h110.2c2.3,0,4.1,1.8,4.1,4.1V187.5z"/>
	</g>
	<path class="st8" d="M175.9,185.4h-2c-1.1,0-2-0.9-2-2v-2c0-1.1,0.9-2,2-2h2c1.1,0,2,0.9,2,2v2C178,184.5,177.1,185.4,175.9,185.4z
		"/>
	<path class="st10" d="M267.8,185.4h-2c-1.1,0-2-0.9-2-2v-2c0-1.1,0.9-2,2-2h2c1.1,0,2,0.9,2,2v2
		C269.8,184.5,268.9,185.4,267.8,185.4z"/>
	<path class="st11" d="M275.9,185.4h-2c-1.1,0-2-0.9-2-2v-2c0-1.1,0.9-2,2-2h2c1.1,0,2,0.9,2,2v2C278,184.5,277.1,185.4,275.9,185.4
		z"/>
	<path class="st12" d="M284.1,185.4h-2c-1.1,0-2-0.9-2-2v-2c0-1.1,0.9-2,2-2h2c1.1,0,2,0.9,2,2v2
		C286.1,184.5,285.2,185.4,284.1,185.4z"/>
	<g>
		<path class="st13" d="M269.8,246.7h-49c-1.1,0-2-0.9-2-2v-4.1c0-1.1,0.9-2,2-2h49c1.1,0,2,0.9,2,2v4.1
			C271.9,245.8,270.9,246.7,269.8,246.7z"/>
		<path class="st13" d="M269.8,263h-49c-1.1,0-2-0.9-2-2v-4.1c0-1.1,0.9-2,2-2h49c1.1,0,2,0.9,2,2v4.1
			C271.9,262.1,270.9,263,269.8,263z"/>
	</g>
	<path class="st14" d="M206.6,250.7h-4.1v-8.2c0-3.4-2.7-6.1-6.1-6.1s-6.1,2.7-6.1,6.1v8.2h-4.1v-8.2c0-5.6,4.6-10.2,10.2-10.2
		s10.2,4.6,10.2,10.2V250.7z"/>
	<path class="st15" d="M196.3,265L196.3,265c5.6,0,10.2-4.6,10.2-10.2v-4.1c0-1.1-0.9-2-2-2h-16.3c-1.1,0-2,0.9-2,2v4.1
		C186.1,260.5,190.7,265,196.3,265z"/>
	<path class="st14" d="M196.3,258.9c-1.1,0-2-0.9-2-2v-2c0-1.1,0.9-2,2-2c1.1,0,2,0.9,2,2v2C198.4,258,197.5,258.9,196.3,258.9z"/>
	<path class="st16" d="M214.7,209.9v12.2c0,1.1,0.9,2,2,2h24.5c1.1,0,2-0.9,2-2v-12.2H214.7z"/>
	<g>
		<path class="st17" d="M251.4,207.9l-4.1,0l0,16.3c0,1.1,0.9,2,2,2h0c1.1,0,2-0.9,2-2L251.4,207.9z"/>
		<path class="st17" d="M214.7,216.5l11.1,3c1,0.3,2.1,0.4,3.2,0.4c1.1,0,2.1-0.1,3.2-0.4l11.1-3v-6.5h-28.6V216.5z"/>
	</g>
	<path class="st18" d="M226.9,200.3l-26,6.9c-0.7,0.2-0.7,1.2,0,1.4l26,6.9c1.4,0.4,2.8,0.4,4.2,0l26-6.9c0.7-0.2,0.7-1.2,0-1.4
		l-26-6.9C229.7,199.9,228.3,199.9,226.9,200.3z"/>
	<circle class="st16" cx="249.4" cy="230.3" r="2"/>
	<g>
	</g>
	<g>
	</g>
	<g>
	</g>
	<g>
	</g>
	<g>
	</g>
	<g>
	</g>
	<g>
	</g>
	<g>
	</g>
	<g>
	</g>
	<g>
	</g>
	<g>
	</g>
	<g>
	</g>
	<g>
	</g>
	<g>
	</g>
	<g>
	</g>
</g>
</svg>
