<svg xmlns="http://www.w3.org/2000/svg" viewBox="0 0 5252.71 1715.13"><defs><style>.cls-1{fill:#bc8655;}.cls-2{fill:#3f4c73;}.cls-3{fill:#82a29d;}.cls-4{fill:#566288;}.cls-5{fill:#95b3af;}.cls-6{fill:#9e7042;}.cls-7{fill:#c59269;}.cls-8{fill:#f3c48d;}.cls-9{fill:#fbcaa8;}.cls-10{fill:#ffd9c3;}.cls-11{fill:#f2bd9d;}.cls-12{fill:#e8d3b8;}.cls-13{fill:#e1ae94;}.cls-14{fill:#fb885e;}.cls-15{fill:#ffd59d;}.cls-16{fill:#ffa389;}.cls-17{fill:#f46a5d;}.cls-18{fill:#ffedd5;}</style></defs><title>Risorsa 1</title><g id="Livello_2" data-name="Livello 2"><g id="Livello_1-2" data-name="Livello 1"><g id="Layer_1" data-name="Layer 1"><path class="cls-1" d="M1092,1669.84c-58.28-9.71-222.27-51.62-222.27-107.45,0-8.49-110.6,4.22-110.6,4.22l6.32,140.1h344.45s32.66-28.44-17.9-36.87"/><path class="cls-2" d="M878.27,1147.63c-5-28.53-10.59-53.43-16.64-74-10.19-34.65-22.23-59.18-37.91-77.22-28.75-33-72.37-53.7-129.65-61.36a375.61,375.61,0,0,0-63.47-2.92h-195a84.93,84.93,0,0,0,0,169.86H632.72c1.83,0,3.66-.06,5.48-.18a204.33,204.33,0,0,1,27,.86c14.7,1.44,24.21,4.08,29.25,6,3.49,9.12,10.35,30.91,17.83,75.92,6.08,36.56,9.15,68.37,9.18,68.66a2.46,2.46,0,0,1,0,.26l35.59,363H927.73L890.52,1237c-.37-3.78-4.34-44.13-12.25-89.36"/><path class="cls-3" d="M878.27,1147.63c-5-28.53-10.59-53.43-16.64-74-10.19-34.65-22.23-59.18-37.91-77.22-28.75-33-72.37-53.7-129.65-61.36a375.61,375.61,0,0,0-63.47-2.92h-195a84.93,84.93,0,0,0,0,169.86H632.72c1.83,0,3.66-.06,5.48-.18a204.33,204.33,0,0,1,27,.86c14.7,1.44,24.21,4.08,29.25,6,3.49,9.12,10.35,30.91,17.83,75.92,6.08,36.56,9.15,68.37,9.18,68.66a2.46,2.46,0,0,1,0,.26l35.59,363H927.73L890.52,1237c-.37-3.78-4.34-44.13-12.25-89.36"/><path class="cls-4" d="M601.44,1101.78c-1.87,0-3.73,0-5.6-.08l-199.64-9.39a85,85,0,0,0,39.38,9.69h173c-4.41-.22-7.12-.22-7.17-.22"/><path class="cls-5" d="M878.27,1147.63c-5-28.53-10.59-53.43-16.64-74-10.19-34.65-22.23-59.18-37.91-77.22-28.75-33-72.37-53.7-129.65-61.36a373.81,373.81,0,0,0-43.13-3.16c5,.68,10.17,1.49,15.48,2.46,58.07,10.56,101.57,33.72,129.31,68.82,15.12,19.14,26.23,44.74,35,80.57,5.18,21.27,9.7,46.93,13.42,76.28,5.91,46.51,8,87.87,8.21,91.74l18.52,364.8h56.89L890.52,1237c-.37-3.78-4.34-44.13-12.25-89.36"/><path class="cls-1" d="M1205.9,1682.58H1522V899.14H1205.9Z"/><path class="cls-6" d="M1205.9,1017.82,1522,1061.9V899.14H1205.9Z"/><path class="cls-1" d="M1664.35,832.08H881.57a27.73,27.73,0,0,0-27.74,27.73v49.91a27.74,27.74,0,0,0,27.74,27.74h782.78a27.74,27.74,0,0,0,27.74-27.74V859.81a27.73,27.73,0,0,0-27.74-27.73"/><path class="cls-7" d="M1664.35,832.08H881.57a27.73,27.73,0,0,0-27.74,27.73v25.62a27.74,27.74,0,0,1,27.74-27.74h782.78a27.74,27.74,0,0,1,27.74,27.74V859.81a27.73,27.73,0,0,0-27.74-27.73"/><path class="cls-8" d="M911.37,832.68h342.44v-72L911.37,804.52Z"/><path class="cls-9" d="M979.85,686.85l-1.88.41,48.32,31.23,82.85-32.38-62.87-18.7Z"/><path class="cls-9" d="M1161,715.67l-49.24-29.31a13.39,13.39,0,0,0-13.71,23l49.25,29.33a13.4,13.4,0,0,0,13.7-23"/><path class="cls-9" d="M1102.33,684.06l-57.19,3.79a13.39,13.39,0,0,0,1.77,26.73l57.18-3.8a13.39,13.39,0,1,0-1.76-26.72"/><path class="cls-9" d="M996.17,699.11,977.8,717.74,970,738.93l-44.22,17.33s59.72,31.91,78.37,30.79,17.82,0,29.66-5.77c27.21-13.16-9-33-9-33L1040,718.47l48.83,28.86,17.84-19.41-46.38-39.5Z"/><path class="cls-9" d="M1110.85,732.29a13.38,13.38,0,0,0-23.77,12.31l26.35,50.91a13.39,13.39,0,1,0,23.77-12.32Z"/><path class="cls-9" d="M1085.13,751.73A13.39,13.39,0,0,0,1061.34,764l26.36,50.9a13.39,13.39,0,1,0,23.78-12.31Z"/><path class="cls-9" d="M1055.73,764.29a13.4,13.4,0,0,0-23.81,12.31l21.4,41.22a13.38,13.38,0,1,0,23.76-12.31Z"/><path class="cls-9" d="M1014.91,725l54,44.73,15.4-19.31-47.17-57.65Z"/><path class="cls-9" d="M994.53,763.67l46.41,18.72,14.16-19.31-46-55.36Z"/><path class="cls-10" d="M1131.22,778.36c-2-3.42-15.71,4.48-13.78,7.9l3.8,6.58c2,3.4,6.63,4.41,10.43,2.23s5.3-6.73,3.32-10.12Z"/><path class="cls-10" d="M1159.81,718.66l-6.56-3.81c-3.4-2-11.37,11.76-8,13.74l6.58,3.81c3.39,2,8,.49,10.14-3.3s1.23-8.47-2.18-10.44"/><path class="cls-10" d="M1104.69,796.29c-2-3.42-15.72,4.5-13.78,7.9l3.79,6.59c2,3.41,6.64,4.41,10.45,2.22s5.29-6.72,3.32-10.13Z"/><path class="cls-10" d="M1070.7,801.44c-2-3.42-15.71,4.48-13.75,7.89l3.78,6.59c2,3.41,6.62,4.4,10.44,2.23s5.3-6.72,3.31-10.13Z"/><path class="cls-9" d="M1105.63,686.5a1.14,1.14,0,0,0-1.57.52l-7.89,15.44a1.19,1.19,0,0,0,.53,1.58,1.17,1.17,0,0,0,1.57-.51l7.89-15.44a1.19,1.19,0,0,0-.53-1.59"/><path class="cls-9" d="M1110.6,689.21a1.2,1.2,0,0,0-1.59.53l-4.87,9.54a1.18,1.18,0,0,0,.51,1.57,1.15,1.15,0,0,0,1.57-.5l4.9-9.56a1.19,1.19,0,0,0-.52-1.58"/><path class="cls-10" d="M1104.8,733.08l-9.18,5.52a1.18,1.18,0,0,0,1.22,2l9.17-5.55a1.2,1.2,0,0,0,.4-1.63,1.17,1.17,0,0,0-1.61-.37"/><path class="cls-10" d="M1077.15,749.54l-9.17,5.55a1.17,1.17,0,1,0,1.21,2l9.18-5.53a1.18,1.18,0,0,0-1.22-2"/><path class="cls-9" d="M1017.56,676.68,913.28,704.41l-35.7,47.79,33.48,42.07,98.73-7.76c16.26-.22,42.33-32.66,42-57.8s-18-52.26-34.21-52"/><path class="cls-5" d="M366.43,400.51c-87.84,0-159.06,29.06-159.06,64.91v568.13c0,35.85,71.22,64.91,159.06,64.91s122.17-17,122.17-52.85l36.89-484.17s2.18-53.81-17.49-88c-28.18-49-53.72-73-141.57-73"/><path class="cls-3" d="M200.29,992.35l7.08,41.2c0,35.85,71.22,64.91,159.06,64.91s161.64-19.73,161.64-55.59L497.24,932.14Z"/><path class="cls-11" d="M377.56,158.32H328.38c-31.48,0-57,14.34-57,32V422.25c0,17.7,25.52,32.05,57,32.05h49.18c31.48,0,57-14.35,57-32.05V190.36c0-17.7-25.52-32-57-32"/><path class="cls-12" d="M516.68,192.84c-5,0-15.2,6.74-17.55,12.28a14.67,14.67,0,0,1-.26,27.95c1.88,5.43,12.58,11.56,17.81,11.56a10.4,10.4,0,0,0,10.41-10.39L530.54,209a14.39,14.39,0,0,0-13.86-16.13"/><path class="cls-9" d="M325.61,318.46c0,28.34,37.61,70.45,94,70.45,61.44,0,111.94-42.11,111.94-70.45V71h-206Z"/><path class="cls-13" d="M273.65,76.18c-1.24,13.59,2.62,28.94,14,34.46,24.46,11.8,46.92-9.18,102.2,5.83,39.42,10.71,76.86,20.06,110,15.65a51.62,51.62,0,0,0,31.7-16.54V71H274.12Z"/><path class="cls-11" d="M383.6,179.62c-10.66,0-27.45,9.35-25.69,29.92l6.4,46.84a19.29,19.29,0,0,0,19.29,19.29c10.65,0,33.57-13.74,33.57-24.39l-.11-44.89c0-10.66-22.81-26.77-33.46-26.77"/><path class="cls-11" d="M505.32,260.33c0,6.39,9.32,11.59,20.81,11.59a37,37,0,0,0,5.45-.41V249.14a37,37,0,0,0-5.45-.4c-11.49,0-20.81,5.19-20.81,11.59"/><path class="cls-9" d="M523.2,142.87,495.1,261.3s15.16,1.56,19.67,1.57c12.24,0,35.46-1,39.31-8.47,6-11.66-6.77-33.38-15.21-56.78a486.45,486.45,0,0,1-15.67-54.75"/><path class="cls-10" d="M525.16,151.32c1.26,14.78,3.82,33.88,9,48.11,8.44,23.39,18.3,44.68,12.3,56.34-1.44,2.8-5.6,4.68-10.89,6,8.66-1.12,16.47-3.26,18.56-7.32,6-11.66-6.77-33.38-15.21-56.78a473.76,473.76,0,0,1-13.71-46.3"/><path class="cls-1" d="M486.58,164.81a12,12,0,1,0,12,12,12,12,0,0,0-12-12"/><path class="cls-13" d="M484.23,290.33c9,11,26.59,18.88,47.34,20.22V295.62a246.83,246.83,0,0,1-47.23-5.44Z"/><path class="cls-13" d="M500.68,142H469.21a5.64,5.64,0,1,0,0,11.28h31.47a5.64,5.64,0,0,0,0-11.28"/><path class="cls-1" d="M349.73,54c0-15.29-43.05,1.28-58.36,1.28S240,62.63,244.08,100.68l19.6,163.08c0,8.64,11.73,20.36,22.28,17,8.15-2.62,101.48-51.09,101.48-57.75,0,0,11.87-115.34,24.46-156.27S349.73,54,349.73,54"/><path class="cls-9" d="M386,170.71c-10.66,0-27.45,9.35-25.7,29.92l6.4,46.84A19.29,19.29,0,0,0,386,266.76c10.64,0,33.56-13.73,33.56-24.39l-.11-44.88c0-10.66-22.81-26.78-33.45-26.78"/><path class="cls-13" d="M397.52,219a14.67,14.67,0,0,1,10.07-13.92c-2.35-5.54-12.48-12.28-17.55-12.28A14.39,14.39,0,0,0,376.19,209l3.45,25.27A10.4,10.4,0,0,0,390,244.63c5.23,0,15.93-6.13,17.82-11.56a14.68,14.68,0,0,1-10.34-14"/><path class="cls-6" d="M557.65,5c-20.08-1.07-1.94,20.88-67.6,20.88-19.09,0-49-8.54-78.95-16.7C310.94-18.09,285.75,23,281.77,34.37a57.58,57.58,0,0,0-3.4,20.52c.36,9.28.88,35.72,23.45,48.66,23.57,13.5,41-12.89,97.4-3,40.24,7.08,78.37,13,111,5.58C569,92.8,577.72,6.07,557.65,5"/><path class="cls-14" d="M553.93,1537.56c-38.42-14.31-89.25-16.28-138.44-16.28H371.63c-49.2,0-100,2-138.45,16.28-22.58,8.41-40.2,20.82-52.39,36.9-13.54,17.85-20.41,40.06-20.41,66a30.51,30.51,0,0,0,61,0c0-24.06,9.27-36.88,33.08-45.74,29.37-10.94,73.66-12.45,117.15-12.45h43.86c43.49,0,87.78,1.51,117.15,12.45,23.8,8.86,33.08,21.68,33.08,45.74a30.51,30.51,0,1,0,61,0c0-26-6.86-48.17-20.4-66-12.19-16.08-29.82-28.49-52.4-36.9"/><path class="cls-14" d="M395,1451.33a30.5,30.5,0,0,0-30.5,30.51v158.64a30.51,30.51,0,1,0,61,0V1481.84A30.51,30.51,0,0,0,395,1451.33"/><path class="cls-15" d="M428.21,1229.08H361.62a17,17,0,0,0-17,17v241.54a17,17,0,0,0,17,17h66.59a17,17,0,0,0,17-17V1246.07a17,17,0,0,0-17-17"/><path class="cls-14" d="M626,821.69a90.37,90.37,0,0,0-33.51-7.19H188.24v69.68H592.65a25.37,25.37,0,0,1,5.89,1.55c2.7,1.15,3.42,2.07,4,5.1.46,3.24,2.21,24.67-6.37,138.84-4.6,61.29-9.91,119.09-10,119.67l69.39,6.39c.05-.59,5.5-59.91,10.18-122.39,9.74-130.22,6.69-147.35,5.38-154.67-4.7-26.28-20.72-46.51-45.11-57"/><path class="cls-14" d="M583,1162.23H227.1a17,17,0,0,0-17,17v129a17,17,0,0,0,17,17H583a17,17,0,0,0,17-17v-129a17,17,0,0,0-17-17"/><path class="cls-8" d="M178.86,332.22A89.67,89.67,0,0,0,.49,350.89L97.7,1129.61a89.67,89.67,0,0,0,178.36-18.67Z"/><path class="cls-15" d="M80.34,252.38a89.15,89.15,0,0,0-35.82,11.69A89.65,89.65,0,0,1,110.9,333L261.09,991,178.86,332.22a89.67,89.67,0,0,0-98.52-79.84"/><path class="cls-8" d="M627.28,1076.89H192.44a89.69,89.69,0,0,0,0,179.37H627.28a89.69,89.69,0,1,0,0-179.37"/><path class="cls-15" d="M627.28,1076.89H309.82l301.69,47.71a89.68,89.68,0,0,1,85.07,94.07c-.1,1.81-.25,3.59-.44,5.36a89.68,89.68,0,0,0-68.86-147.14"/><path class="cls-14" d="M1402.15,476.36a25.48,25.48,0,0,0-8.49,49.5V781.72h-92.49a25.48,25.48,0,0,0,0,51h101a42.52,42.52,0,0,0,42.47-42.47V518.82a42.51,42.51,0,0,0-42.47-42.46"/><path class="cls-8" d="M1388.93,56.56h-101V722.41h101a17,17,0,0,0,17-17V73.54a17,17,0,0,0-17-17"/><path class="cls-16" d="M188.85,1614.65a50.24,50.24,0,1,0,50.24,50.24,50.24,50.24,0,0,0-50.24-50.24"/><path class="cls-16" d="M392.19,1614.65a50.24,50.24,0,1,0,50.24,50.24,50.24,50.24,0,0,0-50.24-50.24"/><path class="cls-16" d="M595.53,1614.65a50.24,50.24,0,1,0,50.24,50.24,50.24,50.24,0,0,0-50.24-50.24"/><path class="cls-3" d="M937.9,671.74c-.63.16-64,16.68-146,24.7C688.82,706.51,602.65,699,542.71,674.61,485.48,651.37,442.21,611,416,580.06c-30-35.42-45.6-65.59-45.75-65.89l.13.26s-36.32-50.82-98.52-14.1c-51.71,30.53-29,78-29,78,2.16,4.31,22.23,42.11,61.24,88.92a534,534,0,0,0,75.54,74.56c34.33,27.57,71.15,49.43,109.42,65,46.73,19,102,30.73,164.25,34.9q26.15,1.75,54,1.75c32.2,0,66-1.75,101-5.26,92.94-9.29,163.16-27.74,166.11-28.53l-16.2-141.81Z"/><path class="cls-5" d="M937.9,671.74c-.63.16-64,16.68-146,24.7C688.82,706.51,602.65,699,542.71,674.61c-56.19-22.82-98.91-62.16-125.26-92.86,3,4.18,6.22,8.48,9.64,12.86,24.92,32,66.49,74.11,122.72,99.69,58.89,26.79,144.68,37.87,248.07,32.05,82.32-4.65,146.27-18.55,146.91-18.69L962.48,705l-4.25-37.18Z"/><path class="cls-17" d="M972.93,810.06l1.5-.39-4.21-36.83Z"/><path class="cls-15" d="M4013.58,334H4054a17.5,17.5,0,0,1,0,35h-40.45a17.5,17.5,0,0,1,0-35"/><path class="cls-15" d="M3508,334h40.44a17.5,17.5,0,0,1,0,35H3508a17.5,17.5,0,0,1,0-35"/><path class="cls-15" d="M4114.69,334h40.45a17.5,17.5,0,0,1,0,35h-40.45a17.5,17.5,0,0,1,0-35"/><path class="cls-15" d="M4316.92,334h40.45a17.5,17.5,0,0,1,0,35h-40.45a17.5,17.5,0,0,1,0-35"/><path class="cls-15" d="M3912.46,334h40.45a17.5,17.5,0,0,1,0,35h-40.45a17.5,17.5,0,0,1,0-35"/><path class="cls-15" d="M3811.35,334h40.45a17.5,17.5,0,0,1,0,35h-40.45a17.5,17.5,0,1,1,0-35"/><path class="cls-15" d="M3609.12,334h40.45a17.5,17.5,0,0,1,0,35h-40.45a17.5,17.5,0,0,1,0-35"/><path class="cls-15" d="M3406.89,334h40.45a17.5,17.5,0,0,1,0,35h-40.45a17.5,17.5,0,0,1,0-35"/><path class="cls-15" d="M3710.24,334h40.44a17.5,17.5,0,0,1,0,35h-40.44a17.5,17.5,0,0,1,0-35"/><path class="cls-15" d="M4418,334h40.44a17.5,17.5,0,0,1,0,35H4418a17.5,17.5,0,0,1,0-35"/><path class="cls-15" d="M4822.49,334h40.45a17.5,17.5,0,0,1,0,35h-40.45a17.5,17.5,0,0,1,0-35"/><path class="cls-15" d="M5024.72,334h40.45a17.5,17.5,0,0,1,0,35h-40.45a17.5,17.5,0,0,1,0-35"/><path class="cls-15" d="M1967.72,334h-40.44a17.5,17.5,0,1,0,0,35h40.44a17.5,17.5,0,0,0,0-35"/><path class="cls-15" d="M4923.61,334h40.44a17.5,17.5,0,0,1,0,35h-40.44a17.5,17.5,0,0,1,0-35"/><path class="cls-15" d="M4519.15,334h40.45a17.5,17.5,0,0,1,0,35h-40.45a17.5,17.5,0,0,1,0-35"/><path class="cls-15" d="M4620.27,334h40.44a17.5,17.5,0,0,1,0,35h-40.44a17.5,17.5,0,0,1,0-35"/><path class="cls-15" d="M4721.38,334h40.45a17.5,17.5,0,0,1,0,35h-40.45a17.5,17.5,0,0,1,0-35"/><path class="cls-15" d="M4215.81,334h40.44a17.5,17.5,0,0,1,0,35h-40.44a17.5,17.5,0,0,1,0-35"/><path class="cls-15" d="M2193.52,334H2234a17.5,17.5,0,0,1,0,35h-40.45a17.5,17.5,0,0,1,0-35"/><path class="cls-15" d="M1991.29,334h40.45a17.5,17.5,0,0,1,0,35h-40.45a17.5,17.5,0,0,1,0-35"/><path class="cls-15" d="M2395.75,334h40.45a17.5,17.5,0,0,1,0,35h-40.45a17.5,17.5,0,0,1,0-35"/><path class="cls-15" d="M2294.64,334h40.44a17.5,17.5,0,0,1,0,35h-40.44a17.5,17.5,0,0,1,0-35"/><path class="cls-15" d="M2092.41,334h40.44a17.5,17.5,0,0,1,0,35h-40.44a17.5,17.5,0,0,1,0-35"/><path class="cls-15" d="M1890.18,334h40.44a17.5,17.5,0,0,1,0,35h-40.44a17.5,17.5,0,1,1,0-35"/><path class="cls-15" d="M1688,334h40.45a17.5,17.5,0,0,1,0,35H1688a17.5,17.5,0,0,1,0-35"/><path class="cls-15" d="M3305.78,334h40.45a17.5,17.5,0,0,1,0,35h-40.45a17.5,17.5,0,0,1,0-35"/><path class="cls-15" d="M1789.07,334h40.44a17.5,17.5,0,0,1,0,35h-40.44a17.5,17.5,0,1,1,0-35"/><path class="cls-15" d="M2901.32,334h40.45a17.5,17.5,0,0,1,0,35h-40.45a17.5,17.5,0,0,1,0-35"/><path class="cls-15" d="M2496.87,334h40.44a17.5,17.5,0,0,1,0,35h-40.44a17.5,17.5,0,0,1,0-35"/><path class="cls-15" d="M3002.44,334h40.44a17.5,17.5,0,0,1,0,35h-40.44a17.5,17.5,0,0,1,0-35"/><path class="cls-15" d="M3204.66,334h40.45a17.5,17.5,0,0,1,0,35h-40.45a17.5,17.5,0,0,1,0-35"/><path class="cls-15" d="M3103.55,334H3144a17.5,17.5,0,0,1,0,35h-40.45a17.5,17.5,0,0,1,0-35"/><path class="cls-15" d="M2800.21,334h40.44a17.5,17.5,0,0,1,0,35h-40.44a17.5,17.5,0,0,1,0-35"/><path class="cls-15" d="M2598,334h40.44a17.5,17.5,0,0,1,0,35H2598a17.5,17.5,0,0,1,0-35"/><path class="cls-15" d="M2699.09,334h40.45a17.5,17.5,0,0,1,0,35h-40.45a17.5,17.5,0,0,1,0-35"/><path class="cls-15" d="M1607.28,334h20a17.5,17.5,0,0,1,0,35h-20a17.5,17.5,0,0,1,0-35"/><path class="cls-15" d="M1730,165.12a17.5,17.5,0,0,1,24.75,24.75L1593.14,351.46l161.59,161.59A17.5,17.5,0,0,1,1730,537.8l-174-174a17.49,17.49,0,0,1,0-24.75Z"/><path class="cls-15" d="M4209.69,281.38h-76.43L4209.69,205Z"/><path class="cls-15" d="M4290.53,333H4170.68V317.41h119.85Z"/><path class="cls-15" d="M4290.53,365.18H4170.68V349.54h119.85Z"/><path class="cls-15" d="M4290.53,397.31h-61.66V381.67h61.66Z"/><path class="cls-8" d="M2147.93,90c-144.42,0-261.5,117.08-261.51,261.5S2003.51,613,2147.93,613s261.51-117.08,261.51-261.51S2292.35,90,2147.93,90"/><path class="cls-18" d="M2289,260.12a43.11,43.11,0,0,0-61,1.77l-104.39,110.3-53.41-49.56a43.23,43.23,0,1,0-58.71,63.48l84.91,78.28a42.5,42.5,0,0,0,28.32,11.53,42.94,42.94,0,0,0,32.24-13.58l133.73-141.17a43.15,43.15,0,0,0-1.65-61.05"/><path class="cls-8" d="M4280.39,90C4136,90,4018.88,207,4018.87,351.46S4136,613,4280.38,613s261.51-117.08,261.51-261.51S4424.81,90,4280.39,90"/><path class="cls-18" d="M4319.94,374.67a33.85,33.85,0,1,1-67.69,0V357.75H4150.7v84.6a33.86,33.86,0,0,0,33.85,33.86h203.08a33.85,33.85,0,0,0,33.85-33.86v-84.6H4319.94Z"/><path class="cls-18" d="M4252.25,273.12a33.85,33.85,0,1,1,67.69,0Zm135.38,0h-50.76V256.2a33.73,33.73,0,0,0-31-33.54v-.3h-37v0a33.82,33.82,0,0,0-33.58,33.81v16.92h-50.76A33.86,33.86,0,0,0,4150.7,307v33.85h270.78V307a33.85,33.85,0,0,0-33.85-33.85"/><path class="cls-18" d="M4269.17,391.59H4303V357.75h-33.84Z"/><path class="cls-8" d="M3569.56,90c-144.42,0-261.5,117.08-261.5,261.51S3425.14,613,3569.56,613s261.51-117.07,261.51-261.51S3714,90,3569.56,90"/><path class="cls-18" d="M3651.94,284.47h-179.6v-58h179.6Zm0,58H3607V303.81h44.91Zm0,58H3607V361.78h44.91Zm0,58H3607V419.77h44.91Zm-67.36-116h-44.87V303.81h44.87Zm0,58h-44.87V361.78h44.87Zm0,58h-44.87V419.77h44.87Zm-67.33-116h-44.91V303.81h44.91Zm0,58h-44.91V361.78h44.91Zm0,58h-44.91V419.77h44.91Zm134.69-270.57h-179.6c-24.78,0-44.87,17.31-44.87,38.65V458.42c0,21.37,20.09,38.66,44.87,38.66h179.6c24.79,0,44.87-17.29,44.87-38.66V226.5c0-21.34-20.08-38.65-44.87-38.65"/><path class="cls-8" d="M4991.2,90c-144.43,0-261.51,117.08-261.51,261.5S4846.77,613,4991.2,613s261.5-117.08,261.51-261.51S5135.62,90,4991.2,90"/><path class="cls-18" d="M5105.1,471a162.75,162.75,0,0,1-189.5,29.81c2.75-5.44,4.63-21.2,4.63-21.2s3.94-39.42,2.45-41.84-11.47-12-17.93-15-12.45.51-17.92-1.57-8-10.46-12-13.42-10-3-16.15-4.67-10.27-9.31-11.76-12.3-.65-10.3,3.95-10.92,9.49-1.55,26.52-9.89-2.05-13.56-1.07-25.53,17-11,23.42-18-4.49-11.46-9.47-15.38-12.93,1-15.94,6.45-4,10-10.08,8.85-7.92-2.19-11.34-8.85,2.39-7,15.41-15.93,5-9,4.52-12.53-6-2-12.48-4.42c-.09-.06-.09-.16-.25-.24-6-2.64-2.67-9.35,1.25-11.73s8.49-3,12.5-.53,3.91,4.45,14.43.53,10.95-.53,14.47,4.45c2.27,3.2,5.09,7.93,7.86,12.3,1.64,2.57,3.15,4.79,4.59,6.62,4,5,13.95,0,22.43-4.92.09,0,.16-.18.22-.18,8.21-5,5.31-12.88,5.76-19.82s-4.95-7-8-9.46-3.49-11.43-6.95-16.46-10.51-4.5-15-3.05-11.94,8.08-13.39,7.53-1.05-8-4.51-10.47c-2.14-1.46-10-1.72-16.78-2.9a162.29,162.29,0,0,1,244.08,25.64c-16.32,5.25-45.1,15.25-47.3,18.12-3,4-13.42,6-18.42,3.53s-8.48-5.42-13.47-5-7,1-10.49,5a31.6,31.6,0,0,1-10.45,7.84c-2.47,1.12-4.95,1.78-7,.62a7.85,7.85,0,0,0-1.81-.45,7.58,7.58,0,0,0-4.58.14,11.17,11.17,0,0,0-3.66,2.08c-5.06,7.15,1.07,16.22,5.09,15.75s8.93-8.51,11.47-8.51,8.07,4.53,9,6.23-4,12.74-7,13.24-14,3.95-16.53,3.95-13.45-4.45-15.95-1.53c-2.5,3.08-7.45,2.56-5,9.53s0,12.45-1.95,13-18.46,5-2,5.48,20.46-5,23.94-5.48,9.48-5,13.45-3,10.2-1.11,13.56,0,10.82-8.33,14.33-4.91,2.53,10.42,1.62,12.94-7,4.47-5.61,7.95a30.78,30.78,0,0,0,9.08,11.48c4.45,3.5,7.44,7.92,10.42,4.46s3-8,4.51-10,15.45.51,16,3.51,7.46,9.51,8.9,10,7,3.05,7,3.05,1.58,1.76,4,7.06,7.45,5.4,11,4.42,6.3-8.5,11-8,7-1.57,11.95,3.47c4.74,4.72,5.92,5.89,9.41,8.54A162.93,162.93,0,0,1,5105.1,471m-246.65-19a164.67,164.67,0,0,1-21.74-40.39c4.07,1,8.64,1.26,12.15,2.18,6,1.49,12,10.94,14.5,12s-2.39,23-4.91,26.23m264.71-229.67A190.06,190.06,0,1,0,5161,276.85a190.29,190.29,0,0,0-37.83-54.58"/><path class="cls-18" d="M5053.41,405.2c-3.47-.93-6.53-8.43-7.54-13.95s-5-12-10.45-14.43-8.95,0-14-2.5-12.92-8-17.92-9.5-11.94-.51-17-3-12.47,4-12.47,4-6,10.93-8,14-2.52,15.39-1.48,19.39,10.94,13.47,10.94,13.47,4.53,7.47,8,7.47,10-5,15.51-5.44,8.43,4,9.92,6.42,2.48,14,2,17.51.45,25.95,2,27.88c1.52,2.12,12.46,12.55,16.41,12.55s8.53-7,12-10,8-15.47,8-19v-18c0-3,4.47-7.48,8-11s7-9.9,6-13.92-6.45-.94-9.91-2"/><path class="cls-8" d="M2857.89,88.53c-144.43,0-261.51,117.08-261.51,261.5s117.08,261.51,261.51,261.51S3119.4,494.46,3119.39,350s-117.07-261.5-261.5-261.5"/><path class="cls-18" d="M2883,280h76.42L2883,203.53Z"/><path class="cls-18" d="M2942,450.71H2784.78V225.57h80v-22H2763.29V474.66h196.14V297.34H2942Z"/><path class="cls-18" d="M2802.17,331.62H2922V316H2802.17Z"/><path class="cls-18" d="M2802.17,363.76H2922V348.12H2802.17Z"/><path class="cls-18" d="M2802.17,395.89h61.65V380.25h-61.65Z"/></g></g></g></svg>